<?xml version="1.0" encoding="UTF-8"?><svg id="b" xmlns="http://www.w3.org/2000/svg" viewBox="0 0 28.1 28.1"><g id="c"><path d="M28.1.6s0,0,0,0c0,0,0,0,0,0,0,0,0,0,0-.1,0,0,0,0,0,0,0,0,0-.1,0-.1,0,0,0,0,0,0,0,0,0-.1-.1-.2,0,0-.1,0-.2-.1,0,0,0,0,0,0,0,0,0,0-.1,0,0,0,0,0,0,0,0,0,0,0-.1,0,0,0,0,0,0,0,0,0,0,0,0,0,0,0,0,0,0,0,0,0,0,0,0,0L.5,10.3c-.2,0-.4.2-.4.4-.1.4,0,.9.5,1l12.5,3.4,3.4,12.5c0,.3.3.5.6.6s.2,0,.2,0c.2,0,.4-.2.5-.5L28,.7s0,0,0,0c0,0,0,0,0,0ZM25.4,1.9l-12.1,12.1L1.9,10.9,25.4,1.9ZM17.2,26.3l-3.1-11.5L26.1,2.7l-9,23.6Z"/></g></svg>