<?xml version="1.0" encoding="UTF-8"?><svg id="b" xmlns="http://www.w3.org/2000/svg" viewBox="0 0 116.4 139.7"><g id="c"><path d="M68.5,0C40.2,0,30.2,43.9,20.9,79.1c-3.4-3.4-13.7-13.7-13.7-13.7-2.1-2.1-4.5-1.4-5.9,0-1.5,1.5-1.7,4.2,0,5.8,0,0,14,13.9,18.9,18.8,1.3,1.3,3.3,2.1,5.2.9,2-1.2,2.3-3.4,2.3-3.4C44.1,13.8,58.9,8.3,68.4,8.3s17.4,5.9,17.4,17.8c12,0,19.6,15.8,9.9,25.5,8,3.9,11.6,8.6,11.6,14.7s-5.1,12.2-12.5,12.2c-7.3,0-11.1-4.7-16.8-4.7-2.6,0-4.2,2.1-4.2,4.1v14.9h-10.8v-14.9c0-2.3-1.7-4.2-3.9-4.2s-.9,0-.9,0l-14.4,1.8c-1.7.3-3.4,2.1-3.4,4.1s1.9,4.2,4.4,4.1c.3,0,.8,0,.7,0,0,0,9.1-1.2,9.1-1.2v14.7c0,1.9,2.1,3.7,4,3.7h19.2c2.2,0,4.2-1.9,4.2-4.2v-13.4c4,2.4,9.6,3.4,12.5,3.4,10.8,0,21-8.4,21-20.8,0-11.2-8.7-16.8-8.7-16.8,5.1-13.4-3.1-26.4-13.7-30C89.5,5.3,77.6,0,68.5,0" style="fill:#231f20;"/><path d="M56.4,117.4c0,3.5,3.9,5.6,10.3,8.6,5.1,2.4,8,4.9,8,6.9,0,3.3-3.5,4.4-6.8,4.4-5.1,0-8.1-2-9.8-6.6v-.4h-.6c-.9,0-1.6,0-2,.5-.4.5-.3,1.1-.1,1.7,0,0,1.1,4.7,1.1,4.7.3,1.1.7,1.3,2.5,1.7.8.1,4.9.8,8.4.8,9.7,0,14.1-3.9,14.1-7.9s-2.8-5.6-8.9-8.6l-2.8-1.3c-4.2-2-6.7-3.2-6.7-5.3s2.6-3.4,6.4-3.4,6.2,2.7,6.8,5.1v.4h.6c1.1,0,1.8,0,2.2-.5.2-.2.3-.6.3-1l-.4-4c-.1-1.3-1.1-1.5-2.5-1.8-1.6-.3-3.6-.6-6.5-.6-8.5,0-13.5,2.5-13.5,6.6" style="fill:#231f20;"/><path d="M84.4,125.6c0,7,6.1,14.1,17.8,14.1s9.2-1.3,11.7-2.7l.7-.4-1.1-1.2h0c-.3-.3-.5-.4-.9-.4l-.6.2c-.9.4-3.6,1.7-8.5,1.7s-12.6-3.9-12.6-12.6,7.1-11.2,13.1-11.2,6.6,1.5,7.1,4.7v.5h.6c.5,0,1.9,0,1.9-1v-4.8c0-1.2-1.4-1.3-1.9-1.4h-.6c-1.4-.3-2.7-.4-6.2-.4-11.9,0-20.6,6.2-20.6,14.8" style="fill:#231f20;"/><path d="M40.3,111.2h-10.5c0,0-7,0-7,0h-1.1c-.6,0-1.1.4-1.1,1.1s0,1.2,1.2,1.2c4.2,0,4.4.3,4.4,2v1s.1,4.3.1,4.3v9.3c0,1.5,0,4-.2,6,0,.6,0,1.1-3.8,1.1s-1.7.2-1.7,1.2,0,1.1,1,1.1h.2c.4,0,1.6,0,7.5,0s7.5,0,7.9,0h.2c.8,0,1.5,0,1.5-1.1s-.9-1.2-2.5-1.2c-3.8,0-3.8-.5-3.8-1.1,0-1.8-.2-4.3-.2-6v-3.4h3.2c4.8,0,5.4.1,6.1,3.8.2.8.8.9,1.4.9,1.1,0,1.3-.6,1.3-.9v-1.4c-.2-.8-.3-1.8-.3-3.1v-5.7c0-.9-1-.9-1.6-.9-.9,0-1.1.6-1.7,3.3-.3,1-2.3,1.6-5.5,1.6h-2.8v-8.4c0-2.3.4-2.3.9-2.3,1.8,0,6.3-.2,7.7-.2s2.5.3,3.2.8c2.4,1.5,3.6,2.5,4.4,3.1.7.6,1.1.9,1.7.9s1.4,0,1.4-.9,0-.4-.4-1.1c-.4-.9-1-2.3-1.9-4.4-.2-.7-1-.7-2.5-.7h-6.7Z" style="fill:#231f20;"/><path d="M107.2,8.5h1.5c.7,0,1.2-.1,1.4-.3.3-.2.4-.5.4-.8s-.1-.6-.4-.8c-.3-.2-.8-.3-1.5-.3h-1.4v2.3h0ZM112.3,12.7h-1.5c-.9-1.7-1.6-2.7-1.8-2.9-.3-.2-.6-.3-1.1-.3h-.7v3.2h-1.2v-7.5h2.6c.8,0,1.4,0,1.8.2.4,0,.8.3,1,.7.3.3.4.8.4,1.2s-.2,1-.6,1.4c-.4.4-.9.7-1.6.7h0c.4.1,1,.8,1.8,1.9l.9,1.5ZM109,14.7c1.6,0,3-.6,4.1-1.7,1.1-1.2,1.7-2.5,1.7-4.1,0-1.6-.6-3-1.7-4.1-1.2-1.1-2.5-1.7-4.1-1.7s-3,.6-4.1,1.7c-1.1,1.1-1.7,2.5-1.7,4.1,0,1.6.6,3,1.7,4.1,1.1,1.1,2.5,1.7,4.1,1.7M109,1.8c1.9,0,3.6.7,4.9,2,1.4,1.4,2.1,3,2.1,5s-.7,3.6-2.1,5c-1.4,1.4-3,2.1-5,2.1s-3.6-.7-5-2c-1.4-1.4-2.1-3-2.1-5s.7-3.6,2.1-4.9c1.4-1.4,3-2.1,5-2.1" style="fill:#231f20;"/><path d="M109,16.2c-2,0-3.8-.7-5.2-2.2-1.4-1.4-2.2-3.2-2.2-5.2s.7-3.8,2.2-5.2c1.4-1.4,3.2-2.2,5.2-2.2s3.8.7,5.2,2.2c1.5,1.4,2.2,3.2,2.2,5.2s-.7,3.8-2.2,5.2c-1.4,1.4-3.2,2.2-5.2,2.2M109,2.2c-1.8,0-3.4.7-4.7,2-1.3,1.3-2,2.8-2,4.7s.6,3.4,2,4.7c1.3,1.3,2.9,1.9,4.7,1.9s3.4-.6,4.7-2c1.3-1.3,2-2.9,2-4.7s-.7-3.4-2-4.7c-1.3-1.3-2.9-1.9-4.7-1.9" style="fill:#231f20;"/><path d="M109,15.1c-1.7,0-3.2-.6-4.4-1.8-1.2-1.2-1.8-2.7-1.8-4.4,0-1.7.6-3.2,1.8-4.4,1.2-1.2,2.7-1.8,4.4-1.8s3.2.6,4.4,1.8c1.2,1.2,1.8,2.7,1.8,4.4,0,1.7-.6,3.2-1.9,4.4-1.2,1.2-2.7,1.8-4.4,1.8M109,3.4c-1.5,0-2.8.5-3.9,1.6-1.1,1.1-1.6,2.3-1.6,3.9,0,1.5.5,2.8,1.6,3.9,1.1,1.1,2.4,1.6,3.9,1.6s2.8-.5,3.9-1.6c1.1-1.1,1.6-2.4,1.6-3.9,0-1.5-.5-2.8-1.6-3.9-1.1-1.1-2.4-1.6-3.9-1.6" style="fill:#231f20;"/><path d="M113,13.1h-2.4v-.2c-1.4-2.3-1.8-2.7-1.8-2.8-.2-.1-.5-.2-.9-.2h-.4v3.2h-2V4.8h3c.9,0,1.5,0,1.9.2.5.1.9.4,1.2.8.3.4.5.9.5,1.4s-.2,1.2-.7,1.7c-.3.3-.6.5-1,.7.4.3.7.8,1.2,1.5l1.3,2ZM111,12.4h.6l-.6-.9c-.9-1.5-1.4-1.7-1.5-1.7h-.2c.4.3.9,1.2,1.7,2.6M106.3,12.4h.5v-3.2h1.1c.5,0,1,.1,1.3.4,0,0,0,0,0,0v-.6h.3c.6-.1,1-.3,1.3-.6.3-.4.5-.7.5-1.2s-.1-.7-.3-.9-.5-.5-.8-.6c-.4-.1-.9-.2-1.7-.2h-2.3v6.8h0Z" style="fill:#231f20;"/><path d="M108.6,8.9h-1.9v-3h1.8c.9,0,1.4.1,1.8.4.3.3.5.7.5,1.1s-.2.9-.5,1.1c-.4.3-.9.4-1.6.4M107.5,8.1h1.1c.7,0,1.1-.1,1.2-.2.2-.1.2-.3.2-.5s0-.4-.2-.5c0,0-.4-.2-1.3-.2h-1v1.5Z" style="fill:#231f20;"/></g></svg>