<?xml version="1.0" encoding="UTF-8"?><svg id="b" xmlns="http://www.w3.org/2000/svg" xmlns:xlink="http://www.w3.org/1999/xlink" viewBox="0 0 1266.4 839.8"><defs><clipPath id="d"><rect width="1266.4" height="839.8" style="fill:none;"/></clipPath></defs><g id="c"><g style="clip-path:url(#d);"><g id="e"><g id="f"><path d="M1368.1,102.1c9.7,11.3,18.3,25.1,25.8,41.6l81.7,183.4-45.9,32.5c-4.5-.7-9-1.1-13.6-1.1-7.3-.1-14.7.5-22.3,1.9-4.4.8-8.9,1.9-13.4,3.2-10.5,3-21.2,7.3-31.9,12.9-3.1,1.6-6.1,3.3-9.3,5.1-3.1,1.8-6.2,3.7-9.3,5.7s-6.2,4.1-9.3,6.3l-.4.2c-15.4,11-29.1,23.3-40.8,36.5-3.9,4.4-7.6,8.9-11.1,13.6-2.6,3.6-5.2,7.2-7.5,10.8-1.6,2.5-3.1,4.9-4.6,7.5-.5.8-1,1.7-1.4,2.6-3.8-.5-7.6-1.2-11.2-2.3l-11.3-3.5c-13.7-1.1-26.2-6.6-37.4-16.5-3.7-3.3-7.3-7.1-10.8-11.5,1.4,21.9-.3,42.2-4.8,61.1-3.6,14.9-8.8,28.6-15.5,41.3-2.6,0-5.3.2-8,.5-2.8.3-5.7.6-8.7,1-.1,0-.2,0-.4,0-8.3,1.3-17.1,3.9-26.4,7.6-7.7,3.1-15.7,7-24,11.7-8.3,4.7-16.9,10.2-25.7,16.5l-.6.4c-1.2.9-2.3,1.7-3.5,2.6-8.2,6.1-16.2,12.8-23.9,20.2-6.7,6.5-13.3,13.1-19.6,20.1-1.9,2-3.7,4.1-5.6,6.2-5,5.7-9.8,11.5-14.3,17.4-2.7,3.6-5.4,7.1-8,10.6-6.7,9.3-13,18.5-18.6,27.4l-.6,1-1.3,2.1-2.4-.5c-.6-.7-1.2-1.3-1.7-2-1.1-1.2-2.2-2.4-3.4-3.6-1.8-1.8-3.7-3.4-5.6-5-1.7-1.4-3.3-2.7-5-4-2.9-2.2-5.8-4.1-8.8-5.9l-14-31.4c0,8.3-.5,16.5-1.5,24.4-.4-.1-.8-.3-1.2-.4l-9.3-2.7c-7.1-3.8-14.7-6.5-22.3-8-3.1-.6-6.2-1.1-9.3-1.3-1.6-.1-3.1-.2-4.7-.2h-.1c1.4-11.4,1.6-23.3.4-35.7-1.9-19.7-7.8-40.5-17.6-62.3-9.8-21.8-20.8-38.8-33.1-51.2-12.3-12.3-25.7-20.4-40-24.3-14.3-3.9-29.3-3.7-45,.6-15.7,4.3-31.8,12.2-48.3,23.9-16.5,11.7-30.4,25-41.5,39.7-11.1,14.7-19,30.9-23.8,48.2-4.8,17.4-6.2,35.9-4.2,55.6,1.9,19.7,7.8,40.4,17.6,62.3,9.7,21.8,20.7,38.9,33,51.3.1.2.3.3.5.5l-45.8,32.5,33.7,75.5c-1.7,5.4-3.7,10.6-6,15.6-8.3,18-19.6,34.5-33.9,49.2-14.3,14.8-29.8,28-46.3,39.8l-132.4,93.9-23.8-5.6-169-378.3,130.6-92.7c10.8-7.7,21.9-14.7,33.3-21,11.4-6.4,22.9-11.3,34.5-14.7,11.6-3.4,22.9-5,34.1-4.8,11.2.2,21.9,3,32,8.6l10.5,3.1c11,3.3,21.5,9.9,31.2,19.5,9.8,9.6,18.5,23.2,26.2,40.8,5.2,12,8.7,24.2,10.7,36.5,1.9,12.4,2.2,24.7.8,36.8,5.7,1.8,11.1,4.4,16.4,7.6-6.7-18.4-10.9-36.3-12.6-53.6-2.4-23.7-.7-46,5.1-66.8,5.7-20.8,15.2-40.1,28.5-57.8,13.3-17.7,29.8-33.6,49.6-47.6,23.4-16.6,46.1-27,68.1-31.1,21.9-4.1,42.6-1,61.9,9.2l7.9,2c11,3.4,21.5,9.1,31.5,16.9l-73.6-164.7,125.4-89,23.1,9,24.9,56.1,6.1-4.3c17.3-12.3,34.9-19.2,52.6-20.8,17.8-1.6,35,1.9,51.6,10.5l7.1,2.2c17,5.2,32.8,15.2,47.6,30.2,10.7,10.7,20.3,24,29,39.9.5-5.9,1.4-11.8,2.8-17.7l-48.7-108.1c5.5-8.7,11.5-17.6,18.2-26.8,6.7-9.2,13.9-18.2,21.7-27.1,7.8-8.9,15.9-17.4,24.4-25.5,8.5-8.1,17.3-15.4,26.5-21.9,26.9-19.1,50.6-30.3,71-33.6,20.4-3.3,38-1,52.9,7l10.5,3c13.8,4.3,25.6,12,35.3,23.3v.3ZM1350.1,150.7c-5.9-13-13.1-24.1-21.4-33.2-8.3-9.1-18.2-15-29.7-18-11.4-2.9-24.5-2.2-39.2,1.9-14.7,4.2-31.4,13-50.1,26.3-16.5,11.7-31,24.6-43.3,38.7-12.4,14.1-22.3,26.9-29.6,38.5l36.5,81.4c2.8-5.5,6.5-11.4,11-17.8,4.5-6.4,9.4-12.7,14.7-19.1s10.8-12.3,16.6-18c5.8-5.7,11.6-10.6,17.5-14.8,8.5-6.1,15-9.7,19.4-10.6s7.3-.4,9.1,2c-16.8,13.5-31.3,27.3-43.6,41.5-12.3,14.2-22,28.6-29,43.3s-10.8,29.7-11.4,45,2.6,30.5,9.4,45.8c5.8,12.9,12.4,22.8,19.8,30s15.6,11.8,24.4,13.8c8.9,2,18.2,1.6,28.1-1.3,9.9-2.9,20.2-8.1,30.8-15.6,8.5-6.1,16.5-13.8,23.8-23.1,7.3-9.3,13.4-20.1,18.3-32.1l16.1,6.3,72.8-51.6-70.8-159h0ZM1119.4,356.1c-8.6-18.8-18.4-34.4-29.6-46.8-11.1-12.4-22.9-21.2-35.4-26.6-12.4-5.3-25.3-7.2-38.6-5.6-13.3,1.6-26.3,6.9-38.9,15.9-9,6.4-16.3,13-22.1,19.7-5.7,6.8-10.7,13.9-14.9,21.3l-38.5-86.7-82.6,58.6,146,327.3,60.2-42.8.8-22.1c8.6,2.2,17.7,2.4,27.4.6,9.7-1.8,19.6-6.2,29.8-13.5,11.8-8.4,22.2-19.4,31.3-33,9.1-13.6,15.6-29.1,19.6-46.5,4-17.3,5-36.2,3.1-56.5s-7.8-41.5-17.7-63.5h0ZM548.3,615.3c-8.4-18.6-18.3-31.5-29.8-38.7-11.4-7.2-23.7-10.4-36.8-9.6-13.1.9-26.5,4.6-40.3,11.3-13.8,6.7-27.1,14.7-40,23.8l-109.2,77.5,146,327.3,112.2-79.7c13.9-9.8,26.9-21,39.2-33.3,12.2-12.4,21.9-26,29-40.9s11.1-31.2,11.8-48.6c.8-17.4-3.4-36.4-12.5-56.7-7.9-18-17.7-30.7-29.3-38.1-11.6-7.4-24.3-11-38.3-10.6,4.8-13.9,7.2-27.9,7.1-41.9,0-14-3.1-27.9-9.3-41.7h0Z" style="fill:#ea86cc;"/><path d="M1509.8,411.9c14.2,14.7,26.8,34.5,38,59.5,11.5,26,18.5,50.7,20.9,74,2.4,23.3.8,45.3-4.9,66-5.7,20.6-15.1,39.7-28.4,57.3-13.3,17.6-29.7,33.3-49.3,47.1-20.4,14.5-40.2,24.2-59.3,29.2-19.2,5-37.6,4.8-55.2-.5l-9.1-3.1c-16-2.1-31.1-8.6-45.3-19.2l36.4,81.6-102.8,72.9-8.4-2.6c-5.6,9.4-11.8,17.9-18.7,25.5-6.9,7.6-14.1,14.1-21.6,19.4-14.6,10.4-28.8,17.3-42.4,20.7-13.6,3.4-26.3,3.2-38.2-.5l-11.3-3.5c-13.7-1.1-26.2-6.6-37.4-16.5-1.2-1.1-2.4-2.2-3.6-3.4.1,2.5.1,5,.1,7.6-.5,21.5-4.8,41.3-13.1,59.3-8.3,18-19.6,34.5-34,49.2-14.3,14.8-29.8,28-46.3,39.8l-132.4,93.9-23.8-5.6-168.9-378.1,130.6-92.7c10.8-7.7,21.9-14.7,33.4-21.1,11.4-6.4,23-11.2,34.4-14.7,11.6-3.4,22.9-5,34.1-4.8,11.2.3,21.8,3.1,32,8.7l10.5,3c11,3.3,21.4,9.9,31.2,19.5,9.8,9.6,18.5,23.2,26.2,40.8,5.2,12,8.7,24.1,10.7,36.5,2,12.3,2.2,24.7.7,36.8,11.7,3.9,22.5,10.5,32.5,20,1.2,1.2,2.4,2.3,3.5,3.6.1-9.7,1.2-19.4,3.3-29.1l-48.7-108.1c5.5-8.7,11.5-17.6,18.2-26.8,6.7-9.2,13.9-18.2,21.6-27.1,7.8-8.9,15.9-17.4,24.5-25.5,8.5-8.1,17.3-15.4,26.5-21.9,26.9-19.1,50.5-30.2,70.9-33.6,20.4-3.3,38-1,52.9,7l10.5,3c12.6,3.9,23.5,10.7,32.7,20.5l-.2-1.6c-2.4-23.7-.7-46,5.1-66.8,5.7-20.8,15.2-40.1,28.5-57.8,13.3-17.7,29.8-33.6,49.6-47.6,23.4-16.6,46.1-27,68.1-31.1,21.9-4.1,42.6-1,61.9,9.2l7.9,2c16.2,5.1,31.4,14.9,45.6,29.6h0ZM1503.9,478.6c-9.8-21.8-20.8-38.8-33.1-51.2-12.4-12.3-25.7-20.4-40-24.3s-29.3-3.7-45,.6c-15.7,4.3-31.8,12.3-48.3,24-16.5,11.7-30.3,24.9-41.4,39.7-11.1,14.7-19,30.8-23.8,48.2-4.8,17.4-6.2,35.9-4.2,55.7,1.9,19.7,7.8,40.4,17.6,62.3,9.8,21.8,20.8,38.9,33,51.3,12.3,12.4,25.5,20.5,39.7,24.3,14.2,3.8,29.3,3.5,45.1-.8,15.8-4.3,31.9-12.4,48.4-24.1,16.5-11.7,30.3-24.9,41.4-39.7,11.1-14.7,19.1-30.8,23.9-48.1,4.8-17.3,6.3-35.8,4.4-55.5-1.9-19.7-7.8-40.4-17.6-62.3h0ZM1227.9,627.5c-5.9-13-13.1-24.1-21.4-33.2-8.3-9.1-18.2-15-29.7-18-11.4-2.9-24.5-2.2-39.2,1.9-14.7,4.2-31.4,13-50.1,26.3-16.5,11.7-31,24.6-43.3,38.7-12.3,14.1-22.2,26.9-29.6,38.5l36.5,81.4c2.8-5.5,6.5-11.4,11-17.8,4.5-6.4,9.4-12.7,14.7-19.1,5.3-6.3,10.8-12.3,16.6-18,5.8-5.7,11.6-10.6,17.5-14.8,8.5-6.1,15-9.6,19.4-10.6,4.3-1,7.4-.3,9.1,2-16.8,13.5-31.3,27.3-43.6,41.5-12.3,14.2-21.9,28.6-29,43.3-7,14.7-10.8,29.7-11.4,45-.6,15.3,2.6,30.5,9.4,45.8,5.8,12.8,12.4,22.8,19.8,30,7.4,7.2,15.6,11.8,24.4,13.8s18.2,1.6,28.1-1.3c9.9-2.9,20.2-8.1,30.8-15.6,8.5-6.1,16.5-13.8,23.8-23.1,7.3-9.3,13.4-20,18.3-32.1l16.1,6.3,72.8-51.6-70.8-159v-.2ZM939.5,727.8c-8.4-18.6-18.3-31.5-29.8-38.7-11.5-7.2-23.7-10.3-36.8-9.6-13.1.9-26.5,4.6-40.3,11.3-13.8,6.7-27.1,14.7-40,23.8l-109.2,77.5,146,327.3,112.2-79.7c13.9-9.8,26.9-21,39.1-33.2,12.2-12.3,21.9-26,29-40.9,7.1-15,11.1-31.2,11.8-48.6.8-17.4-3.4-36.4-12.5-56.7-7.9-18-17.7-30.7-29.3-38.1s-24.3-11-38.3-10.7c4.8-13.9,7.2-27.9,7.1-41.9,0-14-3.1-27.9-9.3-41.7h.1Z" style="fill:#ea86cc;"/><path d="M1290.7,273.3l5.1,11.7c.9,1.7,1.5,4,1.7,6.9.9,3.8.1,8.2-2.4,13-2.6,4.8-5.7,8.7-9.6,11.3-4.1,2.9-7.9,4.2-11.4,4-3.5-.2-6.2-2.5-8.2-6.9-3-6.8-1.9-13.6,3.4-20.4,5.2-6.8,12.4-13.3,21.4-19.7h0Z" style="fill:#ea86cc;"/><path d="M1018.3,391.9c7.6,5.1,14.2,13.6,19.5,25.4,6.1,13.6,8.4,25.7,7.3,36.2-1.2,10.6-5.8,18.7-13.7,24.3-4.7,3.3-9.3,4.9-13.7,4.7-4.4-.2-8.7-1.4-12.7-3.6l-25.3-56.7c.9-7,2.6-12.9,5.2-17.8,2.7-4.9,5.6-8.5,8.8-10.9,8.8-6.2,17-6.7,24.7-1.7h0Z" style="fill:#ea86cc;"/><path d="M1168.5,750.2l5.1,11.7c.9,1.6,1.5,4,1.7,6.9.9,3.8.1,8.2-2.4,13s-5.7,8.7-9.6,11.3c-4.1,2.9-7.9,4.2-11.4,4-3.5-.2-6.3-2.5-8.2-6.9-3-6.8-1.9-13.6,3.4-20.4,5.3-6.8,12.4-13.3,21.4-19.7h0Z" style="fill:#ea86cc;"/><path d="M738.9,572.3c16.7-11.9,31.8-2.9,45.3,26.7,7.6,17,10.4,30.3,8.7,39.8-1.8,9.5-6.5,17.1-14.3,22.6-3.9,2.7-7.7,4.5-11.4,5.2s-7.5.2-11.3-1.6c-3.8-1.8-7.5-5.1-11.3-10-3.8-4.9-7.5-11.5-11.1-20.1-13.5-29.7-11.8-50.6,5.4-62.7h0Z" style="fill:#ea86cc;"/><path d="M854.6,791.9c4.3-.2,7.8,2.6,10.4,8.4,3.2,7,3.4,12.7.5,17.1-2.8,4.4-7.4,8.9-13.7,13.3l-33.3,23.6-14-31.2,33.3-23.6c6.9-4.9,12.6-7.5,16.8-7.7h0Z" style="fill:#ea86cc;"/><path d="M463.4,679.3c4.3-.2,7.8,2.6,10.4,8.4,3.2,7,3.3,12.7.5,17.2s-7.4,8.8-13.7,13.3l-33.3,23.6-14-31.2,33.3-23.6c6.9-4.9,12.6-7.5,16.8-7.7h0Z" style="fill:#ea86cc;"/><path d="M523.2,790.6c5-.9,9.1,2,12.3,9,3.5,8.4,3.4,15-.2,20-3.6,5-8.6,9.7-14.9,14.2l-39.4,28-15.2-34.2,39.4-28c7.1-5,13.2-8.1,18.2-9h0Z" style="fill:#ea86cc;"/></g></g></g></g></svg>