<?xml version="1.0" encoding="UTF-8"?>
<svg id="Layer_2" data-name="Layer 2" xmlns="http://www.w3.org/2000/svg" viewBox="0 0 202.98 122.31">
  <defs>
    <style>
      .cls-1 {
        fill: #fff;
        stroke-width: 0px;
      }
    </style>
  </defs>
  <g id="Group_51" data-name="Group 51">
    <g id="Logo_Text" data-name="Logo Text">
      <g>
        <path class="cls-1" d="m202.49,24.33c.33,2.28.31,4.81-.06,7.58l-4.32,30.79-8.41.47c-.52-.46-1.06-.89-1.64-1.27-.92-.62-1.91-1.15-2.98-1.59-.63-.26-1.28-.49-1.95-.69-1.57-.47-3.27-.79-5.08-.95-.52-.04-1.04-.08-1.58-.1-.53-.02-1.08-.02-1.63-.02-.55,0-1.11.02-1.68.06h-.07c-2.83.17-5.55.64-8.1,1.4-.85.25-1.68.54-2.5.86-.62.25-1.23.51-1.83.79-.4.19-.79.39-1.17.6-.13.07-.26.14-.39.22-.44-.38-.86-.79-1.23-1.23l-1.15-1.39c-1.65-1.28-2.79-3.04-3.42-5.26-.21-.74-.36-1.54-.45-2.4-1.58,2.98-3.42,5.51-5.51,7.61-1.65,1.65-3.41,3.02-5.27,4.12-.34-.21-.69-.41-1.05-.6-.38-.2-.77-.39-1.18-.58-.01,0-.03-.01-.05-.02-1.16-.51-2.48-.91-3.95-1.19-1.23-.23-2.55-.39-3.98-.46-1.43-.07-2.96-.06-4.58.03h-.1c-.22.02-.43.03-.65.05-1.52.12-3.08.34-4.64.67-1.37.29-2.74.62-4.1,1.01-.4.11-.8.23-1.2.35-1.09.33-2.16.7-3.21,1.09-.63.24-1.26.48-1.87.73-1.6.66-3.13,1.35-4.56,2.05l-.16.08-.34.17-.26-.27c-.02-.14-.04-.27-.06-.4-.05-.25-.1-.5-.15-.75-.09-.38-.19-.75-.3-1.12-.1-.32-.2-.63-.31-.94-.19-.52-.41-1.02-.65-1.5l.74-5.28c-.66,1.09-1.38,2.12-2.15,3.07-.04-.05-.08-.11-.12-.16l-.96-1.13c-.6-1.09-1.33-2.06-2.19-2.89-.34-.33-.7-.65-1.08-.94-.19-.15-.38-.29-.58-.42,0,0-.01,0-.02,0,1.1-1.38,2.07-2.93,2.91-4.65,1.33-2.74,2.25-5.95,2.76-9.61.51-3.67.47-6.81-.1-9.45-.58-2.63-1.62-4.8-3.12-6.49-1.5-1.7-3.42-2.91-5.75-3.65-2.33-.74-5.01-1.03-8.05-.86-3.03.17-5.84.76-8.43,1.77-2.59,1.01-4.89,2.47-6.88,4.35-2,1.89-3.66,4.2-4.99,6.94s-2.25,5.94-2.76,9.61c-.51,3.66-.49,6.81.07,9.45,0,.03.02.06.02.1l-8.42.47-1.77,12.69c-.65.56-1.32,1.08-2.02,1.55-2.5,1.67-5.25,2.89-8.25,3.64-3,.75-6.02,1.21-9.05,1.38l-24.31,1.35-2.57-2.71L16.53,6.91l23.98-1.33c1.98-.11,3.95-.11,5.91,0s3.81.42,5.54.93c1.74.51,3.31,1.24,4.71,2.19,1.41.95,2.53,2.21,3.36,3.78l1.09,1.27c1.13,1.35,1.92,3.07,2.4,5.14s.49,4.58.05,7.51c-.3,2-.83,3.89-1.57,5.66-.75,1.78-1.7,3.41-2.86,4.89.57.71,1.06,1.5,1.47,2.35.63-2.97,1.52-5.66,2.69-8.07,1.6-3.3,3.59-6.08,5.98-8.33s5.14-3.99,8.24-5.22c3.1-1.22,6.47-1.93,10.1-2.14,4.3-.24,8.01.28,11.13,1.56,3.11,1.28,5.48,3.39,7.11,6.33l.84.92c1.12,1.36,2,2.97,2.64,4.82l3.86-27.67,23.02-1.28,2.2,3.09-1.33,9.41,1.12-.06c3.18-.18,5.96.37,8.34,1.63s4.28,3.15,5.69,5.65l.72.87c1.73,2.09,2.94,4.71,3.62,7.89.49,2.29.65,4.84.48,7.63.54-.73,1.13-1.43,1.77-2.09l2.48-18.2c1.39-.68,2.87-1.35,4.45-2.01,1.58-.65,3.22-1.24,4.91-1.76,1.7-.52,3.41-.96,5.14-1.32,1.73-.36,3.43-.58,5.12-.68,4.94-.27,8.83.22,11.68,1.47s4.9,3.02,6.15,5.29l1.08,1.27c1.41,1.7,2.28,3.69,2.61,5.98Zm-6.18,4.89c.29-2.2.27-4.24-.06-6.12-.33-1.88-1.11-3.48-2.32-4.81s-2.93-2.32-5.12-2.99c-2.2-.67-5.01-.9-8.46-.71-3.03.17-5.9.66-8.59,1.48-2.7.82-4.98,1.68-6.84,2.59l-1.89,13.68c.8-.49,1.74-.96,2.82-1.43,1.08-.47,2.21-.89,3.39-1.28,1.18-.39,2.36-.72,3.55-.99,1.18-.27,2.32-.43,3.41-.49,1.57-.09,2.67-.02,3.31.21.63.23.96.56.99,1.01-3.21.38-6.16.99-8.86,1.83s-5.07,1.93-7.14,3.28-3.75,3-5.05,4.95c-1.3,1.95-2.12,4.21-2.47,6.78-.29,2.16-.25,4.01.11,5.57s1.03,2.83,1.99,3.83c.96,1,2.18,1.72,3.67,2.16s3.21.61,5.16.5c1.57-.09,3.19-.44,4.87-1.06,1.67-.62,3.3-1.52,4.89-2.7l1.53,2.16,13.37-.74,3.75-26.69Zm-45.69,7.82c.42-3.18.42-6.03,0-8.58-.42-2.54-1.21-4.68-2.36-6.41-1.15-1.73-2.63-3.05-4.44-3.94-1.81-.89-3.88-1.27-6.2-1.14-1.65.09-3.11.35-4.38.76-1.27.42-2.47.94-3.6,1.56l2.06-14.54-15.16.84-7.7,54.98,11.06-.62,1.87-2.83c.92,1,2.06,1.78,3.43,2.35s2.98.8,4.85.7c2.17-.12,4.37-.7,6.61-1.73,2.23-1.03,4.3-2.52,6.2-4.47,1.9-1.94,3.54-4.33,4.93-7.15,1.38-2.82,2.33-6.09,2.84-9.79Zm-93.17-13.31c.43-3.13.2-5.65-.67-7.54-.88-1.89-2.17-3.32-3.9-4.3-1.73-.97-3.73-1.59-6.02-1.85-2.29-.26-4.61-.32-6.97-.19l-20.04,1.11-7.7,54.98,20.61-1.14c2.54-.14,5.09-.52,7.63-1.12,2.54-.61,4.86-1.6,6.96-2.96,2.1-1.37,3.9-3.17,5.39-5.39,1.49-2.22,2.48-5.05,2.96-8.47.43-3.01.21-5.49-.67-7.42-.88-1.93-2.21-3.45-4-4.56,1.72-1.43,3.14-3.06,4.26-4.9,1.12-1.84,1.84-3.92,2.16-6.24Z"/>
        <path class="cls-1" d="m195.64,76.66c.62,3.1.64,6.74.04,10.94-.62,4.36-1.71,8.17-3.28,11.43-1.57,3.26-3.54,6-5.91,8.24-2.37,2.23-5.1,3.95-8.19,5.15-3.08,1.2-6.43,1.9-10.02,2.1-3.75.21-7.03-.15-9.86-1.09-2.83-.93-5.15-2.48-6.96-4.64l-.91-1.16c-1.86-1.6-3.26-3.7-4.2-6.27l-1.92,13.7-18.87,1.05-.85-1.04c-1.46.77-2.93,1.36-4.41,1.79-1.48.42-2.91.68-4.3.75-2.69.15-5.04-.11-7.03-.79-1.99-.68-3.59-1.75-4.8-3.22l-1.15-1.39c-1.65-1.28-2.79-3.04-3.42-5.26-.07-.24-.13-.49-.18-.74-.19.34-.39.67-.59.99-1.78,2.79-3.92,5.01-6.41,6.69-2.5,1.67-5.25,2.89-8.25,3.64-3,.75-6.02,1.21-9.05,1.38l-24.31,1.35-2.57-2.71,8.86-63.52,23.98-1.33c1.98-.11,3.96-.11,5.92,0,1.96.11,3.8.43,5.54.93,1.74.51,3.31,1.24,4.71,2.2s2.52,2.21,3.36,3.78l1.09,1.27c1.13,1.35,1.92,3.06,2.4,5.14.47,2.07.49,4.58.05,7.51-.3,2-.83,3.88-1.57,5.66-.74,1.78-1.7,3.41-2.85,4.88,1.17,1.47,2.01,3.24,2.52,5.31.06.25.12.5.16.76.79-1.26,1.7-2.44,2.75-3.53l2.48-18.2c1.39-.68,2.87-1.35,4.45-2,1.58-.65,3.21-1.24,4.91-1.76,1.7-.52,3.41-.96,5.14-1.31s3.43-.59,5.12-.68c4.94-.27,8.83.22,11.68,1.47,2.85,1.26,4.9,3.02,6.15,5.3l1.09,1.27c1.29,1.55,2.12,3.35,2.51,5.39.04-.07.07-.15.11-.23,1.6-3.3,3.6-6.08,5.99-8.33,2.39-2.25,5.14-3.99,8.24-5.22,3.1-1.22,6.47-1.93,10.1-2.14,4.31-.24,8.02.28,11.13,1.56,3.11,1.28,5.48,3.39,7.11,6.33l.84.92c1.65,2.01,2.79,4.56,3.41,7.66Zm-6.08,8.25c.51-3.66.47-6.81-.1-9.45-.58-2.64-1.62-4.8-3.12-6.49s-3.42-2.91-5.75-3.65c-2.33-.74-5.01-1.02-8.05-.86-3.03.17-5.84.76-8.44,1.77-2.59,1.01-4.88,2.46-6.88,4.35-2,1.89-3.66,4.2-4.99,6.95-1.33,2.74-2.25,5.94-2.76,9.61-.51,3.67-.49,6.82.07,9.45.56,2.64,1.59,4.79,3.09,6.47,1.5,1.67,3.43,2.88,5.78,3.62,2.35.74,5.04,1.02,8.07.85,3.03-.17,5.84-.76,8.44-1.77,2.59-1.01,4.88-2.45,6.88-4.32,2-1.87,3.66-4.17,4.99-6.91,1.33-2.74,2.25-5.94,2.76-9.61Zm-46.93-3.33c.29-2.2.27-4.24-.06-6.12s-1.11-3.48-2.32-4.81c-1.22-1.32-2.93-2.32-5.12-2.99-2.2-.67-5.02-.9-8.46-.71-3.03.17-5.9.66-8.59,1.48-2.7.82-4.98,1.68-6.84,2.59l-1.89,13.68c.8-.49,1.74-.96,2.82-1.43,1.08-.46,2.21-.89,3.4-1.28,1.18-.39,2.36-.72,3.55-.98,1.19-.27,2.32-.43,3.41-.49,1.57-.09,2.67-.02,3.31.21.63.23.96.57.99,1.01-3.21.38-6.16.99-8.85,1.83s-5.07,1.93-7.14,3.28c-2.07,1.35-3.75,3-5.05,4.95-1.3,1.95-2.12,4.21-2.47,6.78-.29,2.16-.26,4.01.11,5.57.37,1.55,1.03,2.83,1.99,3.83.96,1,2.18,1.72,3.67,2.16s3.21.61,5.15.5c1.57-.09,3.19-.44,4.87-1.06,1.67-.62,3.3-1.52,4.89-2.7l1.53,2.16,13.36-.74,3.75-26.69Zm-44.58-10.73c.42-3.13.2-5.65-.67-7.54-.87-1.89-2.17-3.32-3.9-4.3-1.72-.97-3.73-1.59-6.02-1.85-2.29-.25-4.61-.32-6.97-.19l-20.05,1.11-7.7,54.98,20.61-1.15c2.54-.14,5.08-.52,7.62-1.12,2.54-.61,4.86-1.59,6.96-2.96,2.1-1.37,3.9-3.17,5.39-5.39,1.49-2.22,2.48-5.05,2.96-8.47.43-3.01.21-5.48-.67-7.42-.88-1.93-2.21-3.45-4-4.56,1.72-1.43,3.14-3.06,4.26-4.9,1.12-1.84,1.84-3.92,2.16-6.24Z"/>
        <path class="cls-1" d="m178.97,40.36l-.29,1.95c-.02.29-.13.64-.34,1.05-.19.58-.64,1.08-1.35,1.5-.71.42-1.42.66-2.13.69-.75.04-1.34-.1-1.77-.42-.43-.32-.59-.84-.48-1.58.16-1.14.85-1.94,2.07-2.39,1.21-.45,2.64-.72,4.29-.81Z"/>
        <path class="cls-1" d="m170.56,78.51c3.07-.17,4.27,2.25,3.61,7.25-.41,2.85-1.1,4.83-2.09,5.94-.99,1.11-2.2,1.7-3.62,1.78-.71.04-1.34-.05-1.87-.26-.54-.21-.97-.59-1.3-1.14-.33-.55-.54-1.29-.63-2.24-.09-.94-.02-2.13.2-3.55.66-5.01,2.56-7.6,5.71-7.77Z"/>
        <path class="cls-1" d="m134.93,33.35c.56,1.3.71,2.95.44,4.95-.32,2.28-.99,4.07-1.98,5.35-1,1.29-2.23,1.97-3.69,2.05-.86.05-1.57-.12-2.11-.52-.55-.39-.99-.9-1.33-1.53l1.33-9.53c.67-.84,1.36-1.48,2.09-1.9.73-.42,1.39-.65,1.99-.69,1.61-.09,2.69.52,3.26,1.82Z"/>
        <path class="cls-1" d="m125.28,92.73l-.29,1.95c-.02.28-.13.64-.34,1.05-.19.58-.64,1.08-1.35,1.5s-1.42.66-2.13.69c-.75.04-1.34-.1-1.77-.42-.43-.32-.59-.85-.48-1.58.16-1.14.85-1.93,2.06-2.39,1.21-.45,2.64-.72,4.29-.81Z"/>
        <path class="cls-1" d="m85.06,33.88c3.07-.17,4.27,2.25,3.61,7.25-.41,2.85-1.1,4.83-2.09,5.93-.99,1.11-2.2,1.7-3.62,1.78-.71.04-1.33-.05-1.87-.26-.54-.21-.97-.59-1.3-1.14s-.54-1.29-.63-2.24c-.09-.94-.02-2.13.2-3.56.66-5.01,2.56-7.6,5.71-7.77Z"/>
        <path class="cls-1" d="m82.15,72.22c.56.33.78.99.64,1.96-.16,1.18-.6,1.94-1.31,2.28-.71.34-1.65.55-2.81.61l-6.12.34.72-5.25,6.12-.34c1.27-.07,2.19.06,2.75.39Z"/>
        <path class="cls-1" d="m80.82,91.75c.71.28.98,1.01.82,2.2-.22,1.38-.76,2.25-1.63,2.61-.86.35-1.87.56-3.03.62l-7.24.4.81-5.74,7.25-.4c1.31-.07,2.32.03,3.03.32Z"/>
        <path class="cls-1" d="m36.13,108.5l8.68,11.35-20.15,1.12-1.11-1.31c-1.4.71-2.87,1.26-4.41,1.66-1.55.4-2.95.64-4.23.71-2.38.13-4.43-.15-6.14-.86-1.71-.71-3.11-1.71-4.19-3.03l-.68-.82c-1.43-1.29-2.44-2.87-3.03-4.74-.59-1.87-.75-3.91-.48-6.13.29-2.39.93-4.52,1.92-6.39.98-1.87,2.26-3.56,3.82-5.08-.38-1.55-.47-3.25-.28-5.09.17-1.64.65-3.31,1.43-5.01.78-1.7,1.83-3.26,3.15-4.66,1.32-1.41,2.89-2.57,4.73-3.5,1.83-.93,3.92-1.46,6.25-1.59s4.36.22,6.1,1.05c1.73.84,3.06,2.08,3.97,3.75l.72.82c.83,1.04,1.43,2.28,1.8,3.72.37,1.44.46,3.06.27,4.88-.17.87-.36,1.69-.58,2.48l7.39-.41,1.52,2.19c-1.09,3.35-2.19,6.28-3.3,8.78-1.11,2.51-2.17,4.55-3.17,6.12Zm1.17,6.75l-6.28-8.23c1.16-1.52,2.27-3.31,3.33-5.38,1.06-2.06,2.02-4.4,2.88-7.03l-9.1.51c-.28.73-.65,1.52-1.13,2.36-.47.84-.94,1.62-1.41,2.33l-2.03-2.76c1.77-1.24,3.2-2.65,4.31-4.23,1.11-1.58,1.78-3.36,2.02-5.34.18-1.53.09-2.89-.29-4.08-.37-1.19-.95-2.19-1.74-2.99-.79-.8-1.77-1.39-2.95-1.79s-2.5-.55-3.95-.47c-1.83.1-3.48.52-4.93,1.24-1.46.72-2.71,1.63-3.75,2.72-1.04,1.09-1.87,2.28-2.49,3.59-.62,1.31-1.01,2.61-1.18,3.91-.1,1.09-.07,2.13.09,3.1.16.98.43,1.91.79,2.81-1.73,1.3-3.15,2.83-4.25,4.59-1.1,1.76-1.79,3.81-2.09,6.14-.18,1.53-.09,2.97.26,4.34.36,1.36.98,2.55,1.87,3.54.89.99,2.04,1.76,3.44,2.3,1.4.54,3.04.75,4.92.65,1.4-.08,2.94-.37,4.6-.86,1.66-.49,3.19-1.23,4.6-2.23l1.58,1.97,12.88-.72Z"/>
        <path class="cls-1" d="m41.56,25.09c.56.33.78.99.64,1.96-.16,1.18-.59,1.94-1.31,2.29-.71.34-1.65.54-2.81.61l-6.12.34.72-5.25,6.12-.34c1.27-.07,2.19.06,2.75.39Z"/>
        <path class="cls-1" d="m40.23,44.62c.71.29.99,1.02.83,2.2-.22,1.39-.77,2.25-1.63,2.61s-1.87.56-3.03.62l-7.24.4.81-5.74,7.24-.4c1.31-.07,2.32.03,3.03.32Z"/>
        <path class="cls-1" d="m20.82,86.83c.18.33.24.73.19,1.19-.08.52-.3,1.02-.66,1.5s-.88,1.02-1.56,1.63c-.58-.94-.82-1.9-.72-2.88.05-.49.23-.92.53-1.29s.69-.57,1.16-.6c.53-.03.89.12,1.06.46Z"/>
        <path class="cls-1" d="m14.09,102.17l4,5.31c-.63.18-1.26.26-1.88.25-.63,0-1.18-.13-1.68-.38-.49-.25-.87-.61-1.13-1.1-.27-.48-.36-1.12-.27-1.89.03-.37.15-.75.36-1.13.2-.38.4-.74.6-1.06Z"/>
      </g>
    </g>
  </g>
</svg>