<?xml version="1.0" encoding="UTF-8"?>
<svg xmlns="http://www.w3.org/2000/svg" viewBox="0 0 277.18 377.52">
  <defs>
    <style>
      .cls-1 {
        fill: none;
      }

      .cls-1, .cls-2, .cls-3, .cls-4, .cls-5, .cls-6, .cls-7, .cls-8, .cls-9, .cls-10, .cls-11, .cls-12, .cls-13, .cls-14, .cls-15, .cls-16, .cls-17 {
        stroke-width: 0px;
      }

      .cls-2 {
        opacity: .48;
      }

      .cls-2, .cls-17 {
        fill: #f08858;
      }

      .cls-18 {
        isolation: isolate;
      }

      .cls-4 {
        fill: #f9c17f;
      }

      .cls-5 {
        fill: #ded2c1;
      }

      .cls-6 {
        fill: #d65a3a;
      }

      .cls-7 {
        fill: #cf3547;
      }

      .cls-8 {
        fill: #fdfae2;
      }

      .cls-9 {
        fill: #fdfae1;
      }

      .cls-10 {
        fill: #ffe376;
      }

      .cls-11 {
        fill: #ffeb88;
      }

      .cls-12 {
        fill: #ffe56d;
      }

      .cls-13 {
        fill: #ef7e42;
      }

      .cls-14 {
        fill: #ea608b;
      }

      .cls-15 {
        fill: #fbf1de;
      }

      .cls-16 {
        fill: #fbd253;
      }

      .cls-17 {
        mix-blend-mode: darken;
        opacity: .7;
      }
    </style>
  </defs>
  <g class="cls-18">
    <g id="Layer_2" data-name="Layer 2">
      <g id="Group_51" data-name="Group 51">
        <g>
          <path class="cls-8" d="m227.74,182.82c-3.52,18.52-6.74,37.07-8.68,55.81-2.29,21.4-3.31,43.01-6.59,64.32-.42,2.67-.85,5.33-1.32,7.99-.02.12-.14.21-.27.19-.12-.02-.2-.12-.19-.24.15-2.7.34-5.39.53-8.08,1.33-18.43,2.36-38.08,4.25-56.44,2.15-21.5,6.17-42.82,11.81-63.66.03-.12.16-.2.28-.16.12.03.19.15.17.27h0Z"/>
          <path class="cls-3" d="m81.83,139.96c-4.81,0-9.34-2.92-11.17-7.67L26,16.27c-2.37-6.17.7-13.09,6.87-15.46,6.17-2.37,13.09.7,15.46,6.87l44.67,116.02c2.37,6.17-.7,13.09-6.87,15.46-1.41.54-2.87.8-4.3.8Z"/>
          <path class="cls-8" d="m89.38,164.87C69.34,115.01,50.24,64.05,32.6,13.28c20.05,49.86,39.13,100.83,56.78,151.59h0Z"/>
          <path class="cls-8" d="m110.73,209.09c-20.04-49.87-39.14-100.82-56.78-151.59,20.05,49.86,39.13,100.83,56.78,151.59h0Z"/>
          <path class="cls-8" d="m147.53,183.22c-9.03,0-19.87-.37-32.53-1.39-27.28-2.21-55.27-6.96-80.93-13.73l2.3-8.71c25.16,6.64,52.6,11.29,79.36,13.46,22.31,1.81,43.8,1.79,58.97-.04l1.08,8.95c-5.51.67-14.92,1.46-28.25,1.46Z"/>
          <g>
            <path class="cls-16" d="m233.67,179.89h0c.16-.2.32-.4.47-.6-.16.06-.31.12-.47.18,0,0,0-.02,0-.03.08-.1.09-.22.06-.33.03-.04.06-.08.09-.11-.04.02-.08.03-.11.05-.07-.15-.22-.26-.38-.28-.33-.06-.64.08-.93.27-.05.02-.1.05-.15.07-.03,0-.05-.02-.08-.02-.86-.27-1.78-.09-2.63.21.04-.01.08-.03.12-.04-.92.32-1.82.71-2.71,1.11,0,0-.02,0-.03.01-3.93.73-7.85,1.47-11.75,2.36-4.28,1-9.92,2.35-11.52,2.47.32-.05.64-.1.96-.15-7.45.97-14.93,1.81-22.27,3.53-.92.23-1.83.47-2.74.72-.1-.12-.2-.23-.32-.34-1.67-1.5-3.72-1.72-5.77-1.25-.61.06-1.21.18-1.82.3-4.3.06-8.61.31-12.86,1.03-1.2.2-2.11.35-2.89.47-.38.02-.76.08-1.13.17-.41.06-.8.11-1.2.16-.41.02-.82.05-1.23.07-1.97.15-3.93.37-5.9.57-.41.08-.84.12-1.28.17-.58-.35-1.22-.59-1.84-.73-1.16-.34-2.37-.18-3.55-.18-.72,0-1.44.03-2.16.08-3.14-.11-6.29.13-9.42.38-1.89.15-3.78.36-5.67.5-1.01.13-2.12.16-3.09.5-.16-.01-.32-.02-.5-.03-3.83-.35-7.63-1.04-11.48-1.05-.13,0-.26-.02-.39-.03-1.55-.17-3.06-.63-4.62-.77-2.32-.22-4.63-.51-6.94-.91-2.61-.5-5.28-.51-7.88-1.07-1.24-.34-2.47-.72-3.66-1.21-1.83-.82-3.73-1.44-5.68-1.86-1.35-.35-2.85-.43-4.18-.01-.03-.01-.05-.03-.08-.04-1.74-.88-3.77-.69-5.65-.93-.21-.01-.42-.03-.64-.04-.26-.09-.52-.17-.78-.25-.83-.25-1.66-.47-2.5-.67.4.1.81.2,1.21.3-.45-.11-.91-.23-1.36-.34-.19-.06-.38-.09-.57-.11,0,0,.02,0,.03,0-.03,0-.06,0-.1,0-.11-.01-.23-.02-.34-.03-.44-.03-.89-.04-1.33-.07-.68.04-1.41.08-2.08.28-2.22-.73-4.46-1.39-6.71-1.99-.81-.28-1.63-.53-2.48-.55-.61-.04-1.14.02-1.62.15-.41-.17-.82-.32-1.2-.47-1.56-.51-3.19-.95-4.83-1.12-.02-.28-.04-.56-.06-.84-.08.27-.15.54-.22.81-.69-.06-1.38-.06-2.07,0-.35.01-.65.06-.92.15-.58-.21-1.22-.22-1.81-.1-2.24.47-1.66,4.37-1.29,6.09.15.59.35,1.15.58,1.71,0,.21,0,.41.02.62-.06.19-.11.38-.15.58.11.14.2.32.21.55.02.22.03.44.04.66.17.93.3,1.85.4,2.77.39,0,.78.26.8.79.04,1.58.29,3.15.34,4.73.41.31.86.53,1.34.65-.01,2.36.06,4.71.22,7.06.23,4.29.64,8.56,1.41,12.79.27,1.62.42,3.26.64,4.9.3,2.04.71,4.07,1.09,6.09,1.05,5.58,2.23,11.13,3.59,16.64,1.04,4.3,1.57,8.72,2.84,12.95.7,2.77.51,5.52,1.2,8.29.67,2.7,1.16,5.29,1.32,8.09.43,7.6,2.69,15.27,3.61,22.81.38,2.72.56,5.47.94,8.19.5,3.13,1.11,6.24,1.42,9.4.29,2.84.1,6.21.62,11.09.05.06.1.12.15.19,1.02,1.5.95,3.8,1.24,5.57.28,1.73.92,3.29.51,5.05,0,.04-.02.08-.04.11.07.38.13.76.19,1.14.07.35.14.7.2,1.05.21,1.24.45,2.48.68,3.72.14.74.32,1.34.3,2.01.45,1.84.74,3.71,1.09,5.58.07.4,0,.74-.16,1.01.04.24.07.48.1.72.3.38.62.75.93,1.12,1.48,1.61,3.26,2.91,5.07,4.09-.28.07-.54.18-.76.35.23.07.46.14.69.23.75.28,1.06.89,1.05,1.49.68-.33,1.65-.1,1.97.64.14.31.25.65.32.99.42.06.83.14,1.24.21.81,1.79,3.14,2.08,4.8,2.56.23.05.47.11.7.15.31.08.63.15.94.22.1.02.1.02.06,0,.57.12,1.15.2,1.73.2.27.07.54.14.81.21,1.21.23,2.46.36,3.68.15,2.32.19,4.74.71,7,.02.17-.05.33-.12.47-.2,1.22.24,2.45.46,3.67.74-.26-.06-.51-.13-.77-.19,1.23.3,2.46.65,3.71.87,1.28.2,2.56.36,3.84.52.1.03.19.06.29.09,2.02.61,4.01,1.34,6.07,1.79,2.3.5,4.64.71,6.96,1.1,2.56.44,5.17.52,7.77.52,1.29,0,2.58-.01,3.87-.14.98-.09,2-.25,2.81-.88.44-.21.63-.42.89-.82.06-.1.25.11.29,0,.17,0,.41.07.58.06,1.47.66,3.07.14,4.63.16,1.96.07,3.92-.08,5.87-.35.34.11.69.19,1.04.24,1.13.05,2.26.17,3.38.04,3.48-.39,5.56-.62,7.47-.85,3.6.06,7.19.22,10.79.11,1.94-.08,3.94-.13,5.81-.73,2.85,0,5.7-.08,8.55-.29.16-.16.35-.29.59-.39,2.48-1.03,5.11-1.51,7.72-2.04.34-.07.67,0,.96.13,1.32-.39,2.62-.82,3.88-1.15.36-.09.71-.18,1.07-.27-.82-1.09-.95-2.68.24-3.98,2.15-2.35,4.97-3.95,7.73-5.49.73-.4,1.55-.44,2.3-.23.55-.28,1.09-.56,1.65-.83.79-.37,1.66-.47,2.44-.27,0-.08.02-.17.05-.26.21-.66.4-1.32.58-1.99.16-.61.32-1.21.48-1.82.56-2.25,1.05-4.52,1.65-6.76-.17-.14-.35-.27-.52-.41-.2-.12-.41-.22-.63-.32.04-.08.08-.16.11-.25.26-.53.55-1.05.77-1.59.05-.11.11-.22.16-.34.86-1.89,1.26-3.95,1.65-5.99.41-2.1.78-4.23.55-6.38-.23-2.56-.36-1.5-.02-4.56.07-.89.42-1.77.42-2.66.17-1.07.35-2.15.59-3.21.46-2.25,1.16-5.47,1.82-8.41.32-1.32.63-2.65.91-3.98.29-1,.57-2.01.83-3.02.29-1.12.52-2.06.72-2.92.62-2.24,1.2-4.5,1.72-6.77-.17-.24-.28-.54-.28-.9,0-2.1.46-4.2.62-6.29.11-1.48.6-2.98,1.04-4.47.15-.89.32-1.78.49-2.67-.1-.19-.17-.41-.17-.64-.02-2.92.22-6.04,1.45-8.71.24-1.56.49-3.12.61-4.71.02-.23.1-.43.21-.61-.19-.16-.39-.31-.6-.44-.12-.4-.31-.77-.58-1.08-.24-.32-.52-.59-.84-.81.98-6.15,2.42-12.23,2.98-18.43.71-3.73,1.38-7.46,2.09-11.19,1.3-7.74,1.62-15.62,1.97-23.46.04-1.32.07-2.64.09-3.95.39-.63.58-1.38.79-2.1.55-2.54,1.28-5.03,1.84-7.56.45-1.2-.62-3.24-.11-5.03.27-1.48.6-4.66.61-6.46-.04,0-.1-.03-.17-.08-.1-.29-.27-.56-.52-.8ZM58.35,250.86c.07.02.14.04.21.06.03.54.07,1.08.11,1.62-.11-.56-.21-1.12-.32-1.68Zm46.04-51.29s-.07-.06-.11-.09c.58.03,1.01.05,1.4.07-.43,0-.86.02-1.3.02Zm5.32,20.73c-.25.02-.51.04-.76.06.28-.08.55-.15.83-.23-.02.05-.05.11-.07.16Zm70.05,81.64c0,.07,0,.14-.01.21-.2.01-.39.02-.59.04.07-.38.14-.76.21-1.14.15.09.31.17.48.25-.03.21-.06.43-.09.64Zm18.47,46.37c-.02-.1-.04-.2-.05-.29.07.06.14.11.22.17-.06.04-.11.09-.17.13Z"/>
            <path class="cls-12" d="m126.04,370.02c-.1,0-.2,0-.3,0-2.48,0-5.15-.07-7.79-.52-.86-.14-1.75-.27-2.6-.38-1.44-.2-2.92-.4-4.36-.72-1.47-.32-2.93-.79-4.34-1.24-.58-.19-1.16-.37-1.74-.55-.07-.02-.14-.04-.2-.06l-.09-.03h-.13c-1.21-.17-2.46-.32-3.69-.52-.88-.16-1.75-.38-2.59-.6-.12-.03-.23-.06-.35-.09h0c-.97-.23-1.97-.42-2.94-.6l-.67-.13c-.15.08-.3.14-.45.18-1.81.56-3.72.34-5.57.14-.48-.05-.98-.11-1.47-.15-1.34.23-2.69.04-3.71-.15-.25-.06-.5-.12-.74-.19h-.06c-.54-.02-1.11-.08-1.7-.21-.04,0-.07,0-.1-.01-.32-.07-.63-.14-.95-.22-.23-.04-.46-.09-.7-.15-.28-.08-.57-.16-.87-.23-1.54-.39-3.28-.84-4.01-2.34l-.31-.05c-.28-.05-.57-.1-.85-.14l-.11-.02-.02-.11c-.06-.31-.17-.64-.31-.96-.12-.27-.35-.48-.66-.6-.36-.14-.78-.12-1.11.04l-.23.11v-.25c.02-.61-.33-1.12-.94-1.35-.21-.08-.43-.15-.68-.22l-.29-.08.24-.19c.14-.11.31-.21.5-.28-1.48-.97-3.3-2.27-4.82-3.93-.33-.39-.64-.77-.94-1.13l-.03-.03-.02-.17c-.03-.2-.05-.39-.08-.59v-.05s.02-.05.02-.05c.16-.27.21-.58.15-.91-.09-.47-.17-.94-.26-1.41-.24-1.37-.5-2.79-.83-4.15v-.02s0-.02,0-.02c.01-.49-.08-.95-.2-1.47-.03-.16-.07-.33-.1-.5-.21-1.11-.46-2.43-.68-3.72-.06-.35-.13-.7-.2-1.04-.06-.38-.13-.76-.19-1.14v-.04s0-.04,0-.04c.02-.05.03-.07.03-.1.29-1.26.03-2.42-.24-3.65-.1-.43-.2-.88-.27-1.34-.08-.47-.13-.96-.18-1.48-.15-1.45-.3-2.95-1.03-4.02-.04-.06-.09-.12-.14-.18l-.03-.04v-.05c-.31-2.81-.37-5.09-.43-7.1-.04-1.49-.08-2.78-.2-3.99-.22-2.27-.61-4.56-.98-6.78-.15-.87-.29-1.74-.43-2.61-.19-1.38-.34-2.78-.48-4.13-.14-1.33-.28-2.71-.47-4.06-.39-3.16-1.02-6.4-1.63-9.54-.85-4.36-1.73-8.86-1.98-13.29-.14-2.46-.54-4.94-1.31-8.06-.34-1.39-.47-2.78-.6-4.14-.12-1.36-.25-2.77-.6-4.15-.75-2.52-1.26-5.15-1.74-7.69-.33-1.73-.67-3.53-1.1-5.27-1.3-5.3-2.51-10.9-3.59-16.65l-.22-1.17c-.31-1.61-.63-3.28-.87-4.93-.09-.63-.16-1.26-.24-1.89-.12-.99-.24-2.01-.41-3-.69-3.8-1.15-7.99-1.41-12.8-.16-2.34-.24-4.67-.22-6.95-.46-.14-.89-.35-1.28-.65l-.06-.04v-.07c-.03-.75-.1-1.52-.17-2.26-.08-.81-.16-1.64-.18-2.47-.01-.44-.34-.64-.64-.64h-.14l-.02-.14c-.12-1.04-.25-1.92-.4-2.76-.01-.24-.03-.46-.05-.68-.01-.18-.07-.33-.18-.46l-.05-.06.02-.07c.05-.22.1-.4.15-.56-.02-.21-.02-.4-.02-.57-.26-.6-.45-1.16-.58-1.7-.31-1.44-.7-4.06.19-5.43.29-.45.7-.74,1.22-.84.64-.14,1.29-.1,1.85.09.28-.08.59-.13.91-.14.62-.05,1.26-.06,1.96,0,.06-.23.13-.46.19-.69l.25-.86.06.89c.01.21.03.41.04.62v.09c1.81.2,3.57.73,4.74,1.11.15.06.3.12.45.17.23.09.47.18.71.28.5-.14,1.05-.18,1.62-.14.88.02,1.73.28,2.52.56,2.31.62,4.56,1.29,6.66,1.98.67-.19,1.4-.23,2.04-.27h.05c.19,0,.39.02.58.03.25.01.5.02.75.04.12,0,.23.02.35.03h.1s0,.01,0,.01c.23.03.4.06.57.11l.15.04s0,0,0,0h0c.31.07.62.15.94.23l.27.07h0c.43.12.87.24,1.3.37.25.08.51.16.76.25.21.01.42.03.62.04.54.07,1.1.1,1.64.14,1.38.08,2.8.17,4.07.81,0,0,0,0,.02,0,1.56-.47,3.15-.25,4.21.03,1.95.42,3.87,1.05,5.7,1.87,1.02.43,2.14.8,3.63,1.2,1.36.29,2.77.44,4.14.58,1.23.13,2.49.26,3.73.49,2.2.38,4.46.68,6.92.91.82.07,1.63.24,2.41.4.72.15,1.47.3,2.21.37.1.01.2.02.31.03h.08c2.57.01,5.17.33,7.69.63,1.24.15,2.53.31,3.8.42l.46.03c.73-.25,1.52-.33,2.28-.41.27-.03.55-.06.81-.09.96-.07,1.94-.17,2.88-.25.92-.09,1.87-.18,2.8-.25,3.34-.27,6.36-.49,9.44-.38.62-.04,1.39-.08,2.15-.08.3,0,.59,0,.89-.02.89-.03,1.82-.05,2.71.21.64.14,1.27.39,1.83.72h.08c.4-.05.77-.09,1.13-.16.55-.06,1.09-.11,1.63-.17,1.4-.14,2.85-.29,4.29-.4.41-.03.83-.05,1.24-.07.39-.05.78-.1,1.19-.16.34-.09.72-.15,1.14-.17.57-.09,1.23-.2,2.04-.33l.83-.14c3.72-.63,7.81-.96,12.88-1.03.58-.12,1.2-.24,1.8-.3,2.35-.54,4.34-.11,5.89,1.29.09.08.18.17.27.28.91-.25,1.8-.49,2.64-.7,6.4-1.5,13.02-2.35,19.41-3.16.96-.12,1.92-.24,2.87-.37v.02c2.11-.36,6.26-1.33,9.71-2.14l.83-.2c4.01-.91,8.12-1.68,11.74-2.36h.01c.74-.34,1.72-.77,2.73-1.12h0c1.01-.34,1.86-.4,2.61-.17,0,0,.01,0,.02,0l.1-.05c.27-.18.63-.36,1.02-.29.15.02.3.11.41.24l.51-.23-.33.47s-.03.04-.05.06c0,.02,0,.04,0,.06.06-.02.12-.05.18-.07l.5-.19-.32.43c-.13.17-.25.33-.39.5.19.22.34.46.44.71.03.02.05.03.07.03l.12.03v.13c-.02,1.83-.34,4.99-.62,6.49-.26.92-.09,1.93.06,2.82.14.83.27,1.62.05,2.23-.26,1.2-.58,2.42-.88,3.61-.33,1.29-.67,2.62-.95,3.94l-.07.24c-.18.64-.37,1.31-.72,1.88-.02,1.54-.05,2.78-.09,3.91l-.02.53c-.34,7.56-.68,15.37-1.95,22.95-.33,1.75-.66,3.51-.98,5.26-.37,1.98-.73,3.95-1.11,5.93-.36,4.05-1.12,8.14-1.85,12.08-.38,2.05-.77,4.16-1.11,6.25.31.23.57.49.79.79.25.27.45.63.59,1.07.19.12.39.26.57.42l.1.09-.07.11c-.11.17-.17.34-.19.53-.11,1.43-.33,2.86-.54,4.25l-.08.51c-1.32,2.89-1.45,6.32-1.43,8.65,0,.2.05.39.15.57l.03.05v.05c-.2.96-.36,1.83-.5,2.66l-.17.57c-.38,1.28-.78,2.6-.87,3.89-.06.84-.18,1.69-.28,2.52-.16,1.24-.33,2.52-.33,3.77,0,.3.08.57.25.8l.04.06-.02.07c-.46,2.03-1.01,4.18-1.72,6.77-.21.89-.45,1.85-.72,2.92-.24.91-.51,1.9-.83,3.03-.25,1.18-.55,2.49-.91,3.97-.7,3.13-1.38,6.27-1.82,8.41-.24,1.09-.42,2.18-.59,3.2,0,.49-.11,1.01-.22,1.5-.08.38-.17.77-.2,1.15-.24,2.22-.24,2.25-.13,3.1.04.31.09.75.16,1.44.23,2.18-.15,4.37-.56,6.43-.39,2.04-.8,4.13-1.66,6.03-.04.09-.08.19-.13.28l-.03.06c-.17.42-.38.83-.58,1.23-.06.12-.12.24-.19.37l-.05.1c.19.09.35.18.5.26l.62.48-.03.1c-.36,1.36-.69,2.75-1.01,4.09-.21.89-.42,1.78-.64,2.66l-.48,1.82c-.21.79-.4,1.42-.58,2-.02.07-.03.13-.04.22v.19s-.19-.05-.19-.05c-.74-.19-1.57-.1-2.33.26-.49.23-1.01.5-1.64.82l-.05.03-.06-.02c-.77-.22-1.54-.14-2.18.21-2.58,1.43-5.5,3.05-7.7,5.46-1.24,1.36-.9,2.88-.23,3.78l.14.19-.41.1c-.3.07-.59.15-.89.23-.84.22-1.68.48-2.58.75-.43.13-.86.26-1.3.39l-.06.02-.05-.03c-.28-.14-.57-.18-.86-.12l-.72.14c-2.33.47-4.74.95-6.98,1.88-.2.09-.39.21-.54.36l-.04.04h-.06c-2.74.21-5.6.3-8.53.3-1.75.57-3.63.64-5.44.72l-.38.02c-2.65.08-5.35.02-7.95-.04-.95-.02-1.9-.05-2.85-.06-1.62.2-3.37.39-6.02.69l-1.43.16c-.89.11-1.8.05-2.67,0-.24-.01-.49-.03-.73-.04-.35-.05-.7-.13-1.05-.24-2.16.29-4.07.4-5.86.34-.48,0-.99.04-1.47.09-1.06.1-2.15.2-3.18-.25-.09,0-.19-.02-.29-.03-.07-.01-.14-.02-.2-.03,0,0-.02.01-.03.01-.09.04-.18,0-.24-.03,0,0,0,0,0,0-.25.37-.47.6-.9.8-.83.64-1.87.82-2.88.91-1.22.12-2.44.14-3.59.14Zm-28.89-5.2c.38.09.75.19,1.13.28.84.21,1.71.43,2.57.59,1.22.19,2.47.35,3.67.5l.16.02.11.03c.07.02.13.04.2.06.59.18,1.17.37,1.75.55,1.4.45,2.85.92,4.31,1.23,1.43.31,2.91.51,4.34.71.86.12,1.74.24,2.61.39,2.62.45,5.27.52,7.74.52,1.23,0,2.54-.01,3.86-.14.96-.09,1.96-.25,2.73-.85l.03-.02c.41-.19.59-.39.83-.76.08-.14.24-.1.32-.07h.1c.1,0,.21.01.32.03.1.02.19.03.26.03h.04s.03.01.03.01c.97.43,1.98.34,3.06.24.49-.05,1.01-.1,1.51-.09,1.78.06,3.69-.05,5.85-.34h.03s.03,0,.03,0c.34.11.69.19,1.02.24.23,0,.48.02.72.04.86.05,1.75.1,2.62,0l1.43-.16c2.65-.3,4.41-.49,6.04-.69.97.01,1.92.04,2.87.06,2.6.06,5.29.13,7.93.04l.38-.02c1.8-.07,3.66-.15,5.38-.71h.05c2.91,0,5.75-.1,8.48-.3.17-.16.37-.29.6-.38,2.27-.94,4.69-1.43,7.04-1.9l.71-.14c.33-.07.68-.03,1,.12.41-.12.83-.25,1.24-.38.9-.28,1.74-.53,2.59-.76.28-.07.57-.15.85-.22-.65-1.01-.91-2.58.38-3.99,2.23-2.44,5.18-4.07,7.77-5.52.7-.39,1.53-.48,2.36-.26.61-.32,1.12-.57,1.6-.8.77-.37,1.61-.48,2.38-.32,0-.04.02-.08.03-.11.18-.58.37-1.21.58-1.99l.48-1.82c.22-.88.43-1.77.64-2.66.31-1.32.63-2.67.98-4l-.44-.34c-.16-.09-.35-.19-.6-.3l-.14-.06.18-.39c.06-.13.13-.25.19-.37.2-.39.41-.8.57-1.21l.03-.07c.04-.09.09-.18.12-.27.85-1.87,1.25-3.94,1.64-5.94.41-2.06.78-4.22.56-6.36-.06-.69-.12-1.12-.15-1.43-.11-.86-.12-.91.13-3.16.03-.39.12-.79.21-1.18.11-.48.22-.98.21-1.46.17-1.05.35-2.15.59-3.24.44-2.14,1.12-5.28,1.82-8.41.36-1.49.66-2.79.91-3.98.33-1.13.6-2.12.83-3.03.27-1.07.51-2.02.72-2.92.71-2.56,1.25-4.69,1.7-6.7-.18-.27-.27-.58-.27-.93,0-1.27.17-2.56.34-3.81.11-.82.22-1.67.28-2.5.1-1.32.5-2.66.88-3.95l.16-.55c.14-.8.29-1.66.48-2.6-.1-.21-.16-.44-.16-.67-.02-2.35.11-5.82,1.45-8.76l.07-.45c.21-1.38.43-2.8.53-4.22.01-.2.07-.39.16-.56-.16-.13-.31-.24-.48-.34l-.05-.03-.02-.06c-.13-.42-.31-.76-.55-1.02-.23-.3-.5-.57-.81-.79l-.08-.06.02-.1c.34-2.12.74-4.27,1.12-6.35.73-3.94,1.49-8.01,1.85-12.07.38-1.99.74-3.96,1.11-5.94.32-1.75.65-3.51.98-5.26,1.27-7.56,1.61-15.36,1.95-22.91l.02-.53c.04-1.14.06-2.4.09-3.95v-.04s.02-.04.02-.04c.34-.55.52-1.2.7-1.84l.06-.23c.28-1.32.63-2.65.95-3.94.3-1.18.62-2.41.88-3.62.2-.55.08-1.3-.05-2.09-.16-.92-.33-1.97-.05-2.95.26-1.41.58-4.51.61-6.31-.03-.02-.07-.04-.1-.06l-.04-.03-.02-.05c-.09-.26-.26-.52-.48-.74l-.05-.05v-.13l.04-.04s.08-.09.11-.14l-.15.06v-.29l.04-.07c.04-.05.05-.11.03-.18l-.02-.04c-.05-.11-.16-.18-.26-.2-.3-.06-.59.09-.83.25l-.22.11-.13-.03c-.72-.22-1.54-.15-2.54.21h0c-.96.34-1.88.74-2.58,1.06l-.06.02c-3.62.68-7.73,1.44-11.74,2.36l-.83.2c-4.1.96-9.2,2.16-10.71,2.28v-.02c-.64.08-1.27.16-1.91.24-6.39.82-12.99,1.66-19.38,3.16-.87.22-1.79.46-2.73.72l-.1.03-.06-.08c-.11-.13-.2-.23-.3-.32-1.47-1.33-3.37-1.73-5.64-1.21-.61.06-1.22.18-1.8.3h-.05c-5.06.08-9.13.41-12.83,1.04l-.84.14c-.81.13-1.47.24-2.05.34-.41.03-.77.08-1.11.17-.43.06-.82.12-1.22.17-.42.02-.83.05-1.24.07-1.42.11-2.87.26-4.27.4-.54.06-1.08.11-1.62.16-.36.07-.76.11-1.15.16l-.18.02-.04-.03c-.54-.33-1.16-.57-1.79-.71-.85-.25-1.76-.22-2.63-.2-.3,0-.6.02-.9.02-.75,0-1.51.04-2.15.08-3.08-.1-6.09.11-9.42.38-.93.07-1.88.16-2.8.25-.94.09-1.91.18-2.87.25-.26.03-.53.06-.81.09-.76.08-1.54.16-2.24.4h-.03s-.53-.02-.53-.02c-1.28-.12-2.56-.27-3.81-.43-2.51-.3-5.1-.62-7.66-.63h-.09c-.11-.01-.21-.02-.32-.03-.76-.08-1.51-.23-2.24-.38-.78-.16-1.58-.32-2.38-.39-2.47-.23-4.74-.53-6.95-.91-1.23-.24-2.49-.36-3.71-.49-1.38-.14-2.8-.29-4.18-.58-1.51-.41-2.65-.79-3.68-1.22-1.81-.81-3.71-1.44-5.65-1.86-1.04-.27-2.6-.49-4.1-.02l-.05.02-.13-.05c-1.23-.62-2.62-.71-3.96-.79-.54-.03-1.11-.07-1.65-.14-.2-.01-.41-.03-.63-.04h-.04c-.26-.09-.52-.18-.77-.26-.51-.16-1.03-.3-1.54-.43l-.95-.24h0l-.15-.04c-.16-.05-.33-.08-.55-.11v-.05s-.02.04-.02.04h-.05c-.11-.02-.22-.03-.34-.03-.25-.02-.5-.03-.74-.04-.2,0-.39-.02-.59-.03-.69.04-1.38.08-2.03.27h-.05s-.05,0-.05,0c-2.11-.69-4.36-1.36-6.7-1.99-.78-.27-1.6-.53-2.45-.54-.56-.04-1.09,0-1.57.15h-.05s-.05,0-.05,0c-.25-.11-.51-.2-.75-.3-.15-.06-.3-.11-.45-.17-1.18-.39-2.97-.92-4.79-1.11h-.13s0-.08,0-.08l-.02.06h-.13c-.72-.07-1.39-.07-2.04-.02-.32.01-.62.06-.89.14l-.05.02-.05-.02c-.51-.19-1.13-.22-1.73-.09-.44.09-.77.32-1.02.71-.83,1.28-.45,3.8-.15,5.2.13.53.32,1.08.58,1.68v.03s.01.03.01.03c0,.18,0,.38.02.6v.03s0,.03,0,.03c-.05.15-.09.3-.13.5.12.17.19.36.2.57.02.22.03.44.04.66.15.79.27,1.64.39,2.64.41.06.8.37.81.93.02.82.1,1.65.17,2.45.07.72.14,1.46.17,2.2.37.27.79.47,1.23.58l.12.03v.12c-.01,2.3.06,4.67.22,7.04.26,4.8.72,8.98,1.4,12.77.17,1,.29,2.03.41,3.02.07.63.15,1.26.24,1.89.24,1.65.56,3.31.87,4.92l.22,1.17c1.08,5.74,2.28,11.34,3.59,16.63.42,1.75.77,3.55,1.1,5.28.48,2.53.99,5.15,1.74,7.66.36,1.41.49,2.83.61,4.2.12,1.34.25,2.73.59,4.09.78,3.14,1.18,5.65,1.32,8.12.25,4.4,1.12,8.9,1.97,13.25.61,3.14,1.25,6.38,1.63,9.56.19,1.35.33,2.73.47,4.07.14,1.35.28,2.75.47,4.12.14.87.28,1.74.43,2.6.38,2.22.76,4.51.99,6.8.13,1.22.16,2.51.2,4.01.05,2,.12,4.26.41,7.03.05.05.09.11.13.17.77,1.14.93,2.68,1.08,4.16.05.52.1,1.01.18,1.46.07.45.17.89.27,1.33.28,1.26.55,2.45.24,3.78,0,.03-.02.06-.03.09.06.37.13.73.19,1.1.07.34.14.69.2,1.05.22,1.29.47,2.6.68,3.71.03.17.07.34.1.5.11.52.21,1,.2,1.52.34,1.37.59,2.79.83,4.16.08.47.17.94.25,1.41.07.38.02.75-.16,1.07.03.18.05.36.08.54v.09c.29.35.6.72.91,1.09,1.6,1.74,3.53,3.08,5.04,4.06l.3.2-.35.08c-.16.04-.3.09-.43.15.13.04.25.08.37.13.66.25,1.08.77,1.14,1.42.36-.11.77-.1,1.14.03.39.14.68.42.83.76.13.31.24.62.31.92.25.04.5.08.75.13l.47.08.03.08c.64,1.43,2.34,1.86,3.83,2.25.3.08.59.15.87.23.22.05.45.1.69.15.32.08.63.15.95.22.03,0,.05.01.06.01h0c.59.12,1.16.19,1.7.19h.04s.08.03.08.03c.24.06.48.13.73.18,1,.19,2.32.37,3.61.15h.02s.02,0,.02,0c.5.04,1,.1,1.5.15,1.82.2,3.69.41,5.45-.13.15-.05.29-.11.45-.19l.05-.02.77.15c.72.14,1.45.28,2.18.43v-.02Zm36.3,3.28s0,0,0,.01c0,0,0,0,0-.01ZM63.8,182.32v.03s0-.03,0-.03Zm134.32,166.28l-.18-.96.33.27c.07.06.14.11.21.16l.18.12-.54.41Zm-19.15-46.23l.28-1.55.19.12c.14.08.29.16.46.24l.1.05-.1.76s0,.09,0,.14v.19s-.15,0-.15,0c-.18,0-.36.02-.54.03l-.24.02Zm.51-1.06l-.13.72c.08,0,.17-.01.25-.02,0-.03,0-.05,0-.08l.07-.53c-.07-.03-.13-.07-.2-.1Zm-120.96-48.73l-.37-1.94.25.08c.07.02.14.04.21.06l.11.03v.11c.04.54.08,1.08.11,1.62l-.31.04Zm50.44-32.05l-.05-.3c.28-.08.56-.15.83-.23l.31-.08-.22.52-.11.03-.76.06Zm-4.56-20.79h-.06l-.51-.42.46.02c.58.03,1.01.05,1.4.07v.31c-.44,0-.87.02-1.3.02Z"/>
          </g>
          <path class="cls-8" d="m65.09,296.67c-6.16-33.62-11.13-67.87-14.75-101.86,6.17,33.61,11.12,67.88,14.75,101.86h0Z"/>
          <path class="cls-8" d="m73.93,269.3c.58,0,1.16-1,1.73-1-.58,0-1.16,1-1.73,1h0Z"/>
          <path class="cls-1" d="m199.5,231.95h0s-.09.03-.14.04l-.34.09-.32.09-.96.33-1.15.42-.9.32-.78.27-.71.29-.58.22-.51.19-.52.2-.48.19-.53.21-.61.25-.58.23-.56.21-.57.19-.55.15-.49.12-.46.12-.45.13-.44.14-.44.14-.41.13-.44.12-.46.11-.45.1-.51.09-.54.1-.59.1-.66.11-.73.15-.76.13-.82.14-.83.13-.78.11-.71.11-.67.09-.66.08-.77.07-.83.05-.78.04-.71.03-.64.04-.64.03-.66.05-.66.06-.66.07-.6.07-.57.08-.55.1-.56.1-.61.12-.62.11-.56.11-.52.09-.52.08-.55.09-.61.11-.62.11-.63.11-.62.11-.63.11-.65.1-.7.1-.76.12-.84.11-.92.15h0c-.3.05-.61.11-.91.15h0c-.29.04-.59.05-.89.07l-.85.04-.86.04-.92.04-.95.05-.96.07-1.04.08-1.02.07h0c-.3.02-.6.04-.9.04h0c-.24,0-.47,0-.71-.03h0c-.16-.01-.32-.04-.47-.06"/>
          <g>
            <path class="cls-11" d="m211.01,147.59s-.06,0-.09,0c.03,0,.06,0,.1.01,0,0,0,0-.01,0Z"/>
            <path class="cls-11" d="m257.52,138.83c-.34-.32-.78-.51-1.24-.64-.23-.68-.53-1.36-1.06-1.82,0-.03,0-.05,0-.08-.01-.07-.05-.12-.12-.15-.35-.29-2.56-.75-2.98-.28,0,0-.01,0-.02,0,0,0,0,.02,0,.02-.03.04-.06.09-.06.15-.17.51-.24,1.06-.13,1.58-.28.01-.57.04-.85.09-.16.08-.38.09-.5.22-.18.16-.23.39-.31.61-.04.11-.1.22-.16.31-.16.16-.58.24-1.57.6-1.34.38-2.45,1.23-3.73,1.76-1.48.42-2.96.65-4.43,1.21-2.24.81-4.15,1.57-5.89,2.19-.08.03-.16.05-.25.08-.01,0-.02,0-.03,0-1.61-.21-3.25-.3-4.86-.14-1.27.13-2.52.41-3.69.92-1.33.63-1.16.65-1.75.8-1.63.34-3.28.6-4.92.84-.29-.16-.65-.32-1.05-.47.21-.04.41-.11.61-.19.22-.11.27-.25.14-.41-.04-.15-.13-.26-.29-.31-.41-.31-.92-.48-1.4-.62-.28-.1-.57-.18-.86-.25-.45.91-1.33,1.6-2.64,1.63-3.08.06-6.17.22-9.25.3,2.23.28,4.45.57,6.66.79-.69-.07-.44-.07-.16-.03.08.01.17.02.25.04.23.02.46.05.69.07-.28-.03-.5-.05-.67-.07.63.09,1.25.18,1.88.27.24.04.49.08.73.12-.42.08-.84.17-1.26.26-1.7.33-3.39.75-5.07,1.17-.22.04-.43.08-.65.12-.95.1-1.9.09-2.85.18-2.09.3-2.94.4-3.91.53-3.5-.03-6.99.18-10.48.42,0,0,.01,0,.02,0,1.56-.5,4.45-1.31,6.51-1.89,1.13-.34,2.27-.65,3.4-1,1-.31,1.98-.69,2.99-.93-2.45.04-4.9,0-7.35-.18-.05.03-.1.05-.15.08-.85.4-1.71.78-2.56,1.19-2.09.94-4.21,1.9-6.2,3.06-.47.04-.93.09-1.4.14-.93-.02-1.86.01-2.78.13-1.07.18-2.08.34-3.04.5-3.31-.15-6.62-.15-9.92.01-1.15.06-2.31.1-3.47.13-1.65-.02-3.31.02-4.96.06-.34-.02-.68-.03-1.01-.05-5.9-.32-11.81-.35-17.72-.49-.23,0-.45.01-.68.01-1.67-.03-3.35,0-5.03-.03-4.53,0-9.05.1-13.58-.02-1.74-.18-4.38-.44-4.84.4-1.07-.22-2.18-.31-3.26-.36-2.23.07-5.93-.02-9.5-.03-1.45-.09-2.9-.17-4.35-.27-2.14-.13-4.3-.36-6.44-.19-.54.06-1.08.15-1.62.24-1.59-.18-3.14-.34-4.68-.5-.01,0-.02,0-.03,0-3.52-.64-7.07-1.01-10.61-1.46-.83-.11-1.66-.21-2.49-.32-.34-.08-.68-.15-1.02-.22-.22.17-.5.28-.85.28-3.63,0-7.3.02-10.88-.71-1.62-.33-3.18-1.04-4.71-1.64-.05-.02-.1-.04-.15-.06-1.15.01-2.31.07-3.46.19-.14,0-.42.03-.71.09-3.18-.63-6.4-1.03-9.64-1.22-1.07-.11-2.14-.16-3.21-.2-.06,0-.12,0-.18,0-1.1-.29-2.21-.57-3.31-.88-.09-.03-.18-.06-.26-.09-1.26-.45-2.55-.81-3.84-1.2-.76-.26-1.51-.55-2.28-.75-.31-.09-.62-.17-.93-.26-.17-.06-.34-.12-.51-.18-1.12-.65-2.24-1.31-3.34-2-.16-.17-.27-.38-.45-.54-.25-.28-.5-.56-.74-.84-.32.14-.67.2-1.01.18-.6-.03-1.14-.28-1.65-.57-.18-.02-.36-.07-.54-.17-1.47-.79-2.98-1.6-3.21-3.41-.05-.41.1-.76.36-1.01-.17-.03-.34-.06-.51-.08-.62-.08-.51,1.18-1.15,1.14-.37,1.09-1.46.54-2.19,1.4-1.12,1.32-1.45,3.39-1.53,5.01-.07,1.56-.16,3.36.31,4.86.5,1.61,1.85,2.82,3.04,3.94.58.55,1.19,1.11,1.83,1.6.11.04.22.08.33.12,1.53.57,3.05,1.15,4.59,1.68-.01.02-.02.05-.03.07-.22.09-.43.19-.63.31-.07.07-.14.14-.21.22.35.34.63.75.84,1.28.5,1.28.17,2.7.61,4,.58,1.72,1.31,3.44,2.21,5.02.18.32.22.63.17.91.32.23.67.42,1.06.55,1.43.47,2.93.82,4.45.98.98.4,1.95.82,2.93,1.22-1.05-.12-2.37-.22-4.12-.15-.65.06-1.15.14-1.52.25,1.05.74,1.49,1.78,1.58,3.05.03.37-.09.67-.28.9.02.05.04.09.06.14.11.08.21.18.31.27.07.02.13.04.2.05-.04,0-.09.01-.13.02.7.68,1.21,1.57,1.86,2.33.02.03.04.05.05.07.15.1.29.19.43.3.31.23.62.48.9.74.11.1.21.2.32.31.65.14,1.29.26,1.93.41,1.99.45,4,.83,6.01,1.18-1.25-.02-2.56.12-2.17.84.58.47,1.3.7,2.01.9,1.29.39,2.59.76,3.9,1.09,1.94.52,3.93,1.03,5.9,1.44,2.09.47,3.88.86,5.53,1.22.56.02,1.13.11,1.7.23,1.58.32,3.16.64,4.74,1,.45.1.91.2,1.36.3.29-.32.73-.49,1.29-.35.81.2,1.66.3,2.52.38,1.13.08,2.26.08,3.42.2,1.36.15,2.87.13,4.15.66.74.31,1.82.27,1.69.86.83.14,1.03.39,1.87.47.05,0,.66.11.7.12,1.47.3,2.15.21,3.63.47,2.44-.05,4.94.77,7.36.87.66.03,2.76-1.14,2.7-.64,1.99.18,2.18,1.97,4.16,1.64.66-.13,1.28-.4,1.91-.63.8-.08.95-.73.14-1.05-.25-.19-.5-.35-.76-.5.73.14,1.47.23,2.18.33,2.98.3,4.58.1,7.08.05.11.02.22.05.32.07.6.12,1.21.22,1.81.3.04.01.07.02.11.03,1.12.37,2.29.55,3.46.7,2.21.27,4.43.39,6.65.46,1.13.2,2.28.29,3.41.38,2.55.18,5.11.22,7.66.27,1.77-.03,3.55-.02,5.32-.09.91-.1,1.87-.04,2.77-.25,1.51.31,3.06.42,4.59.34.13,0,.26.01.39.02,4.55.24,9.1.16,13.66.09.6,0,1.19-.02,1.79-.03.11.01.22.02.33.03,1.31.09,2.64.13,3.93-.11.26-.06.52-.16.77-.26.34,0,.68,0,1.01-.01,3.59-.3,3.78-.96,2.7-1.55.47,0,.94-.03,1.41-.08.38-.02,1.25-.17,1.09-.65,2.79.32,5.89.67,8.97.97.08-.11.18-.22.31-.3.6-.42,1.25-1.25,1.85-.99,1.33-.2,2.62.47,3.96.39.2-.27.51-.46.95-.46,2.28-.07,4.32-1.27,6.59-1.43,0-.02-.01-.07-.02-.14,2.27-.39,4.52-.86,6.78-1.31,3.25-.67,4.89-.97,6.92-1.36,2.38-.27,4.75-.62,7.09-1.16.26-.01.46-.13.58-.35,0-.04-.02-.07-.03-.1.19-.06.38-.11.58-.18.01-.01.02-.03.04-.04,2.02-.29,3.24-.43,7.46-1,.05,0,.11-.02.16-.02,1.07-.14,2.15-.26,3.2-.53,1.07-.34,2.09-.63,1.68-1.11.05,0,.1-.02.15-.02,1.11-.19,2.25-.29,3.33-.64.25,0,.51-.01.76-.02.84,0,1.68-.03,2.51-.09,1.44-2.18,3.17-4.15,4.53-6.39.68-1.12,1.45-2.19,2.14-3.31.41-.67.67-1.48,1.42-1.88.08-.04.15-.07.23-.09-.09-.25-.33-.45-.65-.62.1-.22.19-.44.29-.66.23-.36.46-.73.67-1.09.02-.02.04-.04.06-.07.91-1.2,1.35-2.67,1.93-4.04.23-.64.45-1.27.66-1.92.14-.41.27-.83.41-1.24-.05-.2-.21-.38-.44-.54.03-.06.05-.13.08-.19,1.03-1.36,1.95-2.48,3.11-3.71.58.17,1.26.22,1.79.08.02-.02.04-.05.05-.07h0c.33-.38.56-.81.75-1.27.37-.53.75-1.02.94-1.29.11-.14.31-.3.2-.49-.1-.14-.24-.24-.38-.33.02-.06.04-.13.06-.19.21-.13.42-.25.63-.38,0,0,0,0,0,0h0c.17-.09.21-.19.11-.31-.06-.18-.19-.3-.39-.36,0,0-.02,0-.03-.01.04-.17.09-.34.13-.52.33-.19.63-.4.91-.67.38-.43.64-.97.78-1.52.04-.23.04-.47.05-.7.36-.86.61-1.78.69-2.7.21-.32.41-.65.61-.98.16-.35.55-.78.29-1.15Zm-188.99,38.41c-1.69-.27-3.39-.5-5.09-.69-.84-.3-1.67-.59-2.47-.88,2.23.23,4.42.46,6.47.66.2.02.4.04.59.06.53.21,1.05.43,1.57.66.09.04.18.08.26.12-.44,0-.91.02-1.34.08Zm5.78-14.6c-1.15-.23-2.3-.44-3.46-.65-3.69-.62-7.42-1.04-11.15-1.38-.23-.01-.45-.02-.68-.03-1.36-.32-2.8-.67-4.49-1.09.38-.1.74-.28,1.05-.52,1.33.02,2.76.06,4.58.09,2.38.22,4.76.44,7.13.66,2.18.28,4.37.58,6.55.86.94.25,1.87.49,2.81.74.75.19,1.39.35,1.95.49.09.05.19.1.31.15.04.02.08.03.12.05-1.58.2-3.15.4-4.72.62Zm16.61,24.48c-.14.04-.27.09-.42.12-.01,0-.02,0-.04,0-.3-.02-.6-.05-.9-.08.17.02.33.04.5.05-1.44-.15-2.66-.32-3.87-.54.07-.26-.19-.56-.51-.64-.19-.1-.39-.2-.59-.29.53,0,1.06,0,1.59-.05.22-.02.45-.05.67-.09.8.26,1.62.56,2.51.9.45.2.62.19,1.22.55-.07.03-.13.05-.18.07Zm15.34-22.98c-1.48.14-2.85.25-4.16.35-1.53-.05-2.92-.09-4.22-.13.79-.18,1.57-.39,2.34-.64,2.73.05,5.46.08,8.19.1-1,.14-1.91.29-2.15.32Zm87.38,21.43c.09-.01.17-.03.26-.05-.08.07-.16.09-.26.05Zm32.8-26.17c-.2-.05-.4-.09-.6-.13,1.04-.25,2.11-.5,3.27-.77-.9.28-1.79.57-2.67.89Zm9.92-2.46c-.26,0-.52.03-.78.06-.26.04-.52.09-.78.13.6-.17,1.18-.35,1.69-.54-.05.11-.09.23-.14.34Z"/>
          </g>
          <path class="cls-5" d="m75.58,145.83c-.18-.44-.45-.83-.7-1.24-.57-.97.36-1.96-.18-2.94-.09-.1.94-.95.7-1.99-.12-.56-1.88-1.42-1.99-1.99-.01-.15,2.47-.9,2.46-1.05.01-.84-2.31-1.39-2.34-2.22-.19-2.54-1.75-4.86-1.7-7.4-.03-.07-.07-.13-.13-.19,0-.02.02-.04.02-.05.22-.79.28-1.63.23-2.45,0-.06,0-.13,0-.19.23-.11.45-.22.68-.34,1.46-1.05-3.72-1.96-4.34-2.04-1.39-.19-2.82-.29-4.21-.06-1.65-.04-3.31.1-4.94.38-.14.02-.27.04-.41.07-.61.08-1.22.18-1.76.47-.02.01-.03.02-.04.04-.65.12-1.3.27-1.95.42-.62.14-1.46.17-1.81.79,0,.05,0,.11,0,.16-.17.02-.34.04-.51.07-.61.05-1.22.17-1.82.28-.94.05-1.87.11-2.8.27-.77.1-1.52.3-2.28.45-.61.08-1.22.17-1.82.29-2.9.54-3.5.76-5.35.99.22-.03.43-.06.65-.09-.27.03-.54.07-.81.11-1.17.07-2.32.29-3.46.54-.97.13-1.92.3-2.86.55-1.53.31-2.98.88-4.4,1.48-.61.12-1.2.27-1.79.47-.17,0-.31.06-.42.15-.25.08-.49.16-.74.25-1.3.41-3.92,1.51-6.34,2.47-.18.06-.36.12-.53.19-.13.05-.2.18-.27.28.03.19.13.33.31.41.47.31,1,.51,1.54.66-.43.09-.78.24-.99.49.22.71.78,1.24,1.23,1.82,2.02,2.44,5.19,3.22,8.25,3.64,0,0,0,0,0,0-.07,0-.14,0-.21,0-2.22.21-2.15,1.02-.15,1.83,3.13,1.23,6.54,1.92,9.84,2.56,4.17.74,8.41,1.28,12.66,1.2.35.03.69.05,1.04.08.02,0,.05,0,.07,0-.02,0-.04,0-.07,0,.03,0,.06,0,.08,0,.77.12,1.54.24,2.31.34,1.75.29,3.51.46,5.27.62,1.94.44,3.92.63,5.9.8.12.04.27.08.45.14,1.45.45,2.96.68,4.47.83,1.39.09,2.88.18,4.17-.44.04-.02.07-.03.09-.04.68-.21,1.42-.43,1.81-1.05.14-.26-.03-.56-.13-.8Zm-35.09-15.93c-.15,0-.3-.01-.44-.02.32-.08.64-.17.95-.27-.17.09-.34.19-.51.28Zm10.02,15.45c-1.16-.16-.99-.19-.55-.12.35.06.69.12,1.04.17-.19-.02-.37-.04-.49-.05Z"/>
          <g>
            <path class="cls-6" d="m212.62,130.76s.04-.01.06-.02c0,0,.02,0,.02-.01-.05.02-.08.03-.08.03Z"/>
            <path class="cls-6" d="m250.23,138.39s0,0,0,0c0,0,0,0,0,0Z"/>
          </g>
          <path class="cls-10" d="m192.73,180c-3.57.06-7.14.12-10.7.19-1.99.03-4.1,2.04-5.43,3.34-.29.28-3.18,3.59-1.69,3.56,3.57-.06,7.14-.12,10.7-.19,1.99-.03,4.1-2.04,5.43-3.34.29-.28,3.18-3.59,1.69-3.56h0Z"/>
          <path class="cls-10" d="m181.84,180.46c-1.35-.26-2.73.08-3.96.63-2.48,1.11-4.6,2.96-6.44,4.92-.32.34-2.11,2.5-.84,2.67,1.09.14,2.22-.16,3.2-.63,1.88-.89,3.7-2.23,5.13-3.73.32-.33,3.29-3.3,1.69-3.56-.73-.12-1.77.56-2.32.9-1.11.69-2.21,1.49-3.11,2.44.96-1.08,2.09-1.86,3.39-2.33-.26.06-.32.08-.18.06.14-.02.07-.02-.19,0-.17,0-.33-.02-.49-.04l-.84,2.67c-.94,1.13-2.05,2.04-3.31,2.7-.19.12-.39.21-.6.26,0,0,.66-.18.69-.18-.37.05.31.02.35.02.24.01.47.05.71.09.66.13,1.85-.62,2.32-.9,1.1-.66,2.2-1.53,3.11-2.44.41-.41,3.21-3.26,1.69-3.56h0Z"/>
          <path class="cls-8" d="m74.53,120.43c-3.2,0-3.2,4.97,0,4.97s3.2-4.97,0-4.97Z"/>
          <path class="cls-8" d="m163.7,144.67c-.03-.64-.24-1.31-.73-1.76-.49-.45-1.08-.72-1.76-.73-.11,0-.22,0-.32,0-.02,0-.04,0-.06-.01-.44-.12-.88-.12-1.32,0-.32.08-.61.23-.85.44-.63.49-.95,1.15-.98,1.95,0,.11,0,.22-.01.34-.03.62.3,1.33.73,1.76.43.43,1.14.76,1.76.73.07,0,.15,0,.22-.02.43.11.89.12,1.28,0,.52-.17.95-.45,1.29-.89.04-.05.08-.1.11-.16.38-.44.66-1.08.63-1.65Z"/>
          <path class="cls-10" d="m256.73,137.89c0-1.14-.54-2.2-1.77-2.54-1.16-.32-2.87.4-3.06,1.74-.22,1.57.45,2.8.37,4.36-.07,1.3-.46,2.32-1.23,3.37-1.16,1.61.42,3.69,2.15,3.74.19,0,.37.01.56.02,1.68.05,2.47-1.28,2.39-2.58,1.26-2.51,1.32-5.37.59-8.09Z"/>
          <path class="cls-13" d="m232.91,180.85c-17.43,7.36-35.92,11.94-54.59,14.85-12.48,1.86-25.17,2.81-37.8,2.63-31.38-.31-63.11-4.22-92.82-14.69-3.98-1.45-7.89-2.97-11.7-4.86,0,0,1.2-2.81,1.2-2.81,3.89,1.23,7.86,2.27,11.83,3.22,33.95,7.9,68.99,10.62,103.8,10.08,24.55-.79,48.99-4.52,72.85-10.35,1.98-.47,4.02-1.03,5.94-1.54,0,0,1.28,3.47,1.28,3.47h0Z"/>
          <path class="cls-13" d="m247.67,157.8c-20.3,6.48-41.32,10.37-62.46,12.85-14.1,1.58-28.38,2.38-42.56,2.24-35.37-.27-71.01-3.52-105.28-12.62-4.59-1.26-9.13-2.59-13.59-4.26,0,0,.92-2.91.92-2.91,2.23.5,4.54.98,6.8,1.4,35.51,6.53,71.66,8.85,107.72,9.39,5.73.06,11.7.07,17.41-.04,27.89-.63,55.72-3.61,83.21-8.36,2.29-.39,4.6-.82,6.85-1.25l.97,3.57h0Z"/>
          <path class="cls-13" d="m242.64,169.58c-8.67,2.44-17.42,4.44-26.23,6.27-28.59,5.7-57.8,9.27-87,8.05-6.7-.53-13.42-.67-20.13-1.13-17.9-1.15-35.82-2.98-53.39-6.68-7.72-1.67-15.46-3.57-22.79-6.59-1.01-.42-2.02-.88-2.99-1.4l-.23-.13,1.57-2.62c3.84,2.04,7.99,3.39,12.14,4.68,12.78,3.82,26,5.95,39.22,7.61,35.37,4.25,71.28,4.78,106.56-.69,15.41-2.29,30.72-5.34,45.82-9.19,2.15-.55,4.31-1.13,6.41-1.73l1.04,3.55h0Z"/>
          <path class="cls-8" d="m122.69,233.52c-4.8.65-9.67.62-14.5.52-4.83-.11-9.65-.44-14.47-.85-8.37-.75-16.86-1.86-25.1-3.55,0,0-1.77-.39-1.77-.39-.61-.13-1.14-.43-1.72-.64.6.08,1.2.24,1.77.28l1.8.16c9.66.88,22.7,2.08,32.37,2.93,6.97.58,14.65,1.35,21.61,1.54h0Z"/>
          <path class="cls-8" d="m58.61,225.16c1.95,8.84,3.35,18.16,4.61,27.13,1.2,9.1,2.27,18.21,2.76,27.38-1.96-8.98-3.35-18.04-4.61-27.13-1.17-8.99-2.29-18.34-2.76-27.38h0Z"/>
          <path class="cls-2" d="m62.97,230.39c12.03,2.48,24.26,3.76,36.48,4.63,13.69.93,27.41,1.16,41.12.78,5.89-.14,12.42-.4,18.32-.66,10.59-.53,21.28-1.11,31.7-3.06,6.07-1.06,11.82-3.22,17.85-4.55-4.12,2.2-8.12,4.62-12.42,6.49-13.04,5.61-27.28,7.35-41.28,8.5-27.87,2.03-56.53.49-83.14-8.58-2.93-1.04-5.85-2.17-8.62-3.57h0Z"/>
          <path class="cls-5" d="m245.14,128.23c-2.82-.46-5.74-.48-8.58-.67-2.58-.17-5.16-.35-7.74-.52-6.09-.41-12.17-.82-18.26-1.23-2.6-.17-5.09,2.41-4.97,4.97.04.82.24,1.57.57,2.22-.5.34-.85.91-.82,1.72,0,.22,0,.44,0,.67-1.92.59-3.73,1.61-5.36,2.76-2.72,1.92-5.22,4.35-8.45,5.38-.86.27-1.32.9-1.46,1.59-.09.03-.18.06-.27.1-1.1.45-1.84,1.44-1.52,2.68.27,1.03,1.59,1.96,2.68,1.52,4.21-1.71,9.09-1.46,13.55-1.65,4.83-.2,9.66-.35,14.49-.5,1.78-.05,2.42-1.73,1.94-2.98,5.72-.28,11.41-1.18,16.93-2.67.5-.13.97-.36,1.4-.65,1.15-.11,2.29-.22,3.44-.34,3.25-.34,6.81-.91,7.76-4.68.91-3.63-1.74-7.15-5.32-7.73Z"/>
          <path class="cls-17" d="m169.94,358.55c1.53-.69,2.33-1.52,3.72-.19-1.24.08-2.48.14-3.72.19Zm23.93-3.13c-1.65,1.13-4.21.71-6.37,1.16,1.01-1.58,5.5-1.3,6.37-1.16Zm42.07-175.1c.05-.48.09-.96.14-1.43-4.87.41,29.41-32.55,22.59-29.77-7.54,2.17.34-12.77-8.39-10.59-.69.17-68.57,12.04-68.36,12.72,0,.02.61.54,1.36,1.19,2.48,2.14,4.11,5.12,4.43,8.38.2,1.95-.14,3.2-.99,4.1-.63.66-6.82,25.56-7.26,24.77,0-.01-.17-.68-.17-.7-.09,28.87-2,58.41-1.49,87.36-1.82,25.49,1.27,53.11-8.27,77.17.07-.09.12-.21.22-.27-8.52,5.39-23.87,4.67-30.4,6.04,2.15.33,14.91.39,17.08.35-21.82.35-42.93-.57-64.14-3.78-4.63-.32-18.99-6.23-18.8-.9.06,1.75.33,3.3,1.81,4.62,10.4,9.24,51.71,8.69,59.35,10.02,17.23,2.31,33.42-3.39,50.9-3.84,18.14-4.6,11.03.13,17.79-13.91,1.09-1.77,4.18-2.11,5.47-4.36,4.95-8.6,7.99-20.45,9.03-30.83,6.35-23.3,5.64-47.36,9.52-70.95,2.34-8.84,2.86-17.58,3.57-26.88,2.99-7.86,2.76-17.43,3.8-26.48,0,.02-.01.03-.02.05.48-4.03,1.27-8.36,1.24-12.09Z"/>
          <path class="cls-5" d="m40.77,146.02c4.61.99,9.38,1.37,14.05,2.01,4.8.66,9.59,1.35,14.39,2.02,17.21,2.41,34.31,2.09,51.7,2.13,17.54.04,35.12-.84,52.64-.88,4.52-.01,8.78.11,12.81-1.93,3.88-1.97,7.97.85,11.76,0,7.67-1.73,15.21-2.61,23.06-3.61,5.91-.75,11.02-2.27,16.95-2.71,1.46-.11.76-.4,2.25-.64.17-.83,3.72.42,4.51.06,3.54-1.62,6.41-4.39,10.26-5.03,1.08-.18,2.9,1.31,3.68,2.02.08-.05.16-.1.24-.14-.21-.11-.41-.24-.6-.39-1.62-1.38-2.74-3.22-3.17-5.32,0-.02,0-.03,0-.05-17.86,3.25-64.67,12.62-120.18,12.62-51.68,0-96.21-8.31-116.39-12.02-.59,1.47-1.31,2.87-2.28,4.14-.04.06-.09.11-.13.16,8.26,2.17,16.09,5.76,24.45,7.57Z"/>
          <path class="cls-3" d="m28.9,167.17c-1.12,0-2.7-1.3-4.68-3.87-1.79-2.32-1.76-4.11-1.74-5.69.02-1.13.04-2.2-.61-3.54-.48-.99-1.91-1.6-3.3-2.19-.56-.24-1.15-.49-1.66-.76-4.2-2.24-5.6-5.22-5.15-11.01.18-2.33,2.12-4.1,4.37-6.15.74-.67,1.5-1.37,2.23-2.11l1.33,1.31c-.77.78-1.55,1.49-2.3,2.18-1.96,1.79-3.65,3.33-3.77,4.92-.44,5.65,1.13,7.6,4.17,9.22.44.24.96.46,1.51.69,1.63.69,3.47,1.47,4.25,3.09.84,1.73.81,3.14.79,4.38-.02,1.46-.04,2.72,1.35,4.52,2.07,2.68,3.05,3.09,3.22,3.14h.03s.1,0,.1,0l-.17,1.86.08-.93.1.93c-.05,0-.1,0-.15,0Z"/>
          <path class="cls-3" d="m133.86,360.84c-34.41,0-62.38-7.88-62.66-7.96l.51-1.79c.28.08,28.01,7.89,62.15,7.89s51.42-3,66.68-7.5l.53,1.79c-8.74,2.58-16.82,4.26-26.2,5.45-11.31,1.43-24.72,2.13-41.01,2.13Z"/>
          <circle class="cls-3" cx="175.2" cy="320.03" r="7.84"/>
          <path class="cls-3" d="m22.05,151.67c14.08,3.48,28.55,5.99,42.92,7.95,11.79,1.64,24.32,2.87,36.19,3.68,1.99.11,8.09.44,9.98.57,2.85.11,8.9.32,11.81.43,24.23.56,48.53-.74,72.61-3.42,14.45-1.66,28.9-3.62,43.1-6.78,3.51-.81,7.02-1.68,10.38-2.94,1.03-.39,2.11-.87,2.9-1.51,0,0,1.32,1.32,1.32,1.32-1.02,1.01-2.19,1.53-3.4,2.12-3.4,1.54-6.97,2.62-10.53,3.64-35.56,9.18-72.47,12.83-109.16,12.64-20.69-.2-41.75-1.98-62.17-5.22-7.09-1.14-14.63-2.55-21.64-4.07-5.87-1.32-12.02-2.79-17.81-4.45-2.36-.68-4.7-1.38-7.04-2.16,0,0,.55-1.78.55-1.78h0Z"/>
          <path class="cls-3" d="m26.72,164.04c4.24,1.4,8.65,2.52,13.01,3.56,39.64,9.1,80.67,10.52,121.18,8.52,13.54-.67,27.06-1.77,40.52-3.33,11.2-1.34,22.41-2.86,33.41-5.31,2.09-.52,4.26-.93,6.19-1.85,0,0,1.04,1.55,1.04,1.55-1.05.68-2.22,1.04-3.37,1.45-3.27,1.1-6.6,1.92-9.94,2.71-26.67,5.96-53.99,8.61-81.26,9.62-25.6.9-51.33-.19-76.66-4.11-15.2-2.47-30.34-5.6-44.78-11.07,0,0,.67-1.74.67-1.74h0Z"/>
          <circle class="cls-3" cx="129.68" cy="319.99" r="8.66"/>
          <path class="cls-3" d="m237.65,177.57c-30.05,7.38-60.77,12.33-91.71,13.55-26.52.6-53.22-.79-79.31-5.91-10.88-2.17-21.67-5.01-31.92-9.32-2.07-.91-4.1-1.83-6.06-2.98,0,0,.96-1.6.96-1.6.43.24.93.49,1.41.72,3.44,1.62,7.04,2.95,10.65,4.15,8.3,2.7,16.91,4.72,25.49,6.29,38.94,6.69,78.87,7.23,118.06,2.23,17.43-2.21,34.82-5.17,51.99-8.92,0,0,.45,1.81.45,1.81h0Z"/>
          <path class="cls-3" d="m61.82,229.97c7.39,2.2,15.06,3.43,22.7,4.47,18.33,2.39,36.9,2.66,55.36,2.08,16.91-.7,33.96-1.29,50.65-4.31,6.08-1.09,12.01-2.84,17.91-4.67-1.42.61-2.86,1.2-4.29,1.79-2.87,1.13-5.84,2.25-8.79,3.11-19.45,5.6-39.91,6.55-60.02,7.3-17.06.42-34.29-.43-51.1-3.55,0,0-2.29-.44-2.29-.44l-1.14-.22c-1.01-.22-2.46-.55-3.41-.77-5.26-1.24-10.59-2.68-15.57-4.8h0Z"/>
          <path class="cls-3" d="m262.68,143.16c.03-9.37-10.34-16.16-31.7-20.72-7.95-1.7-17.04-3.03-26.82-4.05.37,1.36.63,2.77.69,4.32.07,1.64-.39,3.27-1.19,4.71,18.9,2.04,32.14,4.95,39.79,7.91,6.48,2.51,10.29,5.47,10.21,7.92v.4s.04.39.04.39c.29,2.02-2.59,4.78-5.56,7.43-2.68,2.4-3.4,4.66-3.98,6.48-.56,1.75-1.13,3.57-4.25,6.97l-1.02,1.11-.21,2.16-.57,1.78c-.55,1.73-1.5,3.31-2.77,4.62-2.62,1.54-3.55,5.45-4.27,8.47-.84,3.54-1.76,8.61-2.82,15.5-1.95,12.73-4.1,30.03-6.38,48.34-2.82,22.71-5.75,46.19-8.79,65.35-4.28,26.99-7.02,33.28-8,34.73-8.1,3.49-9.19,8.96-9.86,12.27-.13.64-.32,1.58-.48,1.87-.02.02-.07.04-.14.07-18.3,6.32-56.02,8.8-74.16,6.4l-.57-.05c-31.17-2.48-39.19-5.51-41.19-6.71l-.42-.25-.46-.15c-.45-.15-.73-.28-.89-.37-.02-.26-.02-.64-.03-.93-.03-2.78-.09-7.93-7.87-11.29-.66-2.63-1.81-10.5-2.83-17.54-2.19-15.06-2.57-17.41-2.87-19.3-.15-.94-.28-1.75-.61-3.97v-.07c-.74-4.44-2.65-15.6-5.07-29.73-5.58-32.58-14-81.76-15.86-94.77-.34-3.94-1.15-6.21-4.55-7.59-.51-.21-.99-.4-2.03-1.58l-.03-.03c-.48-.54-.7-1.76-.86-2.65-.11-.61-.21-1.19-.4-1.77-.74-2.26-2.31-3.09-3.39-3.4-.29-.26-.85-.82-1.71-1.94-.63-.81-.62-1.01-.6-2.28.02-1.39.06-3.49-1.15-5.99-1.37-2.83-4.09-3.99-6.07-4.83-.48-.2-.93-.39-1.23-.56l-.16-.08c-1.76-.85-2.08-1.95-2.17-2.81-.24-2.49,1.59-5.94,4.17-7.87l1-.75.37-.91c.64-.6,5.43-4.19,30.79-7.66,5.64-.77,11.82-1.47,18.4-2.09v-7.08c0-.68.07-1.34.21-1.98-10.34.95-19.71,2.1-27.56,3.39-21.17,3.47-27.29,7.2-29.44,10.53-4.68,3.92-7.44,9.95-6.91,15.31.43,4.42,2.97,7.98,7.15,10.02.63.33,1.25.59,1.86.85.48.2,1.23.52,1.6.75.14.41.14.8.13,1.63-.03,1.84-.07,4.62,2.48,7.93,1.1,1.43,2.42,2.96,3.92,4,.34,1.7,1.01,4.19,2.87,6.27,1.75,1.97,3.22,2.93,4.3,3.47.02.17.04.37.05.59l.03.27c1.84,12.94,10.31,62.42,15.92,95.15,2.41,14.08,4.32,25.2,5.05,29.63.33,2.25.47,3.09.62,4.05.3,1.86.67,4.17,2.85,19.16,1.43,9.85,2.23,15.03,2.87,17.84.7,3.03,1.63,5.02,4.33,6.21.04.02.09.04.14.06l.29.18.34.14c1.99.82,2.41,1.45,2.47,1.57.14.26.15.93.16,1.63.03,2.36.08,7.2,6.63,9.59,5.99,3.27,20.61,5.79,44.66,7.7l.22.02c4.92.64,11.14.96,18,.96,20.02,0,45.51-2.7,60.3-7.84l.19-.07c4.87-1.94,5.7-6.1,6.19-8.58.54-2.68.86-4.3,5.08-5.97l.21-.08.2-.1c3.3-1.7,6.7-5.94,12.04-38.76,3.2-19.7,6.26-44.3,9.22-68.09,2.08-16.68,4.04-32.44,5.83-44.64,2.23-15.17,3.52-19.97,4.11-21.49l.12-.11c2.7-2.46,4.71-5.59,5.82-9.06l.86-2.69.02-.17c3.6-4.22,4.5-7.06,5.17-9.18.44-1.4.55-1.73,1.39-2.48,3.7-3.31,9.26-8.27,8.53-15.04Z"/>
          <path class="cls-3" d="m22.88,137.52h0s0,0,0,0Z"/>
          <circle class="cls-3" cx="123.01" cy="345.66" r="6.75"/>
          <circle class="cls-3" cx="105.23" cy="309.15" r="7.66"/>
          <circle class="cls-3" cx="154.89" cy="318.69" r="8.98"/>
          <circle class="cls-3" cx="108.1" cy="330.39" r="8.98"/>
          <circle class="cls-3" cx="79.51" cy="315.21" r="9.5"/>
          <circle class="cls-3" cx="192.07" cy="309.32" r="9.1"/>
          <rect class="cls-8" x="154.55" y="103.61" width="1.86" height="13.99" transform="translate(-1.25 219.43) rotate(-70.2)"/>
          <rect class="cls-8" x="85" y="109.09" width="12.76" height="1.86" transform="translate(-23.73 25.13) rotate(-13.88)"/>
          <path class="cls-8" d="m226.3,189.34c-.57,3.27-1.01,6.56-1.42,9.86-5.11,42.74-8.62,86.21-18.16,128.25-1.42,5.65-2.81,11.37-5.16,16.73-.36.75-.73,1.51-1.24,2.18.78-1.47,1.2-3.08,1.62-4.68,1.22-4.81,2.05-9.72,2.84-14.62,5.04-32.79,8.42-65.82,13.62-98.6,2.17-13.11,4.13-26.35,7.9-39.12h0Z"/>
          <g>
            <path class="cls-8" d="m145.33,101.37s-.05.05-.08.08c.02-.02.05-.05.08-.08Z"/>
            <path class="cls-8" d="m205.15,130.18c-.3-.45-.48-1.01-.48-1.69v-2.77c-.07.04-.15.09-.22.15-.02,0-.04.02-.06.03.11-.41.2-.83.28-1.25v-5.99s0-.09,0-.14c0-.07,0-.14,0-.22,0-.38.02-.77.05-1.17,0-.02,0-.03-.01-.05-.14-.57-.33-1.13-.51-1.69-.4-1.22-.85-2.44-1.16-3.69-.36-1.49-.52-2.96-.33-4.35-1.39-2.32-3.03-4.48-4.49-6.76-1.08-1.68-2.05-3.47-2.86-5.3-.27-.4-.54-.8-.79-1.22-.54-.9-1-1.82-1.53-2.71-.83-.85-1.72-1.64-2.58-2.46-1.25-1.19-2.35-2.43-3.33-3.79-.36-.35-.69-.72-1.01-1.11-.05-.05-.11-.11-.16-.16-.8-.62-1.61-1.24-2.4-1.87-.58-.43-1.15-.89-1.7-1.35-.03-.03-.07-.05-.1-.08l.07.06c-3.15-2.65-5.9-5.72-9.04-8.39-1.76-1.5-3.53-3.02-5.2-4.62-1.66-1.6-3.09-3.52-4.38-5.48-.65-.74-1.26-1.52-1.83-2.34-.82-.42-1.63-.85-2.45-1.27-.95.03-1.9-.08-2.82-.29-.35-.06-.69-.16-1.02-.28-.61-.2-1.2-.43-1.78-.71-2.43-.33-4.86-.7-7.27-1.14-.04,0-.08-.02-.12-.03-1.78.14-3.55.35-5.31.62-.38.27-.87.44-1.47.44h-6.84c-.65,0-1.18-.2-1.58-.52-1.43.31-2.87.6-4.32.85-.62,0-1.25.01-1.81.29-.59.36-1.15.77-1.69,1.21-.05,0-.1,0-.16.01-2.94.13-5.7,1.21-8.37,2.39-.32-.15-.67-.24-1.04-.26-1.75-.1-.87.48-2.38,1.38l-2.42,1.65c.05,1.2-.2,2.32-.75,3.36-.11.33-.24.64-.39.93-.06.37-.15.75-.27,1.12-.33,1.4-.98,2.63-1.93,3.67-.67,1.03-1.52,1.87-2.57,2.51-.75.7-1.8,1.55-2.43,1.89-.06.03-.13.06-.19.09-.3.13-.61.26-.91.38-.45.53-.9,1.07-1.35,1.62-1.28,1.54-2.6,3.05-3.88,4.59-.17.32-.34.64-.52.95-1.04,1.81-2.27,3.49-3.56,5.13-.06.13-.13.25-.19.38-.99,1.97-2.61,3.43-4.5,4.37-.07.25-.15.51-.24.76-.63,1.8-1.39,3.54-2.18,5.27-.42,1.11-.9,2.2-1.43,3.26-.26.6-.54,1.2-.81,1.8-.19.46-.38.93-.58,1.39-.4,1.06-.8,2.12-1.22,3.17.15-.34.29-.69.44-1.03-.6,1.72-1.31,3.44-2.11,5.08-.39.8-.92,1.54-1.49,2.25-.44.86-.96,1.67-1.56,2.43-.53,4.7-1.4,9.49-.8,14.16.67,5.24,2.72,10.21,3.68,15.4,1.08-.27,2.13-.62,3.2-.96.24-.07.47-.14.71-.21.33.24.77.29,1.16.38.88.15,1.78.14,2.65.29,1.22.13,2.44.33,3.68.27,1.19-.06,2.38-.19,3.56-.02,1.77.28,3.52-.02,5.27-.27.7-.06,1.4-.12,2.09-.2-.04.08-.09.15-.13.23-.27.37-.33.75-.17,1.15.03.04.24.09.26.09.73.22,1.49.12,2.23,0,.38-.06.76-.11,1.15-.17.16,0,.32.02.48.04h.05c.97.18,1.97,0,2.95.13,2.83-.06,5.65.07,8.48.07,2.93.04,5.86-.02,8.76.45,1.67.28,3.35.16,5.04.15,1.7.08,3.39.4,5.1.42,1.34,0,2.67-.08,4.01-.04,1.82.06,3.64.16,5.47.08,1.79,0,3.58.2,5.37.13,1.76.05,3.53.13,5.29.02,2.51,0,5.01.34,7.5.56,1.51.15,3.01.39,4.52.39,1.49-.02,2.98-.06,4.46-.29.87-.18,1.7-.53,2.51-.88.69-.33,1.39-.66,2.1-.94,1.46-.46,2.96-.78,4.36-1.41.65-.29,1.28-.61,1.9-.96.73-.03,1.46-.11,2.08-.54.62-.4,1.22-.86,1.79-1.35.84-.24,1.52-.49,1.61-.53.37-.2.72-.43,1.05-.67.6-.19,1.33-.44,2.34-.82.59-.23,1.2-.52,1.8-.85.14,0,.28-.02.42-.04.25-.06.47-.17.69-.3.04,0,.09,0,.13-.02.04-.01.08-.03.12-.04.18,0,.35,0,.53-.02,0,.12,0,.24.01.35-.45.38-.88.81-1.18,1.33-.06.08-.07.15-.04.24.07.07.16.12.25.16-.75.25-1.56.49-2.21.65-1.22.32-2.43.64-3.67.85.09,0,.19,0,.28,0,1.97.02,3.97-.1,5.88-.6.94-.27,1.96-1.48,2.24-2.06.03-.04.06-.09.09-.14.06-.03.12-.07.18-.1.28,0,.55-.1.81-.29.84-.45,1.63-.97,2.37-1.58,2.05-1.64,3.91-3.51,5.56-5.56.5-.6.97-1.23,1.38-1.9-.07-.11-.12-.23-.16-.36-.28-.99-.22-2.09,0-3.21Zm-43.85,17.44c-.17.52-.35,1.04-.52,1.57-.19.58-.74.9-1.34.76-.55-.13-.94-.8-.76-1.34.17-.52.08,1.96.25,1.44.19-.58,1.04.92,1.64,1.05.55.13.91-4.02.73-3.48Z"/>
            <path class="cls-8" d="m148.59,51.52s-.05-.08-.09-.11c-.3-.11-.62-.1-.91.02-.4.14-.81.26-1.17.48-.06.04-.12.07-.19.11-.06-.49-.49-.78-1.43-.78-.27.03-.55.1-.85.18-.26-.1-.61-.15-1.06-.13-.67.06-1.4.29-2.16.63-.12-.62-.71-.72-1.35-.68-.56.07-1.09.22-1.61.42-.67-.4-1.55-.41-2.3-.21-.06-.12-.22-.15-.53-.02-.3.11-.59.27-.86.45.16-.29.3-.58.4-.9-.04-.13,0-.31-.19-.3-.43-.13-.81.32-1.19.49-.61.44.27-1.51-.29-1.01,0,0-.32.6-.33.6.02-.03-.03.03,0,0,.56-.72.06.28.33-.6-.08-.43-.52-.35-1.1,0,.24-.32.46-.65.65-1,.17-.23.21-.47.11-.73-.33-.13-.64.03-.94.22.24-.52-.13-.84-.71-.45-.06.04-.12.08-.18.11,0-.08-.02-.13-.07-.14.02-.12.02-.25-.03-.38-.09-.03-.18-.05-.27-.05-.13-.82-2.89.32-3.17.58-.01.01.01-.01,0,0-.17.14-.39.82-.47.91.09-.31.31-.03,0,0-1.08.04-1.95.86-2.79,1.46-2.75,2.4-3.73,3.43-7.25,7.31-1.31,1.52-2.6,3.07-3.69,4.76-.28.46-.54.93-.79,1.41-.15.19-.2.38-.14.59.03.02.06.04.09.06-.87,1.2-1.57,2.4-1.39,2.93.17.03.34.1.5-.03.3-.08.56-.24.81-.42.21-.12.43-.24.64-.37.34-.23.68-.48,1-.73.67-.24,1.5-.91,1.83-1.14.19-.16,4.08-2.43,4.24-2.56-.87,1.11-5.49,4.34-6.33,5.47-.92,1.3-.56,1.82.86.86.68-.49,1.31-1.02,1.9-1.57-.08.14-.17.27-.26.41-.17.28-.3.58-.45.87-.15.19-.2.38-.14.59,0,.12.08.16.17.17-.37.55-.73,1.12-.9,1.77-.04.39.02.82.55.53.76-.27,1.37-.83,2.01-1.32.19-.13.39-.28.61-.45,2.92-2.38,5.25-5.38,7.25-8.57,0,.06.02.11.04.16-.05.23-.05.47.06.7.19.15.5.16.74.15.47-.11.89-.32,1.3-.57.08-.02.17-.06.25-.11.29-.1.57-.2.85-.33.04.27.21.47.61.49.23.05.46.05.69.01-.27.64-.39,1.21-.2,1.58,1.22,1.09,4.07-1.03,6.02-2.38,0,0,0,0,.02,0-.04.15-.08.3-.09.45-.06.36.16.32.42.34.14.03.31.06.41.05.57-.1,1.08-.38,1.58-.68-.05.21-.04.4.18.48.21.07.45.15.67.1.03,0,.06-.02.09-.03.15.13.46-.02.77-.09,1.92-.68,3.35-2.28,4.83-3.62,1.63-1.67,3.28-3.38,4.45-5.4.11-.3.5-1.05-.03-1.03Z"/>
          </g>
          <path class="cls-4" d="m74.61,144.23s-.06,0-.07-.02c.26-.25.73-.56,1.22-.88-.39.33-.75.64-1.15.9Z"/>
          <path class="cls-15" d="m74.86,120.74c-3.2,0-3.2,4.97,0,4.97s3.2-4.97,0-4.97Z"/>
          <path class="cls-1" d="m104.3,134.73h0c-.25,0-.51.02-.76.02l-1.85.06h0c-.86.05-1.74.06-2.58.23h0c-3.7.76-7.91,1.4-10.83,3.53h0c-.77.56-1.6,1.55-1.77,2.45h0c-.13.69.19,1.66.6,2.26h0c.56.79,1.61,1.36,2.53,1.77h0c1.26.56,2.72.8,4.11.94h0c1.65.17,3.36.09,5.02-.09h0c1.72-.19,3.47-.5,5.11-1.04h0c1.58-.52,3.19-1.19,4.56-2.11h0c1.17-.79,2.5-1.74,3.14-2.94h0c.42-.79.76-2.05.46-2.8h0c-.37-.94-1.75-1.69-2.8-2.15h0c-1.73-.76-3.83-.9-5.76-1h0c-2.5-.13-5.07.09-7.54.5h0c-2.51.41-5,1.13-7.42,1.96h0c-1.72.59-3.52,1.19-5.05,2.15h0c-.65.41-1.62.93-1.75,1.55h0c-.11.51.38,1.33.8,1.77h0c.76.76,2.03,1.13,3.11,1.45h0c1.58.47,3.29.57,4.94.73h0c.99.1,2,.13,3,.17"/>
          <path class="cls-7" d="m121.01,138.77h-.3c.03-.57.57-1.13.93-1.49.07-.07.13-.13.18-.19l.22.2c-.05.06-.12.12-.19.2-.33.34-.82.84-.84,1.28Z"/>
          <path class="cls-5" d="m203.44,118.31c-3.57-25.8-24.64-40.28-40.79-58.39-1.71-1.52-3.6.11-2.71-2-2.4-1.08-2.39-4.17-6.23-4.39-2.56,1.62-4.53-.82-7.71-.68.06,3.27-1.61-.72-1.5,1.73,2.63,28.25,19.3,14.39,30.04,41.65,5.06,10.29,15.22,50.9-8.98,52.95-.35-.07-.71-.13-1.06-.2-2.26.86-4.47,1.96-6.7,2.95,4.75.26,9.42.48,13.96-.48,5.82-.64,28.4-2.22,29.56-3.27,1.66-7.67,8.49-23.43,2.12-29.89Z"/>
          <path class="cls-5" d="m132.93,152.27c-.3,0-.6,0-.89,0-1.48-.01-2.97-.02-4.45-.03,0,.01,0,.03,0,.04,1.87.09,3.75.22,5.62.41-.1-.13-.19-.26-.27-.42Z"/>
          <path class="cls-3" d="m104.32,108.87c-.74,0-1.45.16-2.12.45.25.78.35,1.61.27,2.46,0,0,0,0,0,0,.39,2.69-.55,6.33-3.16,6.61-.83.09-1.62-.24-2.25-.79-.08.64-.13,1.3-.13,1.98,0,5.92,3.31,10.72,7.39,10.72s7.39-4.8,7.39-10.72-3.31-10.72-7.39-10.72Z"/>
          <path class="cls-3" d="m75.77,150.21c-2.75-7.12-4.14-14.6-4.14-22.25,0-9.57,2.33-18.58,7.13-27.54,4.06-7.59,9.98-15.21,18.07-23.31l2.18-2.12c2.94-2.99,5.92-6.85,9.08-10.94,5.91-7.65,12.02-15.55,19-19.32,1.81-.97,3.68-.61,5,.98,1.59,1.91,3.24,3.13,5.04,3.72.39.13.77.26,1.13.39,1.29.45,2.31.81,3.66.86,1.13.04,2.06,0,2.85-.12,6.22-.94,12.72,1.4,17.4,6.26,4.56,4.74,9.8,9.61,14.87,14.32,4,3.72,7.78,7.23,11.11,10.56l.14.15,1.63,2.01c10.35,13.18,16.7,28.79,17.89,43.94.56,7.15-1.75,15.2-3.53,20.64l-3.75-1.23c2.63-8.02,3.73-14.26,3.35-19.1-1.13-14.38-7.19-29.23-17.05-41.8l-1.53-1.89c-3.26-3.26-6.99-6.72-10.93-10.39-5.11-4.75-10.39-9.66-15.03-14.47-3.79-3.94-9.02-5.85-13.97-5.1-1.04.16-2.18.21-3.57.16-1.96-.06-3.43-.58-4.84-1.08-.34-.12-.69-.24-1.05-.36-2.5-.82-4.8-2.49-6.85-4.95-.02-.02-.03-.04-.05-.05-.01,0-.03.01-.04.02-6.24,3.36-12.1,10.93-17.75,18.26-3.24,4.19-6.29,8.14-9.4,11.3l-.03.03-2.18,2.12c-16.62,16.62-24.03,31.44-24.03,48.05,0,7.16,1.31,14.16,3.88,20.82l-3.68,1.42Z"/>
          <path class="cls-3" d="m121.71,141.29c5.54,13.73,26.85-12.55,15.9-9.09-17.65,5.57-21.43-4.64-15.9,9.09"/>
          <path class="cls-3" d="m23.22,137.83h0s0,0,0,0Z"/>
          <path class="cls-3" d="m152.84,58.2c.44,5.1,6.94,8.94,10.83,11.62,1.55,1.03,3.12,2.04,4.64,3.25.4.32.47.91.15,1.31-.33.42-.97.47-1.36.1-4.58-4.2-14.58-9.41-14.78-16.27,0-.33.5-.35.52-.02h0Z"/>
          <path class="cls-3" d="m146.34,62.11c.64,3.33,1.67,6.77,4.06,9.24,1.83,1.87,4.29,2.88,6.84,3.39,1.19.28.84,2.05-.38,1.83-5.22-1.34-8.77-4.45-10.26-9.69-.46-1.54-.74-3.1-.93-4.67-.05-.43.58-.53.67-.1h0Z"/>
          <path class="cls-3" d="m223.16,144.63c-.35,0-.67-.24-.76-.6-.7-2.94-3.39-5.28-6.39-5.57-3.01-.29-6.09,1.51-7.33,4.26-.18.39-.64.57-1.03.39-.39-.18-.57-.64-.39-1.03,1.5-3.34,5.24-5.52,8.89-5.17,3.65.35,6.91,3.19,7.76,6.76.1.42-.16.84-.58.93-.06.01-.12.02-.18.02Z"/>
          <path class="cls-3" d="m45.77,141.46c-.18,0-.36-.06-.5-.18-.33-.28-.37-.77-.09-1.09,3.01-3.55,7.79-5.64,13.09-5.72,5.32-.09,10.17,1.87,13.3,5.34.29.32.26.81-.06,1.1-.32.29-.81.26-1.1-.06-2.83-3.14-7.24-4.91-12.12-4.83-4.86.07-9.21,1.96-11.93,5.17-.15.18-.37.27-.59.27Z"/>
          <path class="cls-3" d="m224.12,141.52c-.11,0-.22-.02-.33-.07-.39-.18-.56-.64-.38-1.03,1.39-3.01,4.37-5.31,7.96-6.14,3.6-.84,7.28-.09,9.86,2,.33.27.38.76.11,1.09-.27.33-.76.38-1.09.11-2.21-1.79-5.39-2.42-8.53-1.69-3.13.73-5.71,2.7-6.9,5.28-.13.28-.41.45-.71.45Z"/>
          <path class="cls-3" d="m37.72,139.9s-.03,0-.04,0c-.43-.02-.76-.39-.73-.82.13-2.43,1.94-4.57,4.63-5.46,2.69-.89,5.42-.26,6.98,1.61.27.33.23.82-.1,1.09-.33.27-.82.23-1.09-.1-1.14-1.37-3.22-1.82-5.29-1.13-2.08.69-3.48,2.28-3.57,4.07-.02.41-.36.74-.77.74Z"/>
          <path class="cls-3" d="m59.8,133.68c-.16,0-.33-.05-.47-.16-.34-.26-.41-.75-.15-1.09,1.29-1.7,3.36-2.79,5.68-3,2.32-.21,4.55.51,6.11,1.95.31.29.33.78.04,1.1-.29.31-.78.33-1.1.04-1.24-1.15-3.04-1.71-4.92-1.55-1.89.17-3.55,1.04-4.58,2.39-.15.2-.38.31-.62.31Z"/>
          <path class="cls-3" d="m223.83,135.59c-.29,0-.58-.17-.71-.45-.51-1.12-1.75-1.88-3.22-1.99-1.47-.1-2.8.48-3.46,1.51-.23.36-.71.47-1.07.23-.36-.23-.47-.71-.23-1.07.97-1.52,2.84-2.36,4.88-2.22,2.04.14,3.77,1.25,4.52,2.89.18.39,0,.85-.38,1.03-.1.05-.21.07-.32.07Z"/>
          <path class="cls-3" d="m102.58,101.06c-3.48.66-6.38,2.75-8.31,5.67-.84,1.16-2.57-.03-1.79-1.23,1.23-1.52,2.72-2.89,4.45-3.87,1.7-.97,3.59-1.52,5.47-1.73.32-.04.61.2.64.52.03.3-.17.58-.46.64h0Z"/>
          <path class="cls-3" d="m144.44,116.21c7.49-7.08,15.81-7.47,23.45-.35.41.38.44,1.02.06,1.43-.38.42-1.04.44-1.45.04-1.45-1.4-3.05-2.64-4.81-3.53-5.82-3.07-11.73-.71-16.32,3.43-.68.59-1.59-.39-.93-1.03h0Z"/>
          <path class="cls-8" d="m121.49,134.75c4.19,1.1,8.68.69,12.89-.22,1.42-.32,2.83-.72,4.19-1.24.18-.07.38.02.45.2.07.18-.02.37-.19.44-1.38.57-2.8,1.04-4.25,1.42-2.9.75-5.88,1.21-8.89,1.19-1.51-.02-3.03-.15-4.53-.51-.35-.08-.57-.44-.49-.8.09-.36.46-.58.82-.48h0Z"/>
          <path class="cls-3" d="m205.69,120.25c10.91.98,21.8,2.23,32.5,4.71,3.63.88,7.2,1.84,10.64,3.4,3.72,1.63,8.15,5.05,4.52,9.37-2.88,3.04-7.82,4.54-11.7,5.78-10.6,3.06-21.51,4.59-32.42,5.96-25.34,2.93-50.88,3.88-76.37,3.84-29.14-.24-58.38-1.41-87.18-6.18-7.28-1.32-14.5-2.7-21.45-5.45-1.82-.76-3.57-1.57-5.18-2.82-2.17-1.61-3.53-4.41-1.63-6.91,2.32-2.95,6.98-4.39,10.39-5.49,14.11-4,28.74-5.4,43.29-6.65,1.23-.06,1.36,1.7.18,1.86-10.78,1.24-21.56,2.71-32.16,4.97-5.21,1.17-10.45,2.42-15.28,4.62-1.86.89-4.44,2.37-3.95,3.61.15.37.62.9,1.22,1.34,1.3.96,2.87,1.67,4.41,2.27,3.28,1.26,6.75,2.15,10.2,2.94,10.55,2.33,21.32,3.59,32.09,4.67,21.62,2.04,43.36,2.82,65.08,2.89,32.5-.09,65.26-.97,97.33-6.46,5.04-1,18.75-3.59,21.16-7.63.48-.88-.96-1.97-1.7-2.5-3.65-2.34-7.99-3.52-12.17-4.68-10.49-2.68-21.26-4.25-32-5.61-1.21-.18-.99-1.93.19-1.85h0Z"/>
          <path class="cls-14" d="m137.15,138.15c-1.58-.41-3.32-.65-5.15-.65-3.95,0-7.44,1.08-9.8,2.74,2.96,7.51,10.51,2.96,14.95-2.09Z"/>
          <path class="cls-3" d="m144.23,116.52c1.54-2.98,3.85-5.7,6.86-7.27.15-.08.33-.02.41.12.08.14.03.32-.11.4-1.38.85-2.61,1.91-3.62,3.16-1.01,1.24-1.82,2.64-2.5,4.11-.35.71-1.4.19-1.05-.52h0Z"/>
          <path class="cls-8" d="m76.49,106.65c.24-.53.21-.72.42-.84-3.32-8.47-6.54-16.63-9.92-25.04,3.05,8.77,6.14,17.54,9.27,26.31.07-.15.16-.28.23-.43Z"/>
          <path class="cls-3" d="m210.93,356.11l-.21.1-.22.08c-4.35,1.6-4.68,3.15-5.24,5.73-.51,2.39-1.37,6.38-6.39,8.25l-.19.07c-.9.29-1.84.57-2.82.85,26.64-4.9,44.8-11.72,44.14-17.45-.44-3.8-9.07-6.43-22.75-7.62-2.39,7.31-4.38,9.06-6.33,10Z"/>
          <g>
            <path class="cls-3" d="m174.7,338.18c-.33.98-.51,2.04-.51,3.13,0,5.44,4.41,9.86,9.86,9.86s9.86-4.41,9.86-9.86c0-1.48-.33-2.89-.92-4.15l-18.29,1.02Z"/>
            <path class="cls-3" d="m184.05,331.46c-3.18,0-6,1.51-7.81,3.84l14.89-.83c-1.79-1.86-4.3-3.01-7.09-3.01Z"/>
          </g>
          <g>
            <path class="cls-3" d="m161.77,340.28c-1.09.19-2.16.32-3.2.38-.71.04-1.42.06-2.1.06-3.18,0-6.07-.43-8.58-1.29-2.54-.86-4.72-2.17-6.5-3.86-1.67,2.43-2.45,5.54-1.93,8.75,1.04,6.44,6.89,10.85,13.08,9.85,6.18-1,10.36-7.03,9.32-13.46-.02-.14-.05-.28-.08-.42Z"/>
            <path class="cls-3" d="m158.41,337.87c.82-.05,1.66-.14,2.5-.28-2.12-4.68-7.02-7.57-12.14-6.74-2.12.34-4.01,1.28-5.53,2.62,1.5,1.45,3.35,2.56,5.55,3.31,2.73.93,5.93,1.29,9.62,1.08Z"/>
          </g>
          <path class="cls-3" d="m103.35,341.7c-.2.01-.4.03-.61.04l-6.97.39c-1.04,1.19-1.54,2.83-1.21,4.51.56,2.88,3.35,4.75,6.23,4.19,2.88-.56,4.75-3.35,4.19-6.23-.23-1.16-.82-2.15-1.63-2.89Z"/>
          <g>
            <path class="cls-3" d="m75.39,343.05c1.58,1.79,3.97,2.88,6.6,2.75,2.68-.12,5.01-1.48,6.41-3.48l-13,.72Z"/>
            <path class="cls-3" d="m89.79,337.56c-.2-4.34-4.02-7.7-8.53-7.49-4.51.21-8,3.9-7.8,8.24.03.7.16,1.38.37,2.02l15.81-.88c.13-.61.18-1.25.15-1.9Z"/>
          </g>
          <path class="cls-9" d="m112.3,246.69c2.72-.15,5.42-.15,8.09,0,2.68.15,5.21.58,7.59,1.28,2.37.7,4.53,1.7,6.45,3,1.92,1.31,3.46,3.03,4.61,5.18l1.49,1.74c.45.54.86,1.13,1.23,1.76,6.98-6.31,11.36-15.43,11.36-25.58,0-19.05-15.44-34.49-34.49-34.49s-34.49,15.44-34.49,34.49c0,4.99,1.06,9.74,2.97,14.02l25.19-1.4Z"/>
          <path class="cls-3" d="m276.86,210.01c.46,3.13.43,6.59-.08,10.38l-5.91,42.14-11.52.64c-.71-.63-1.45-1.21-2.24-1.75-1.26-.85-2.62-1.57-4.08-2.18-.86-.35-1.75-.67-2.67-.94-2.15-.64-4.47-1.08-6.95-1.29-.71-.06-1.43-.11-2.16-.13s-1.48-.04-2.23-.03c-.76,0-1.52.03-2.3.07h-.1c-3.88.23-7.59.87-11.09,1.92-1.16.35-2.3.74-3.42,1.18-.85.33-1.68.7-2.5,1.09-.54.26-1.08.53-1.61.81-.18.1-.35.2-.53.3-.61-.51-1.17-1.07-1.68-1.69l-1.57-1.9c-2.26-1.76-3.82-4.16-4.68-7.21-.29-1.02-.49-2.11-.61-3.28-2.16,4.07-4.68,7.54-7.55,10.41-2.27,2.26-4.67,4.14-7.21,5.65-.46-.29-.94-.56-1.44-.83-.52-.28-1.06-.54-1.62-.79-.02,0-.04-.02-.06-.03-1.59-.7-3.4-1.24-5.41-1.63-1.67-.32-3.49-.53-5.45-.63-1.96-.1-4.05-.09-6.28.04h-.14c-.3.02-.59.04-.89.07-2.09.16-4.21.47-6.35.91-1.88.39-3.76.85-5.62,1.38-.55.15-1.1.31-1.64.48-1.49.45-2.96.96-4.4,1.49-.86.32-1.72.65-2.56,1-2.19.9-4.29,1.85-6.24,2.81l-.21.11-.47.23-.36-.38c-.03-.18-.05-.37-.08-.55-.06-.35-.13-.69-.21-1.02-.12-.53-.26-1.03-.41-1.53-.13-.44-.27-.87-.43-1.28-.26-.71-.56-1.4-.88-2.05l1.01-7.23c-.9,1.5-1.88,2.9-2.93,4.21-.06-.07-.11-.15-.17-.22l-1.15-1.8c-1-1.54-1.87-2.34-3.16-3.71-.45-.47-.96-.89-1.48-1.28-.26-.2-.53-.39-.8-.57,0,0-.01,0-.02-.01,1.5-1.89,2.83-4.01,3.98-6.37,1.82-3.75,3.08-8.14,3.78-13.15.7-5.02.65-9.33-.14-12.93-.79-3.61-2.22-6.57-4.27-8.89-2.06-2.32-4.68-3.98-7.87-5-3.19-1.01-6.86-1.4-11.01-1.17s-8,1.04-11.54,2.43c-3.55,1.39-6.69,3.37-9.42,5.96-2.73,2.59-5.01,5.75-6.83,9.51-1.82,3.75-3.08,8.14-3.78,13.15-.7,5.02-.66,9.33.1,12.94,0,.04.02.08.03.13l-11.52.64-2.42,17.37c-.89.76-1.81,1.47-2.77,2.12-3.42,2.29-7.18,3.95-11.29,4.98-4.1,1.03-8.23,1.66-12.39,1.89l-33.28,1.85-3.52-3.7,12.13-86.96,32.82-1.82c2.72-.15,5.42-.15,8.1,0s5.21.58,7.59,1.28c2.38.7,4.53,1.7,6.45,3,1.92,1.31,3.46,3.03,4.61,5.18l1.49,1.74c1.54,1.85,2.64,4.2,3.28,7.04s.67,6.27.07,10.28c-.41,2.73-1.13,5.32-2.15,7.75-1.02,2.44-2.32,4.67-3.91,6.69.78.98,1.44,2.05,2.01,3.22.86-4.06,2.09-7.75,3.68-11.05,2.19-4.52,4.92-8.32,8.19-11.41,3.27-3.09,7.03-5.47,11.28-7.14,4.25-1.67,8.86-2.65,13.83-2.93,5.89-.33,10.97.39,15.23,2.14,4.26,1.75,7.51,4.64,9.74,8.67l1.15,1.26c1.53,1.86,2.73,4.06,3.62,6.6l5.28-37.88,31.52-1.75,3.01,4.23-1.83,12.88,1.54-.09c4.35-.24,8.16.5,11.42,2.23s5.85,4.31,7.79,7.74l.99,1.19c2.37,2.86,4.02,6.46,4.96,10.8.67,3.14.89,6.62.66,10.45.74-1,1.55-1.95,2.43-2.86l3.39-24.92c1.9-.94,3.93-1.85,6.09-2.74,2.16-.89,4.4-1.7,6.73-2.41,2.32-.71,4.67-1.31,7.03-1.8s4.7-.8,7-.93c6.76-.38,12.09.3,15.99,2.01,3.9,1.72,6.71,4.14,8.42,7.25l1.49,1.74c1.93,2.33,3.12,5.06,3.58,8.18Zm-8.46,6.69c.4-3.01.37-5.8-.08-8.38-.45-2.57-1.51-4.77-3.18-6.58-1.67-1.81-4.01-3.18-7.01-4.09-3.01-.91-6.87-1.24-11.58-.97-4.15.23-8.07.9-11.76,2.02-3.69,1.12-6.81,2.3-9.36,3.55l-2.58,18.73c1.09-.67,2.38-1.32,3.86-1.96,1.48-.63,3.03-1.22,4.65-1.75,1.61-.53,3.23-.98,4.86-1.35,1.63-.37,3.18-.59,4.67-.67,2.15-.12,3.66-.02,4.53.29.86.31,1.31.77,1.35,1.38-4.39.52-8.43,1.35-12.12,2.5-3.69,1.15-6.95,2.64-9.77,4.48-2.83,1.85-5.13,4.1-6.91,6.77-1.78,2.67-2.91,5.76-3.38,9.27-.4,2.96-.35,5.49.16,7.63.5,2.13,1.41,3.87,2.72,5.24,1.31,1.37,2.98,2.35,5.02,2.96s4.39.83,7.05.69c2.15-.12,4.38-.6,6.67-1.45,2.29-.85,4.52-2.08,6.69-3.69l2.09,2.95,18.29-1.02,5.14-36.54Zm-62.55,10.7c.58-4.35.58-8.26,0-11.74-.58-3.48-1.65-6.41-3.23-8.78-1.57-2.37-3.6-4.17-6.08-5.39-2.48-1.22-5.31-1.74-8.49-1.56-2.26.13-4.25.47-6,1.04-1.74.57-3.38,1.28-4.93,2.14l2.83-19.9-20.75,1.16-10.54,75.26,15.14-.84,2.56-3.87c1.26,1.37,2.82,2.44,4.69,3.23,1.86.78,4.08,1.1,6.64.96,2.97-.16,5.99-.96,9.05-2.37,3.05-1.41,5.89-3.45,8.49-6.11,2.6-2.66,4.85-5.93,6.74-9.79,1.89-3.87,3.19-8.34,3.88-13.41Zm-127.54-18.22c.58-4.29.28-7.73-.92-10.32-1.2-2.59-2.98-4.55-5.34-5.88-2.36-1.33-5.11-2.18-8.24-2.53s-6.31-.44-9.54-.26l-27.44,1.53-10.54,75.26,28.21-1.57c3.48-.19,6.96-.71,10.44-1.54s6.65-2.18,9.53-4.06c2.88-1.88,5.34-4.33,7.38-7.38,2.04-3.05,3.39-6.91,4.06-11.59.59-4.12.29-7.51-.91-10.15s-3.03-4.73-5.48-6.25c2.36-1.95,4.3-4.19,5.84-6.71,1.53-2.52,2.51-5.37,2.96-8.55Z"/>
          <path class="cls-9" d="m268.32,208.32c.45,2.58.48,5.37.08,8.38l-5.14,36.54-18.29,1.02-2.09-2.95c-2.17,1.61-4.4,2.84-6.69,3.69-2.29.85-4.52,1.33-6.67,1.45-2.66.15-5.02-.08-7.05-.69s-3.71-1.59-5.02-2.96c-1.31-1.36-2.22-3.11-2.72-5.24-.5-2.13-.56-4.67-.16-7.63.47-3.51,1.6-6.6,3.38-9.27,1.78-2.67,4.08-4.93,6.91-6.77,2.83-1.84,6.08-3.34,9.77-4.48,3.69-1.14,7.73-1.98,12.12-2.5-.03-.61-.48-1.07-1.35-1.38-.87-.31-2.38-.41-4.53-.29-1.49.08-3.04.31-4.67.67-1.63.37-3.24.82-4.86,1.35-1.62.53-3.17,1.12-4.65,1.75-1.48.64-2.77,1.29-3.86,1.96l2.58-18.73c2.55-1.25,5.67-2.43,9.36-3.55,3.69-1.12,7.61-1.79,11.76-2.02,4.71-.26,8.57.06,11.58.97,3,.91,5.34,2.27,7.01,4.09,1.67,1.82,2.73,4.01,3.18,6.58Zm-24.06,26.31l.39-2.68c-2.26.13-4.21.5-5.88,1.12-1.66.62-2.6,1.71-2.82,3.27-.15,1,.07,1.72.66,2.16.59.44,1.4.63,2.42.57.97-.05,1.95-.37,2.91-.95.97-.58,1.59-1.26,1.85-2.05.28-.57.43-1.05.46-1.44Z"/>
          <path class="cls-3" d="m267.47,281.65c.85,4.24.87,9.23.06,14.97-.85,5.97-2.35,11.18-4.49,15.64-2.14,4.46-4.84,8.22-8.09,11.28-3.25,3.05-6.99,5.41-11.21,7.05-4.22,1.64-8.8,2.6-13.72,2.88-5.12.28-9.62-.21-13.5-1.49-3.88-1.28-7.05-3.4-9.53-6.36l-1.25-1.59c-2.55-2.2-4.47-5.06-5.75-8.58l-2.63,18.75-25.83,1.44-1.16-1.43c-1.99,1.05-4.01,1.87-6.03,2.45-2.03.58-3.99.93-5.88,1.03-3.69.2-6.9-.16-9.62-1.08-2.72-.93-4.91-2.4-6.57-4.4l-1.57-1.9c-2.26-1.76-3.82-4.16-4.68-7.21-.09-.33-.18-.67-.25-1.01-.26.47-.53.92-.81,1.36-2.43,3.81-5.36,6.86-8.78,9.16-3.42,2.29-7.18,3.95-11.29,4.98-4.1,1.03-8.23,1.66-12.38,1.89l-33.28,1.85-3.52-3.7,12.13-86.96,32.82-1.82c2.72-.15,5.42-.15,8.09,0,2.68.15,5.21.58,7.59,1.28,2.37.7,4.53,1.7,6.45,3,1.92,1.31,2.79,2.29,4.78,4.63l1.64,2.4c1.54,1.85,2.31,4.08,2.96,6.93.64,2.84.67,6.27.07,10.28-.41,2.73-1.13,5.32-2.15,7.75s-2.32,4.66-3.91,6.69c1.6,2.01,2.75,4.44,3.45,7.27.08.34.16.69.22,1.04,1.08-1.72,2.33-3.33,3.77-4.83l3.4-24.92c1.9-.94,3.93-1.85,6.09-2.74,2.16-.89,4.4-1.7,6.73-2.41,2.32-.71,4.67-1.31,7.04-1.8,2.36-.49,4.7-.8,7-.93,6.76-.38,12.09.3,15.99,2.01,3.9,1.72,6.71,4.14,8.42,7.25l1.49,1.74c1.76,2.13,2.91,4.59,3.44,7.38.05-.11.1-.21.15-.32,2.19-4.52,4.92-8.32,8.19-11.41s7.04-5.46,11.29-7.14c4.25-1.67,8.86-2.65,13.83-2.93,5.89-.33,10.97.39,15.23,2.14s7.5,4.65,9.73,8.67l1.15,1.26c2.26,2.75,3.82,6.25,4.67,10.48Zm-8.32,11.29c.7-5.02.65-9.33-.14-12.93-.79-3.61-2.22-6.57-4.27-8.89-2.06-2.32-4.68-3.98-7.87-5-3.19-1.01-6.86-1.4-11.01-1.17-4.15.23-8,1.04-11.55,2.42-3.55,1.39-6.69,3.37-9.42,5.96-2.73,2.59-5.01,5.75-6.83,9.51-1.82,3.75-3.08,8.14-3.78,13.15-.7,5.02-.66,9.33.1,12.94.76,3.61,2.18,6.56,4.23,8.85,2.05,2.29,4.69,3.94,7.91,4.95,3.22,1.01,6.9,1.4,11.05,1.17,4.15-.23,8-1.04,11.55-2.43,3.55-1.39,6.69-3.36,9.42-5.92,2.74-2.56,5.02-5.71,6.84-9.47,1.82-3.75,3.08-8.14,3.78-13.15Zm-64.25-4.56c.4-3.01.37-5.8-.08-8.37-.45-2.57-1.51-4.77-3.18-6.58s-4.01-3.18-7.01-4.09c-3-.91-6.87-1.24-11.58-.98-4.15.23-8.07.91-11.76,2.03-3.69,1.12-6.81,2.3-9.36,3.55l-2.59,18.73c1.09-.67,2.38-1.32,3.86-1.95,1.48-.63,3.03-1.22,4.65-1.75,1.62-.53,3.23-.98,4.86-1.35,1.62-.37,3.18-.59,4.66-.67,2.15-.12,3.66-.02,4.53.29.87.31,1.31.77,1.35,1.38-4.39.52-8.43,1.35-12.12,2.5-3.69,1.15-6.95,2.64-9.78,4.48-2.83,1.85-5.13,4.1-6.91,6.77-1.78,2.67-2.9,5.76-3.38,9.28-.4,2.96-.35,5.49.16,7.62.5,2.13,1.41,3.88,2.72,5.25,1.31,1.36,2.98,2.35,5.02,2.96,2.04.61,4.39.83,7.05.69,2.15-.12,4.37-.6,6.67-1.45,2.29-.85,4.52-2.08,6.7-3.69l2.09,2.95,18.29-1.02,5.14-36.55Zm-61.04-14.69c.58-4.29.28-7.73-.92-10.32s-2.98-4.55-5.34-5.89c-2.36-1.33-5.11-2.18-8.23-2.53-3.13-.35-6.31-.44-9.54-.26l-27.44,1.52-10.54,75.26,28.21-1.57c3.48-.2,6.96-.71,10.44-1.54,3.47-.83,6.65-2.18,9.53-4.06,2.87-1.87,5.34-4.33,7.38-7.38,2.04-3.05,3.39-6.91,4.06-11.59.59-4.13.29-7.51-.91-10.16-1.2-2.64-3.03-4.73-5.48-6.25,2.36-1.95,4.3-4.19,5.83-6.71s2.52-5.37,2.96-8.55Z"/>
          <path class="cls-9" d="m259.01,280.01c.79,3.6.84,7.92.14,12.93-.7,5.02-1.96,9.4-3.78,13.15-1.82,3.75-4.1,6.91-6.84,9.47-2.73,2.56-5.88,4.53-9.42,5.92-3.55,1.39-7.4,2.2-11.55,2.43-4.15.23-7.84-.16-11.05-1.17-3.22-1.01-5.85-2.66-7.91-4.95-2.05-2.29-3.46-5.24-4.23-8.85-.77-3.61-.8-7.92-.1-12.94.7-5.02,1.95-9.4,3.78-13.15,1.82-3.75,4.1-6.92,6.83-9.51,2.73-2.59,5.88-4.57,9.42-5.96,3.55-1.39,7.4-2.19,11.55-2.42,4.15-.23,7.82.16,11.01,1.17,3.19,1.01,5.82,2.68,7.87,5,2.06,2.32,3.48,5.28,4.27,8.89Zm-20.92,14.11c.9-6.85-.75-10.16-4.94-9.93-4.31.24-6.91,3.78-7.82,10.64-.3,1.95-.39,3.58-.27,4.87.12,1.29.41,2.32.86,3.06.45.75,1.05,1.27,1.78,1.56.74.29,1.59.41,2.57.35,1.95-.11,3.6-.92,4.95-2.43,1.35-1.51,2.31-4.22,2.86-8.12Z"/>
          <path class="cls-3" d="m244.65,231.96l-.39,2.68c-.03.39-.18.87-.46,1.44-.26.79-.88,1.47-1.85,2.05-.97.58-1.94.89-2.91.95-1.03.06-1.83-.13-2.42-.57-.59-.44-.81-1.16-.66-2.16.22-1.56,1.17-2.65,2.82-3.27,1.66-.62,3.62-.99,5.88-1.12Z"/>
          <path class="cls-3" d="m233.15,284.19c4.2-.23,5.85,3.08,4.94,9.93-.55,3.9-1.51,6.61-2.86,8.12-1.35,1.51-3.01,2.32-4.95,2.43-.98.05-1.83-.07-2.57-.35-.74-.29-1.33-.81-1.78-1.56-.45-.75-.74-1.77-.86-3.06-.12-1.29-.04-2.91.27-4.87.9-6.85,3.51-10.4,7.82-10.64Z"/>
          <path class="cls-9" d="m205.85,215.66c.58,3.48.58,7.39,0,11.74-.7,5.07-1.99,9.54-3.88,13.41-1.9,3.87-4.14,7.13-6.74,9.79-2.6,2.66-5.43,4.7-8.49,6.11-3.06,1.41-6.08,2.21-9.05,2.37-2.56.14-4.78-.18-6.64-.96-1.87-.78-3.43-1.86-4.69-3.23l-2.56,3.87-15.14.84,10.54-75.26,20.75-1.16-2.83,19.9c1.55-.86,3.19-1.57,4.93-2.14,1.74-.57,3.74-.91,6-1.04,3.18-.18,6.01.34,8.49,1.56,2.48,1.22,4.51,3.01,6.08,5.39,1.57,2.37,2.65,5.3,3.23,8.78Zm-20.88,13.48c.36-2.73.16-4.98-.61-6.77s-2.25-2.61-4.46-2.49c-.82.05-1.73.36-2.72.94-1,.58-1.95,1.45-2.86,2.61l-1.82,13.04c.46.86,1.06,1.56,1.81,2.1.75.54,1.71.77,2.89.71,2-.11,3.68-1.05,5.05-2.81,1.37-1.76,2.27-4.2,2.72-7.33Z"/>
          <path class="cls-9" d="m194.82,280.01c.45,2.58.48,5.37.08,8.37l-5.14,36.55-18.29,1.02-2.09-2.95c-2.18,1.61-4.41,2.84-6.7,3.69-2.29.85-4.51,1.33-6.67,1.45-2.67.15-5.02-.08-7.05-.69-2.04-.61-3.71-1.59-5.02-2.96-1.31-1.37-2.22-3.11-2.72-5.25-.5-2.13-.56-4.67-.16-7.62.48-3.51,1.6-6.6,3.38-9.28,1.78-2.67,4.08-4.93,6.91-6.77,2.83-1.84,6.08-3.34,9.78-4.48,3.69-1.14,7.73-1.98,12.12-2.5-.03-.61-.48-1.07-1.35-1.38-.86-.31-2.37-.41-4.53-.29-1.49.08-3.04.31-4.66.67-1.63.37-3.24.82-4.86,1.35-1.62.53-3.16,1.12-4.65,1.75-1.48.63-2.77,1.29-3.86,1.95l2.59-18.73c2.55-1.25,5.67-2.43,9.36-3.55,3.69-1.12,7.61-1.79,11.76-2.03,4.71-.26,8.58.06,11.58.98,3.01.91,5.34,2.27,7.01,4.09s2.73,4.01,3.18,6.58Zm-24.05,26.31l.39-2.68c-2.25.13-4.21.5-5.87,1.12s-2.6,1.71-2.82,3.27c-.15,1,.07,1.72.66,2.16.59.44,1.4.63,2.42.57.97-.05,1.95-.37,2.91-.95.97-.58,1.59-1.26,1.86-2.05.28-.57.43-1.05.46-1.44Z"/>
          <path class="cls-3" d="m184.37,222.37c.77,1.78.97,4.04.61,6.77-.44,3.12-1.35,5.57-2.72,7.33-1.37,1.77-3.05,2.7-5.05,2.81-1.18.07-2.14-.17-2.89-.71-.75-.54-1.35-1.24-1.81-2.1l1.82-13.04c.91-1.16,1.86-2.03,2.86-2.61.99-.58,1.9-.89,2.72-.94,2.2-.12,3.69.71,4.46,2.49Z"/>
          <path class="cls-3" d="m171.16,303.65l-.39,2.68c-.03.39-.18.87-.46,1.44-.26.79-.88,1.47-1.86,2.05-.97.58-1.94.9-2.91.95-1.03.06-1.84-.13-2.42-.57-.59-.44-.81-1.16-.66-2.16.22-1.56,1.16-2.65,2.82-3.27s3.62-.99,5.87-1.12Z"/>
          <path class="cls-9" d="m132.95,263.37c1.2,2.59,1.5,6.03.92,10.32-.44,3.18-1.42,6.03-2.96,8.55s-3.47,4.76-5.83,6.71c2.45,1.52,4.28,3.61,5.48,6.25,1.2,2.64,1.5,6.03.91,10.16-.66,4.68-2.02,8.55-4.06,11.59-2.04,3.04-4.5,5.5-7.38,7.38-2.88,1.87-6.05,3.23-9.53,4.06-3.48.83-6.95,1.34-10.44,1.54l-28.21,1.57,10.54-75.26,27.44-1.52c3.23-.18,6.41-.09,9.54.26,3.13.35,5.87,1.19,8.23,2.53,2.36,1.34,4.14,3.3,5.34,5.89Zm-19.95,14.88c.18-1.34-.11-2.23-.88-2.69-.77-.45-2.03-.63-3.77-.54l-8.38.47-.99,7.19,8.37-.47c1.59-.09,2.87-.37,3.85-.84.98-.47,1.57-1.51,1.79-3.13Zm-1.58,27.05c.22-1.62-.16-2.62-1.13-3-.98-.39-2.36-.53-4.15-.44l-9.92.55-1.11,7.86,9.92-.55c1.59-.09,2.97-.37,4.15-.85,1.18-.48,1.93-1.67,2.23-3.57Z"/>
          <path class="cls-3" d="m116.1,223.09c4.2-.24,5.85,3.08,4.95,9.93-.56,3.9-1.51,6.61-2.87,8.13s-3.01,2.32-4.95,2.43c-.98.06-1.83-.06-2.56-.35-.74-.29-1.33-.81-1.78-1.56-.45-.75-.74-1.77-.86-3.06-.12-1.29-.03-2.91.27-4.87.9-6.85,3.51-10.4,7.82-10.64Z"/>
          <path class="cls-3" d="m112.12,275.57c.77.45,1.06,1.35.88,2.69-.22,1.62-.82,2.66-1.79,3.13-.98.47-2.26.75-3.85.84l-8.37.47.99-7.19,8.38-.47c1.74-.1,3,.08,3.77.54Z"/>
          <path class="cls-3" d="m110.29,302.3c.97.39,1.35,1.39,1.13,3-.3,1.9-1.05,3.09-2.23,3.57-1.18.48-2.56.77-4.15.85l-9.92.55,1.11-7.86,9.92-.55c1.79-.1,3.18.05,4.15.44Z"/>
          <path class="cls-9" d="m77.39,198.86c1.2,2.59,1.5,6.03.92,10.32-.44,3.18-1.43,6.03-2.96,8.55-1.53,2.52-3.48,4.76-5.84,6.71,2.45,1.53,4.28,3.61,5.48,6.25s1.5,6.03.91,10.15c-.66,4.69-2.02,8.55-4.06,11.59-2.04,3.05-4.5,5.5-7.38,7.38-2.88,1.87-6.05,3.23-9.53,4.06s-6.95,1.34-10.44,1.54l-28.21,1.57,10.54-75.26,27.44-1.53c3.23-.18,6.41-.09,9.54.26s5.87,1.2,8.24,2.53c2.36,1.33,4.14,3.29,5.34,5.88Zm-19.95,14.88c.18-1.34-.11-2.23-.88-2.69-.77-.45-2.03-.63-3.77-.54l-8.38.47-.99,7.19,8.38-.47c1.59-.09,2.87-.37,3.85-.84s1.58-1.51,1.79-3.13Zm-1.58,27.05c.22-1.62-.16-2.62-1.13-3-.98-.39-2.36-.53-4.15-.44l-9.91.55-1.11,7.86,9.92-.55c1.59-.09,2.97-.37,4.15-.85,1.18-.48,1.92-1.67,2.23-3.57Z"/>
          <path class="cls-3" d="m49.12,325.23l11.89,15.55-27.58,1.53-1.52-1.8c-1.91.97-3.92,1.72-6.04,2.27s-4.04.87-5.79.97c-3.26.18-6.07-.21-8.41-1.18-2.34-.97-4.26-2.35-5.74-4.15l-.94-1.12c-1.95-1.77-3.34-3.93-4.15-6.49-.81-2.56-1.03-5.35-.66-8.39.4-3.27,1.27-6.19,2.62-8.75,1.35-2.56,3.09-4.88,5.23-6.96-.52-2.12-.65-4.44-.39-6.96.24-2.24.89-4.53,1.96-6.86,1.07-2.33,2.51-4.45,4.31-6.37,1.81-1.92,3.96-3.52,6.47-4.79,2.51-1.27,5.36-2,8.56-2.18,3.19-.18,5.97.3,8.35,1.44s4.19,2.85,5.44,5.13l.99,1.12c1.14,1.43,1.96,3.12,2.47,5.09.51,1.97.63,4.19.37,6.67-.23,1.19-.49,2.32-.8,3.39l10.12-.56,2.08,3c-1.49,4.59-3,8.6-4.52,12.03-1.52,3.43-2.96,6.22-4.33,8.37Zm1.6,9.25l-8.59-11.27c1.59-2.09,3.11-4.54,4.56-7.36,1.44-2.82,2.76-6.03,3.94-9.61l-12.46.69c-.38,1-.89,2.08-1.54,3.23s-1.29,2.22-1.92,3.19l-2.77-3.78c2.41-1.7,4.38-3.63,5.9-5.79,1.52-2.16,2.44-4.6,2.76-7.32.25-2.09.11-3.95-.39-5.58-.51-1.63-1.31-3-2.38-4.1-1.08-1.1-2.42-1.91-4.04-2.45-1.61-.53-3.42-.75-5.41-.64-2.5.14-4.75.71-6.76,1.7-2,.99-3.71,2.23-5.14,3.72s-2.56,3.13-3.41,4.92c-.85,1.79-1.38,3.57-1.61,5.34-.14,1.5-.09,2.91.13,4.25.22,1.34.58,2.62,1.09,3.84-2.38,1.78-4.32,3.87-5.82,6.28-1.5,2.41-2.46,5.22-2.86,8.41-.25,2.09-.13,4.07.36,5.94s1.34,3.49,2.56,4.85,2.79,2.41,4.7,3.14,4.16,1.03,6.73.89c1.92-.11,4.02-.5,6.29-1.17s4.37-1.69,6.3-3.05l2.17,2.7,17.63-.98Z"/>
          <path class="cls-3" d="m56.56,211.05c.77.46,1.07,1.35.88,2.69-.22,1.62-.82,2.66-1.79,3.13s-2.26.75-3.85.84l-8.38.47.99-7.19,8.38-.47c1.74-.1,3,.08,3.77.54Z"/>
          <path class="cls-3" d="m54.73,237.79c.97.39,1.35,1.39,1.13,3-.31,1.9-1.05,3.09-2.23,3.57-1.18.48-2.57.77-4.15.85l-9.92.55,1.11-7.86,9.91-.55c1.79-.1,3.18.05,4.15.44Z"/>
          <g>
            <rect class="cls-3" x="17.29" y="288.55" width="12.63" height="42" transform="translate(89.78 6.23) rotate(16.67)"/>
            <path class="cls-9" d="m42.13,323.21l8.59,11.27-17.63.98-2.17-2.7c-1.93,1.36-4.02,2.38-6.3,3.05s-4.37,1.06-6.29,1.17c-2.57.14-4.82-.15-6.73-.89s-3.48-1.78-4.7-3.14-2.08-2.98-2.56-4.85-.6-3.85-.36-5.94c.4-3.19,1.36-6,2.86-8.41,1.5-2.41,3.44-4.51,5.82-6.28-.5-1.22-.87-2.51-1.09-3.84-.22-1.34-.26-2.75-.13-4.25.23-1.77.76-3.55,1.61-5.34.85-1.79,1.98-3.43,3.41-4.92s3.14-2.73,5.14-3.72c2-.99,4.25-1.56,6.76-1.7,1.99-.11,3.8.11,5.41.64,1.61.54,2.96,1.35,4.04,2.45,1.08,1.09,1.87,2.46,2.38,4.1.51,1.63.64,3.5.39,5.58-.32,2.72-1.24,5.16-2.76,7.32-1.52,2.16-3.48,4.09-5.9,5.79l2.77,3.78c.64-.97,1.28-2.04,1.92-3.19s1.16-2.23,1.54-3.23l12.46-.69c-1.18,3.59-2.5,6.8-3.94,9.61-1.44,2.82-2.96,5.27-4.56,7.36Zm-13.73-26.01c.08-.63,0-1.17-.25-1.63-.25-.46-.73-.66-1.45-.63-.65.04-1.18.31-1.59.82-.41.51-.65,1.1-.72,1.77-.14,1.34.18,2.65.98,3.94.94-.83,1.65-1.58,2.14-2.23.49-.66.79-1.34.89-2.05Zm-3.97,26.64l-5.48-7.27c-.27.45-.54.93-.82,1.45-.28.53-.44,1.04-.48,1.55-.12,1.07,0,1.93.36,2.59.37.66.89,1.16,1.56,1.5.67.34,1.44.51,2.29.52.86.01,1.72-.1,2.57-.35Z"/>
          </g>
        </g>
      </g>
    </g>
  </g>
</svg>