<?xml version="1.0" encoding="UTF-8"?>
<svg id="Layer_1" xmlns="http://www.w3.org/2000/svg" version="1.1" viewBox="0 0 302.67 204.35">
  <!-- Generator: Adobe Illustrator 29.6.1, SVG Export Plug-In . SVG Version: 2.1.1 Build 9)  -->
  <defs>
    <style>
      .st0 {
        fill: none;
      }

      .st1 {
        fill: #fffff3;
      }

      .st2 {
        fill: #ffe376;
      }

      .st3 {
        fill: #f08858;
        isolation: isolate;
        opacity: .48;
      }

      .st4 {
        fill: #ec608d;
      }

      .st5 {
        fill: #fdfae2;
      }
    </style>
  </defs>
  <path class="st5" d="M86.73,101.62c.58,0,1.16-1,1.73-1-.58,0-1.16,1-1.73,1h0Z"/>
  <path class="st0" d="M212.3,64.27h0s-.09.03-.14.04l-.34.09-.32.09-.96.33-1.15.42-.9.32-.78.27-.71.29-.58.22-.51.19-.52.2-.48.19-.53.21-.61.25-.58.23-.56.21-.57.19-.55.15-.49.12-.46.12-.45.13-.44.14-.44.14-.41.13-.44.12-.46.11-.45.1-.51.09-.54.1-.59.1-.66.11-.73.15-.76.13-.82.14-.83.13-.78.11-.71.11-.67.09-.66.08-.77.07-.83.05-.78.04-.71.03-.64.04-.64.03-.66.05-.66.06-.66.07-.6.07-.57.08-.55.1-.56.1-.61.12-.62.11-.56.11-.52.09-.52.08-.55.09-.61.11-.62.11-.63.11-.62.11-.63.11-.65.1-.7.1-.76.12-.84.11-.92.15h0c-.3.05-.61.11-.91.15h0c-.29.04-.59.05-.89.07l-.85.04-.86.04-.92.04-.95.05-.96.07-1.04.08-1.02.07h0c-.3.02-.6.04-.9.04h0c-.24,0-.47,0-.71-.03h0c-.16,0-.32-.04-.47-.06"/>
  <path class="st2" d="M194.64,12.78c-1.35-.26-2.73.08-3.96.63-2.48,1.11-4.6,2.96-6.44,4.92-.32.34-2.11,2.5-.84,2.67,1.09.14,2.22-.16,3.2-.63,1.88-.89,3.7-2.23,5.13-3.73.32-.33,3.29-3.3,1.69-3.56-.73-.12-1.77.56-2.32.9-1.11.69-2.21,1.49-3.11,2.44.96-1.08,2.09-1.86,3.39-2.33-.26.06-.32.08-.18.06.14-.02.07-.02-.19,0-.17,0-.33-.02-.49-.04l-.84,2.67c-.94,1.13-2.05,2.04-3.31,2.7-.19.12-.39.21-.6.26,0,0,.66-.18.69-.18-.37.05.31.02.35.02.24,0,.47.05.71.09.66.13,1.85-.62,2.32-.9,1.1-.66,2.2-1.53,3.11-2.44.41-.41,3.21-3.26,1.69-3.56h0Z"/>
  <path class="st5" d="M135.49,65.84c-4.8.65-9.67.62-14.5.52-4.83-.11-9.65-.44-14.47-.85-8.37-.75-16.86-1.86-25.1-3.55l-1.77-.39c-.61-.13-1.14-.43-1.72-.64.6.08,1.2.24,1.77.28l1.8.16c9.66.88,22.7,2.08,32.37,2.93,6.97.58,14.65,1.35,21.61,1.54h0Z"/>
  <path class="st3" d="M75.77,62.71c12.03,2.48,24.26,3.76,36.48,4.63,13.69.93,27.41,1.16,41.12.78,5.89-.14,12.42-.4,18.32-.66,10.59-.53,21.28-1.11,31.7-3.06,6.07-1.06,11.82-3.22,17.85-4.55-4.12,2.2-8.12,4.62-12.42,6.49-13.04,5.61-27.28,7.35-41.28,8.5-27.87,2.03-56.53.49-83.14-8.58-2.93-1.04-5.85-2.17-8.62-3.57h0v.02Z"/>
  <path d="M74.62,62.29c7.39,2.2,15.06,3.43,22.7,4.47,18.33,2.39,36.9,2.66,55.36,2.08,16.91-.7,33.96-1.29,50.65-4.31,6.08-1.09,12.01-2.84,17.91-4.67-1.42.61-2.86,1.2-4.29,1.79-2.87,1.13-5.84,2.25-8.79,3.11-19.45,5.6-39.91,6.55-60.02,7.3-17.06.42-34.29-.43-51.1-3.55l-2.29-.44-1.14-.22c-1.01-.22-2.46-.55-3.41-.77-5.26-1.24-10.59-2.68-15.57-4.8h-.01Z"/>
  <path d="M196.85,163.78c-3.18,0-6,1.51-7.81,3.84l14.89-.83c-1.79-1.86-4.3-3.01-7.09-3.01h0Z"/>
  <path d="M171.21,170.19c.82-.05,1.66-.14,2.5-.28-2.12-4.68-7.02-7.57-12.14-6.74-2.12.34-4.01,1.28-5.53,2.62,1.5,1.45,3.35,2.56,5.55,3.31,2.73.93,5.93,1.29,9.62,1.08h0Z"/>
  <path d="M102.59,169.88c-.2-4.34-4.02-7.7-8.53-7.49-4.51.21-8,3.9-7.8,8.24.03.7.16,1.38.37,2.02l15.81-.88c.13-.61.18-1.25.15-1.9h0Z"/>
  <path class="st1" d="M125.1,79.01c2.72-.15,5.42-.15,8.09,0,2.68.15,5.21.58,7.59,1.28,2.37.7,4.53,1.7,6.45,3,1.92,1.31,3.46,3.03,4.61,5.18l1.49,1.74c.45.54.86,1.13,1.23,1.76,6.98-6.31,11.36-15.43,11.36-25.58,0-19.05-15.44-34.49-34.49-34.49s-34.49,15.44-34.49,34.49c0,4.99,1.06,9.74,2.97,14.02l25.19-1.4h0Z"/>
  <path d="M289.66,42.33c.46,3.13.43,6.59-.08,10.38l-5.91,42.14-11.52.64c-.71-.63-1.45-1.21-2.24-1.75-1.26-.85-2.62-1.57-4.08-2.18-.86-.35-1.75-.67-2.67-.94-2.15-.64-4.47-1.08-6.95-1.29-.71-.06-1.43-.11-2.16-.13s-1.48-.04-2.23-.03c-.76,0-1.52.03-2.3.07h-.1c-3.88.23-7.59.87-11.09,1.92-1.16.35-2.3.74-3.42,1.18-.85.33-1.68.7-2.5,1.09-.54.26-1.08.53-1.61.81-.18.1-.35.2-.53.3-.61-.51-1.17-1.07-1.68-1.69l-1.57-1.9c-2.26-1.76-3.82-4.16-4.68-7.21-.29-1.02-.49-2.11-.61-3.28-2.16,4.07-4.68,7.54-7.55,10.41-2.27,2.26-4.67,4.14-7.21,5.65-.46-.29-.94-.56-1.44-.83-.52-.28-1.06-.54-1.62-.79-.02,0-.04-.02-.06-.03-1.59-.7-3.4-1.24-5.41-1.63-1.67-.32-3.49-.53-5.45-.63-1.96-.1-4.05-.09-6.28.04h-.14c-.3.02-.59.04-.89.07-2.09.16-4.21.47-6.35.91-1.88.39-3.76.85-5.62,1.38-.55.15-1.1.31-1.64.48-1.49.45-2.96.96-4.4,1.49-.86.32-1.72.65-2.56,1-2.19.9-4.29,1.85-6.24,2.81l-.21.11-.47.23-.36-.38c-.03-.18-.05-.37-.08-.55-.06-.35-.13-.69-.21-1.02-.12-.53-.26-1.03-.41-1.53-.13-.44-.27-.87-.43-1.28-.26-.71-.56-1.4-.88-2.05l1.01-7.23c-.9,1.5-1.88,2.9-2.93,4.21-.06-.07-.11-.15-.17-.22l-1.15-1.8c-1-1.54-1.87-2.34-3.16-3.71-.45-.47-.96-.89-1.48-1.28-.26-.2-.53-.39-.8-.57,0,0,0,0-.02,0,1.5-1.89,2.83-4.01,3.98-6.37,1.82-3.75,3.08-8.14,3.78-13.15.7-5.02.65-9.33-.14-12.93-.79-3.61-2.22-6.57-4.27-8.89-2.06-2.32-4.68-3.98-7.87-5-3.19-1.01-6.86-1.4-11.01-1.17s-8,1.04-11.54,2.43c-3.55,1.39-6.69,3.37-9.42,5.96-2.73,2.59-5.01,5.75-6.83,9.51-1.82,3.75-3.08,8.14-3.78,13.15-.7,5.02-.66,9.33.1,12.94,0,.04.02.08.03.13l-11.52.64-2.42,17.37c-.89.76-1.81,1.47-2.77,2.12-3.42,2.29-7.18,3.95-11.29,4.98-4.1,1.03-8.23,1.66-12.39,1.89l-33.28,1.85-3.52-3.7,12.13-86.96,32.82-1.82c2.72-.15,5.42-.15,8.1,0s5.21.58,7.59,1.28,4.53,1.7,6.45,3c1.92,1.31,3.46,3.03,4.61,5.18l1.49,1.74c1.54,1.85,2.64,4.2,3.28,7.04s.67,6.27.07,10.28c-.41,2.73-1.13,5.32-2.15,7.75-1.02,2.44-2.32,4.67-3.91,6.69.78.98,1.44,2.05,2.01,3.22.86-4.06,2.09-7.75,3.68-11.05,2.19-4.52,4.92-8.32,8.19-11.41,3.27-3.09,7.03-5.47,11.28-7.14s8.86-2.65,13.83-2.93c5.89-.33,10.97.39,15.23,2.14,4.26,1.75,7.51,4.64,9.74,8.67l1.15,1.26c1.53,1.86,2.73,4.06,3.62,6.6l5.28-37.88,31.52-1.75,3.01,4.23-1.83,12.88,1.54-.09c4.35-.24,8.16.5,11.42,2.23s5.85,4.31,7.79,7.74l.99,1.19c2.37,2.86,4.02,6.46,4.96,10.8.67,3.14.89,6.62.66,10.45.74-1,1.55-1.95,2.43-2.86l3.39-24.92c1.9-.94,3.93-1.85,6.09-2.74s4.4-1.7,6.73-2.41c2.32-.71,4.67-1.31,7.03-1.8s4.7-.8,7-.93c6.76-.38,12.09.3,15.99,2.01,3.9,1.72,6.71,4.14,8.42,7.25l1.49,1.74c1.93,2.33,3.12,5.06,3.58,8.18h0ZM281.2,49.02c.4-3.01.37-5.8-.08-8.38-.45-2.57-1.51-4.77-3.18-6.58-1.67-1.81-4.01-3.18-7.01-4.09-3.01-.91-6.87-1.24-11.58-.97-4.15.23-8.07.9-11.76,2.02-3.69,1.12-6.81,2.3-9.36,3.55l-2.58,18.73c1.09-.67,2.38-1.32,3.86-1.96,1.48-.63,3.03-1.22,4.65-1.75,1.61-.53,3.23-.98,4.86-1.35,1.63-.37,3.18-.59,4.67-.67,2.15-.12,3.66-.02,4.53.29.86.31,1.31.77,1.35,1.38-4.39.52-8.43,1.35-12.12,2.5-3.69,1.15-6.95,2.64-9.77,4.48-2.83,1.85-5.13,4.1-6.91,6.77s-2.91,5.76-3.38,9.27c-.4,2.96-.35,5.49.16,7.63.5,2.13,1.41,3.87,2.72,5.24,1.31,1.37,2.98,2.35,5.02,2.96s4.39.83,7.05.69c2.15-.12,4.38-.6,6.67-1.45,2.29-.85,4.52-2.08,6.69-3.69l2.09,2.95,18.29-1.02,5.14-36.54h-.02ZM218.65,59.72c.58-4.35.58-8.26,0-11.74-.58-3.48-1.65-6.41-3.23-8.78-1.57-2.37-3.6-4.17-6.08-5.39s-5.31-1.74-8.49-1.56c-2.26.13-4.25.47-6,1.04-1.74.57-3.38,1.28-4.93,2.14l2.83-19.9-20.75,1.16-10.54,75.26,15.14-.84,2.56-3.87c1.26,1.37,2.82,2.44,4.69,3.23,1.86.78,4.08,1.1,6.64.96,2.97-.16,5.99-.96,9.05-2.37,3.05-1.41,5.89-3.45,8.49-6.11s4.85-5.93,6.74-9.79c1.89-3.87,3.19-8.34,3.88-13.41v-.03ZM91.11,41.5c.58-4.29.28-7.73-.92-10.32-1.2-2.59-2.98-4.55-5.34-5.88s-5.11-2.18-8.24-2.53-6.31-.44-9.54-.26l-27.44,1.53-10.54,75.26,28.21-1.57c3.48-.19,6.96-.71,10.44-1.54s6.65-2.18,9.53-4.06,5.34-4.33,7.38-7.38,3.39-6.91,4.06-11.59c.59-4.12.29-7.51-.91-10.15s-3.03-4.73-5.48-6.25c2.36-1.95,4.3-4.19,5.84-6.71,1.53-2.52,2.51-5.37,2.96-8.55h0Z"/>
  <path class="st1" d="M281.12,40.64c.45,2.58.48,5.37.08,8.38l-5.14,36.54-18.29,1.02-2.09-2.95c-2.17,1.61-4.4,2.84-6.69,3.69-2.29.85-4.52,1.33-6.67,1.45-2.66.15-5.02-.08-7.05-.69s-3.71-1.59-5.02-2.96c-1.31-1.36-2.22-3.11-2.72-5.24s-.56-4.67-.16-7.63c.47-3.51,1.6-6.6,3.38-9.27s4.08-4.93,6.91-6.77c2.83-1.84,6.08-3.34,9.77-4.48s7.73-1.98,12.12-2.5c-.03-.61-.48-1.07-1.35-1.38-.87-.31-2.38-.41-4.53-.29-1.49.08-3.04.31-4.67.67-1.63.37-3.24.82-4.86,1.35s-3.17,1.12-4.65,1.75c-1.48.64-2.77,1.29-3.86,1.96l2.58-18.73c2.55-1.25,5.67-2.43,9.36-3.55,3.69-1.12,7.61-1.79,11.76-2.02,4.71-.26,8.57.06,11.58.97,3,.91,5.34,2.27,7.01,4.09,1.67,1.82,2.73,4.01,3.18,6.58h.02ZM257.06,66.95l.39-2.68c-2.26.13-4.21.5-5.88,1.12-1.66.62-2.6,1.71-2.82,3.27-.15,1,.07,1.72.66,2.16s1.4.63,2.42.57c.97-.05,1.95-.37,2.91-.95.97-.58,1.59-1.26,1.85-2.05.28-.57.43-1.05.46-1.44h0Z"/>
  <path d="M280.27,113.97c.85,4.24.87,9.23.06,14.97-.85,5.97-2.35,11.18-4.49,15.64-2.14,4.46-4.84,8.22-8.09,11.28-3.25,3.05-6.99,5.41-11.21,7.05-4.22,1.64-8.8,2.6-13.72,2.88-5.12.28-9.62-.21-13.5-1.49s-7.05-3.4-9.53-6.36l-1.25-1.59c-2.55-2.2-4.47-5.06-5.75-8.58l-2.63,18.75-25.83,1.44-1.16-1.43c-1.99,1.05-4.01,1.87-6.03,2.45-2.03.58-3.99.93-5.88,1.03-3.69.2-6.9-.16-9.62-1.08-2.72-.93-4.91-2.4-6.57-4.4l-1.57-1.9c-2.26-1.76-3.82-4.16-4.68-7.21-.09-.33-.18-.67-.25-1.01-.26.47-.53.92-.81,1.36-2.43,3.81-5.36,6.86-8.78,9.16-3.42,2.29-7.18,3.95-11.29,4.98-4.1,1.03-8.23,1.66-12.38,1.89l-33.28,1.85-3.52-3.7,12.13-86.96,32.82-1.82c2.72-.15,5.42-.15,8.09,0,2.68.15,5.21.58,7.59,1.28,2.37.7,4.53,1.7,6.45,3,1.92,1.31,2.79,2.29,4.78,4.63l1.64,2.4c1.54,1.85,2.31,4.08,2.96,6.93.64,2.84.67,6.27.07,10.28-.41,2.73-1.13,5.32-2.15,7.75s-2.32,4.66-3.91,6.69c1.6,2.01,2.75,4.44,3.45,7.27.08.34.16.69.22,1.04,1.08-1.72,2.33-3.33,3.77-4.83l3.4-24.92c1.9-.94,3.93-1.85,6.09-2.74,2.16-.89,4.4-1.7,6.73-2.41,2.32-.71,4.67-1.31,7.04-1.8,2.36-.49,4.7-.8,7-.93,6.76-.38,12.09.3,15.99,2.01,3.9,1.72,6.71,4.14,8.42,7.25l1.49,1.74c1.76,2.13,2.91,4.59,3.44,7.38.05-.11.1-.21.15-.32,2.19-4.52,4.92-8.32,8.19-11.41s7.04-5.46,11.29-7.14c4.25-1.67,8.86-2.65,13.83-2.93,5.89-.33,10.97.39,15.23,2.14s7.5,4.65,9.73,8.67l1.15,1.26c2.26,2.75,3.82,6.25,4.67,10.48v.03ZM271.95,125.26c.7-5.02.65-9.33-.14-12.93-.79-3.61-2.22-6.57-4.27-8.89-2.06-2.32-4.68-3.98-7.87-5-3.19-1.01-6.86-1.4-11.01-1.17-4.15.23-8,1.04-11.55,2.42-3.55,1.39-6.69,3.37-9.42,5.96s-5.01,5.75-6.83,9.51c-1.82,3.75-3.08,8.14-3.78,13.15-.7,5.02-.66,9.33.1,12.94.76,3.61,2.18,6.56,4.23,8.85s4.69,3.94,7.91,4.95,6.9,1.4,11.05,1.17c4.15-.23,8-1.04,11.55-2.43,3.55-1.39,6.69-3.36,9.42-5.92,2.74-2.56,5.02-5.71,6.84-9.47,1.82-3.75,3.08-8.14,3.78-13.15h-.01ZM207.7,120.7c.4-3.01.37-5.8-.08-8.37s-1.51-4.77-3.18-6.58-4.01-3.18-7.01-4.09-6.87-1.24-11.58-.98c-4.15.23-8.07.91-11.76,2.03s-6.81,2.3-9.36,3.55l-2.59,18.73c1.09-.67,2.38-1.32,3.86-1.95s3.03-1.22,4.65-1.75,3.23-.98,4.86-1.35c1.62-.37,3.18-.59,4.66-.67,2.15-.12,3.66-.02,4.53.29s1.31.77,1.35,1.38c-4.39.52-8.43,1.35-12.12,2.5-3.69,1.15-6.95,2.64-9.78,4.48-2.83,1.85-5.13,4.1-6.91,6.77-1.78,2.67-2.9,5.76-3.38,9.28-.4,2.96-.35,5.49.16,7.62.5,2.13,1.41,3.88,2.72,5.25,1.31,1.36,2.98,2.35,5.02,2.96,2.04.61,4.39.83,7.05.69,2.15-.12,4.37-.6,6.67-1.45,2.29-.85,4.52-2.08,6.7-3.69l2.09,2.95,18.29-1.02,5.14-36.55v-.03ZM146.66,106.01c.58-4.29.28-7.73-.92-10.32s-2.98-4.55-5.34-5.89c-2.36-1.33-5.11-2.18-8.23-2.53-3.13-.35-6.31-.44-9.54-.26l-27.44,1.52-10.54,75.26,28.21-1.57c3.48-.2,6.96-.71,10.44-1.54,3.47-.83,6.65-2.18,9.53-4.06,2.87-1.87,5.34-4.33,7.38-7.38,2.04-3.05,3.39-6.91,4.06-11.59.59-4.13.29-7.51-.91-10.16-1.2-2.64-3.03-4.73-5.48-6.25,2.36-1.95,4.3-4.19,5.83-6.71s2.52-5.37,2.96-8.55v.03Z"/>
  <path class="st1" d="M271.81,112.33c.79,3.6.84,7.92.14,12.93-.7,5.02-1.96,9.4-3.78,13.15s-4.1,6.91-6.84,9.47c-2.73,2.56-5.88,4.53-9.42,5.92-3.55,1.39-7.4,2.2-11.55,2.43-4.15.23-7.84-.16-11.05-1.17-3.22-1.01-5.85-2.66-7.91-4.95-2.05-2.29-3.46-5.24-4.23-8.85-.77-3.61-.8-7.92-.1-12.94s1.95-9.4,3.78-13.15c1.82-3.75,4.1-6.92,6.83-9.51s5.88-4.57,9.42-5.96c3.55-1.39,7.4-2.19,11.55-2.42,4.15-.23,7.82.16,11.01,1.17,3.19,1.01,5.82,2.68,7.87,5,2.06,2.32,3.48,5.28,4.27,8.89h.01ZM250.89,126.44c.9-6.85-.75-10.16-4.94-9.93-4.31.24-6.91,3.78-7.82,10.64-.3,1.95-.39,3.58-.27,4.87s.41,2.32.86,3.06c.45.75,1.05,1.27,1.78,1.56.74.29,1.59.41,2.57.35,1.95-.11,3.6-.92,4.95-2.43,1.35-1.51,2.31-4.22,2.86-8.12h.01Z"/>
  <path d="M257.45,64.28l-.39,2.68c-.03.39-.18.87-.46,1.44-.26.79-.88,1.47-1.85,2.05s-1.94.89-2.91.95c-1.03.06-1.83-.13-2.42-.57s-.81-1.16-.66-2.16c.22-1.56,1.17-2.65,2.82-3.27,1.66-.62,3.62-.99,5.88-1.12h0Z"/>
  <path d="M245.95,116.51c4.2-.23,5.85,3.08,4.94,9.93-.55,3.9-1.51,6.61-2.86,8.12s-3.01,2.32-4.95,2.43c-.98.05-1.83-.07-2.57-.35-.74-.29-1.33-.81-1.78-1.56s-.74-1.77-.86-3.06-.04-2.91.27-4.87c.9-6.85,3.51-10.4,7.82-10.64h-.01Z"/>
  <path class="st1" d="M218.65,47.98c.58,3.48.58,7.39,0,11.74-.7,5.07-1.99,9.54-3.88,13.41-1.9,3.87-4.14,7.13-6.74,9.79-2.6,2.66-5.43,4.7-8.49,6.11-3.06,1.41-6.08,2.21-9.05,2.37-2.56.14-4.78-.18-6.64-.96-1.87-.78-3.43-1.86-4.69-3.23l-2.56,3.87-15.14.84,10.54-75.26,20.75-1.16-2.83,19.9c1.55-.86,3.19-1.57,4.93-2.14,1.74-.57,3.74-.91,6-1.04,3.18-.18,6.01.34,8.49,1.56,2.48,1.22,4.51,3.01,6.08,5.39,1.57,2.37,2.65,5.3,3.23,8.78v.03ZM197.77,61.46c.36-2.73.16-4.98-.61-6.77s-2.25-2.61-4.46-2.49c-.82.05-1.73.36-2.72.94-1,.58-1.95,1.45-2.86,2.61l-1.82,13.04c.46.86,1.06,1.56,1.81,2.1.75.54,1.71.77,2.89.71,2-.11,3.68-1.05,5.05-2.81,1.37-1.76,2.27-4.2,2.72-7.33h0Z"/>
  <path class="st1" d="M207.62,112.33c.45,2.58.48,5.37.08,8.37l-5.14,36.55-18.29,1.02-2.09-2.95c-2.18,1.61-4.41,2.84-6.7,3.69s-4.51,1.33-6.67,1.45c-2.67.15-5.02-.08-7.05-.69-2.04-.61-3.71-1.59-5.02-2.96s-2.22-3.11-2.72-5.25c-.5-2.13-.56-4.67-.16-7.62.48-3.51,1.6-6.6,3.38-9.28,1.78-2.67,4.08-4.93,6.91-6.77s6.08-3.34,9.78-4.48c3.69-1.14,7.73-1.98,12.12-2.5-.03-.61-.48-1.07-1.35-1.38-.86-.31-2.37-.41-4.53-.29-1.49.08-3.04.31-4.66.67-1.63.37-3.24.82-4.86,1.35s-3.16,1.12-4.65,1.75c-1.48.63-2.77,1.29-3.86,1.95l2.59-18.73c2.55-1.25,5.67-2.43,9.36-3.55s7.61-1.79,11.76-2.03c4.71-.26,8.58.06,11.58.98,3.01.91,5.34,2.27,7.01,4.09s2.73,4.01,3.18,6.58v.03ZM183.57,138.64l.39-2.68c-2.25.13-4.21.5-5.87,1.12s-2.6,1.71-2.82,3.27c-.15,1,.07,1.72.66,2.16s1.4.63,2.42.57c.97-.05,1.95-.37,2.91-.95.97-.58,1.59-1.26,1.86-2.05.28-.57.43-1.05.46-1.44h-.01Z"/>
  <path d="M197.17,54.69c.77,1.78.97,4.04.61,6.77-.44,3.12-1.35,5.57-2.72,7.33-1.37,1.77-3.05,2.7-5.05,2.81-1.18.07-2.14-.17-2.89-.71-.75-.54-1.35-1.24-1.81-2.1l1.82-13.04c.91-1.16,1.86-2.03,2.86-2.61.99-.58,1.9-.89,2.72-.94,2.2-.12,3.69.71,4.46,2.49h0Z"/>
  <path d="M183.96,135.97l-.39,2.68c-.03.39-.18.87-.46,1.44-.26.79-.88,1.47-1.86,2.05-.97.58-1.94.9-2.91.95-1.03.06-1.84-.13-2.42-.57-.59-.44-.81-1.16-.66-2.16.22-1.56,1.16-2.65,2.82-3.27s3.62-.99,5.87-1.12h.01Z"/>
  <path class="st1" d="M145.75,95.69c1.2,2.59,1.5,6.03.92,10.32-.44,3.18-1.42,6.03-2.96,8.55s-3.47,4.76-5.83,6.71c2.45,1.52,4.28,3.61,5.48,6.25s1.5,6.03.91,10.16c-.66,4.68-2.02,8.55-4.06,11.59-2.04,3.04-4.5,5.5-7.38,7.38-2.88,1.87-6.05,3.23-9.53,4.06-3.48.83-6.95,1.34-10.44,1.54l-28.21,1.57,10.54-75.26,27.44-1.52c3.23-.18,6.41-.09,9.54.26,3.13.35,5.87,1.19,8.23,2.53,2.36,1.34,4.14,3.3,5.34,5.89v-.03ZM125.8,110.57c.18-1.34-.11-2.23-.88-2.69-.77-.45-2.03-.63-3.77-.54l-8.38.47-.99,7.19,8.37-.47c1.59-.09,2.87-.37,3.85-.84.98-.47,1.57-1.51,1.79-3.13h0ZM124.22,137.62c.22-1.62-.16-2.62-1.13-3-.98-.39-2.36-.53-4.15-.44l-9.92.55-1.11,7.86,9.92-.55c1.59-.09,2.97-.37,4.15-.85s1.93-1.67,2.23-3.57h0Z"/>
  <path d="M128.9,55.41c4.2-.24,5.85,3.08,4.95,9.93-.56,3.9-1.51,6.61-2.87,8.13s-3.01,2.32-4.95,2.43c-.98.06-1.83-.06-2.56-.35-.74-.29-1.33-.81-1.78-1.56s-.74-1.77-.86-3.06-.03-2.91.27-4.87c.9-6.85,3.51-10.4,7.82-10.64h-.02Z"/>
  <path d="M124.92,107.89c.77.45,1.06,1.35.88,2.69-.22,1.62-.82,2.66-1.79,3.13-.98.47-2.26.75-3.85.84l-8.37.47.99-7.19,8.38-.47c1.74-.1,3,.08,3.77.54h0Z"/>
  <path d="M123.09,134.62c.97.39,1.35,1.39,1.13,3-.3,1.9-1.05,3.09-2.23,3.57s-2.56.77-4.15.85l-9.92.55,1.11-7.86,9.92-.55c1.79-.1,3.18.05,4.15.44h0Z"/>
  <path class="st1" d="M90.19,31.18c1.2,2.59,1.5,6.03.92,10.32-.44,3.18-1.43,6.03-2.96,8.55s-3.48,4.76-5.84,6.71c2.45,1.53,4.28,3.61,5.48,6.25s1.5,6.03.91,10.15c-.66,4.69-2.02,8.55-4.06,11.59-2.04,3.05-4.5,5.5-7.38,7.38-2.88,1.87-6.05,3.23-9.53,4.06s-6.95,1.34-10.44,1.54l-28.21,1.57,10.54-75.26,27.44-1.53c3.23-.18,6.41-.09,9.54.26,3.13.35,5.87,1.2,8.24,2.53,2.36,1.33,4.14,3.29,5.34,5.88h0ZM70.24,46.06c.18-1.34-.11-2.23-.88-2.69-.77-.45-2.03-.63-3.77-.54l-8.38.47-.99,7.19,8.38-.47c1.59-.09,2.87-.37,3.85-.84s1.58-1.51,1.79-3.13h0ZM68.66,73.11c.22-1.62-.16-2.62-1.13-3-.98-.39-2.36-.53-4.15-.44l-9.91.55-1.11,7.86,9.92-.55c1.59-.09,2.97-.37,4.15-.85,1.18-.48,1.92-1.67,2.23-3.57h0Z"/>
  <path d="M61.92,157.55l11.89,15.55-27.58,1.53-1.52-1.8c-1.91.97-3.92,1.72-6.04,2.27s-4.04.87-5.79.97c-3.26.18-6.07-.21-8.41-1.18s-4.26-2.35-5.74-4.15l-.94-1.12c-1.95-1.77-3.34-3.93-4.15-6.49-.81-2.56-1.03-5.35-.66-8.39.4-3.27,1.27-6.19,2.62-8.75,1.35-2.56,3.09-4.88,5.23-6.96-.52-2.12-.65-4.44-.39-6.96.24-2.24.89-4.53,1.96-6.86,1.07-2.33,2.51-4.45,4.31-6.37,1.81-1.92,3.96-3.52,6.47-4.79,2.51-1.27,5.36-2,8.56-2.18,3.19-.18,5.97.3,8.35,1.44s4.19,2.85,5.44,5.13l.99,1.12c1.14,1.43,1.96,3.12,2.47,5.09.51,1.97.63,4.19.37,6.67-.23,1.19-.49,2.32-.8,3.39l10.12-.56,2.08,3c-1.49,4.59-3,8.6-4.52,12.03s-2.96,6.22-4.33,8.37h0ZM63.52,166.8l-8.59-11.27c1.59-2.09,3.11-4.54,4.56-7.36,1.44-2.82,2.76-6.03,3.94-9.61l-12.46.69c-.38,1-.89,2.08-1.54,3.23s-1.29,2.22-1.92,3.19l-2.77-3.78c2.41-1.7,4.38-3.63,5.9-5.79s2.44-4.6,2.76-7.32c.25-2.09.11-3.95-.39-5.58-.51-1.63-1.31-3-2.38-4.1-1.08-1.1-2.42-1.91-4.04-2.45-1.61-.53-3.42-.75-5.41-.64-2.5.14-4.75.71-6.76,1.7-2,.99-3.71,2.23-5.14,3.72s-2.56,3.13-3.41,4.92-1.38,3.57-1.61,5.34c-.14,1.5-.09,2.91.13,4.25s.58,2.62,1.09,3.84c-2.38,1.78-4.32,3.87-5.82,6.28-1.5,2.41-2.46,5.22-2.86,8.41-.25,2.09-.13,4.07.36,5.94s1.34,3.49,2.56,4.85c1.22,1.36,2.79,2.41,4.7,3.14s4.16,1.03,6.73.89c1.92-.11,4.02-.5,6.29-1.17s4.37-1.69,6.3-3.05l2.17,2.7,17.63-.98h-.02Z"/>
  <path d="M69.36,43.37c.77.46,1.07,1.35.88,2.69-.22,1.62-.82,2.66-1.79,3.13s-2.26.75-3.85.84l-8.38.47.99-7.19,8.38-.47c1.74-.1,3,.08,3.77.54h0Z"/>
  <path d="M67.53,70.11c.97.39,1.35,1.39,1.13,3-.31,1.9-1.05,3.09-2.23,3.57-1.18.48-2.57.77-4.15.85l-9.92.55,1.11-7.86,9.91-.55c1.79-.1,3.18.05,4.15.44h0Z"/>
  <rect x="15.39" y="135.55" width="42" height="12.63" transform="translate(-109.95 136.03) rotate(-73.33)"/>
  <path class="st1" d="M54.93,155.53l8.59,11.27-17.63.98-2.17-2.7c-1.93,1.36-4.02,2.38-6.3,3.05s-4.37,1.06-6.29,1.17c-2.57.14-4.82-.15-6.73-.89s-3.48-1.78-4.7-3.14-2.08-2.98-2.56-4.85-.6-3.85-.36-5.94c.4-3.19,1.36-6,2.86-8.41,1.5-2.41,3.44-4.51,5.82-6.28-.5-1.22-.87-2.51-1.09-3.84-.22-1.34-.26-2.75-.13-4.25.23-1.77.76-3.55,1.61-5.34.85-1.79,1.98-3.43,3.41-4.92s3.14-2.73,5.14-3.72,4.25-1.56,6.76-1.7c1.99-.11,3.8.11,5.41.64,1.61.54,2.96,1.35,4.04,2.45,1.08,1.09,1.87,2.46,2.38,4.1.51,1.63.64,3.5.39,5.58-.32,2.72-1.24,5.16-2.76,7.32-1.52,2.16-3.48,4.09-5.9,5.79l2.77,3.78c.64-.97,1.28-2.04,1.92-3.19s1.16-2.23,1.54-3.23l12.46-.69c-1.18,3.59-2.5,6.8-3.94,9.61-1.44,2.82-2.96,5.27-4.56,7.36h.02ZM41.2,129.52c.08-.63,0-1.17-.25-1.63s-.73-.66-1.45-.63c-.65.04-1.18.31-1.59.82s-.65,1.1-.72,1.77c-.14,1.34.18,2.65.98,3.94.94-.83,1.65-1.58,2.14-2.23.49-.66.79-1.34.89-2.05h0ZM37.23,156.16l-5.48-7.27c-.27.45-.54.93-.82,1.45-.28.53-.44,1.04-.48,1.55-.12,1.07,0,1.93.36,2.59.37.66.89,1.16,1.56,1.5s1.44.51,2.29.52c.86.01,1.72-.1,2.57-.35h0Z"/>
  <g>
    <path class="st4" d="M113.49,191.01l-8.33.43-.32,2.01,9.03-.46-.93,5.86-15.4.79,3.43-21.52,14.99-.77-.93,5.86-8.63.44-.33,1.96,8.32-.43-.91,5.83Z"/>
    <path class="st4" d="M123.92,197.97l-1.34-9.04-1.7,9.5-6.08.31,4.54-21.57,7.24-.37,1.64,10.33,5.03-10.67,7.24-.37-2.32,21.46-6.08.31,1.32-9.5-4.29,9.35-5.2.27Z"/>
    <path class="st4" d="M151.73,175.52c1.24-.06,2.39,0,3.44.18,1.04.18,1.92.55,2.63,1.1.71.55,1.21,1.32,1.5,2.31.29.99.32,2.26.06,3.8-.22,1.34-.57,2.5-1.07,3.49-.49.99-1.15,1.82-1.96,2.51-.81.68-1.79,1.21-2.94,1.57-1.15.37-2.48.59-4,.67l-1.87.1-.93,5.88-6.36.33,3.43-21.52,8.07-.41ZM149.09,181.44l-.63,3.92,1.13-.06c.55-.03,1.03-.08,1.44-.16.41-.08.75-.19,1.03-.35.28-.16.49-.37.66-.63.16-.26.27-.58.33-.97.07-.46.05-.82-.06-1.08-.11-.26-.29-.44-.54-.56-.25-.12-.57-.19-.95-.2-.38-.01-.81,0-1.28.02l-1.13.06Z"/>
    <path class="st4" d="M181.45,184.67c-.29,1.79-.78,3.38-1.49,4.78-.7,1.4-1.58,2.59-2.64,3.57-1.06.98-2.26,1.74-3.61,2.29-1.35.55-2.8.87-4.36.95s-2.94-.09-4.13-.51c-1.19-.42-2.17-1.08-2.92-1.96-.76-.89-1.27-2.01-1.55-3.36-.28-1.35-.27-2.92.02-4.71s.79-3.38,1.5-4.78c.71-1.4,1.59-2.6,2.65-3.58,1.06-.98,2.26-1.74,3.61-2.29,1.35-.55,2.8-.87,4.36-.95s2.94.09,4.13.51c1.19.42,2.17,1.08,2.92,1.96.76.89,1.27,2.01,1.54,3.36.27,1.35.26,2.92-.03,4.71ZM171.98,179.86c-1.2.06-2.21.54-3.02,1.42-.82.89-1.37,2.22-1.66,4.01-.29,1.8-.16,3.1.39,3.88.55.79,1.39,1.15,2.52,1.09,1.23-.06,2.26-.52,3.08-1.38.83-.86,1.38-2.18,1.67-3.99.29-1.79.16-3.09-.38-3.91s-1.41-1.2-2.61-1.14Z"/>
    <path class="st4" d="M193.85,173.36c1.25-.06,2.39,0,3.44.18s1.92.55,2.63,1.1c.71.55,1.21,1.32,1.5,2.3s.32,2.26.06,3.8c-.25,1.58-.69,2.92-1.32,4.02-.63,1.1-1.5,1.98-2.6,2.64l2.71,6.97-7.52.38-1.93-5.73-1.16.06-.93,5.88-6.36.33,3.43-21.52,8.06-.41ZM191.21,179.28l-.63,3.92,1.14-.06c.55-.03,1.03-.08,1.44-.16.41-.08.75-.19,1.03-.35.28-.16.5-.36.66-.63.16-.26.27-.58.33-.97.07-.46.05-.82-.06-1.08s-.29-.44-.54-.57c-.25-.12-.57-.19-.95-.2-.38-.01-.81,0-1.28.02l-1.14.06Z"/>
    <path class="st4" d="M211.75,172.45l-3.43,21.52-6.34.32,3.43-21.52,6.34-.32Z"/>
    <path class="st4" d="M219.74,193.69c-1.44.07-2.67-.04-3.72-.33-1.04-.29-1.88-.8-2.52-1.51-.64-.71-1.06-1.64-1.26-2.78-.2-1.14-.17-2.54.09-4.18l2.01-12.58,6.36-.33-2.03,12.67c-.18,1.16-.1,2.01.24,2.54.33.53.89.77,1.66.73.8-.04,1.46-.35,1.98-.92.52-.57.86-1.44,1.04-2.6l2.03-12.67,6.36-.33-2.01,12.58c-.26,1.64-.68,3.05-1.24,4.24-.56,1.18-1.27,2.17-2.13,2.95s-1.85,1.38-3,1.79c-1.15.41-2.44.65-3.88.72Z"/>
    <path class="st4" d="M239.81,192.04l-1.34-9.04-1.7,9.5-6.08.31,4.54-21.57,7.24-.37,1.64,10.33,5.03-10.67,7.24-.37-2.32,21.46-6.08.31,1.32-9.5-4.29,9.35-5.2.27Z"/>
  </g>
  <g>
    <path class="st4" d="M108.96,10.12l-5.16.26.95-5.93,16.74-.86-.95,5.93-5.23.27-2.48,15.59-6.36.33,2.48-15.59Z"/>
    <path class="st4" d="M129.76,3.18l-1.19,7.39,5.08-.26,1.19-7.39,6.36-.33-3.43,21.51-6.36.33,1.27-8.06-5.08.26-1.27,8.06-6.36.33,3.43-21.52,6.36-.33Z"/>
    <path class="st4" d="M156.08,15.37l-8.32.43-.32,2.01,9.03-.46-.93,5.86-15.4.79,3.43-21.51,15-.77-.93,5.86-8.63.44-.33,1.96,8.32-.43-.91,5.83Z"/>
  </g>
</svg>