
<svg id="Layer_1" xmlns="http://www.w3.org/2000/svg" xmlns:xlink="http://www.w3.org/1999/xlink" version="1.1" viewBox="0 0 20 16">

  <defs>
    <style>
  
      .st2 {
        clip-path: url(#clippath);
      }
    </style>
    <clipPath id="clippath">
      <rect class="st0" x="-10" y="-12" width="40" height="40"/>
    </clipPath>
  </defs>
  <g class="st2">
    <g id="GD24-Components-03-Filtering-Icon-40x40">
      <path id="Vector" fill="currentColor" class="st1" d="M16.9,3c-.4-1.7-2-3-3.9-3s-3.4,1.3-3.9,3H0v2h9.1c.4,1.7,2,3,3.9,3s3.4-1.3,3.9-3h3.1v-2h-3.1ZM14.7,5c-.4.6-1,1-1.7,1s-1.4-.4-1.7-1c-.2-.3-.3-.6-.3-1s.1-.7.3-1c.4-.6,1-1,1.7-1s1.4.4,1.7,1c.2.3.3.6.3,1s-.1.7-.3,1Z"/>
      <path id="Vector_2" fill="currentColor" class="st1" d="M7,8c-1.9,0-3.4,1.3-3.9,3H0v2h3.1c.4,1.7,2,3,3.9,3s3.4-1.3,3.9-3h9.1v-2h-9.1c-.4-1.7-2-3-3.9-3ZM8.7,13c-.4.6-1,1-1.7,1s-1.4-.4-1.7-1c-.2-.3-.3-.6-.3-1s.1-.7.3-1c.3-.6,1-1,1.7-1s1.4.4,1.7,1c.2.3.3.6.3,1s-.1.7-.3,1Z"/>
    </g>
  </g>
</svg>