<svg width="48" height="48" viewBox="0 0 48 48" fill="none" xmlns="http://www.w3.org/2000/svg">
<g clip-path="url(#clip0_1407_9613)">
<path d="M24 2C36.13 2 46 11.87 46 24C46 36.13 36.13 46 24 46C11.87 46 2 36.13 2 24C2 11.87 11.87 2 24 2ZM24 0C10.75 0 0 10.75 0 24C0 37.25 10.75 48 24 48C37.25 48 48 37.25 48 24C48 10.75 37.25 0 24 0Z" fill="#4A4A4A"/>
<path d="M34.5944 32.6556L29.1494 27.2037C30.2288 25.7256 30.875 23.9106 30.875 21.9375C30.875 17.0013 26.8737 13 21.9375 13C17.0013 13 13 17.0013 13 21.9375C13 26.8737 17.0013 30.875 21.9375 30.875C23.9106 30.875 25.7256 30.2288 27.2037 29.1494L32.6556 34.5944C32.9237 34.8625 33.2744 35 33.625 35C33.9756 35 34.3263 34.8625 34.5944 34.5944C35.1375 34.0581 35.1375 33.1919 34.5944 32.6556ZM21.9375 28.125C18.5275 28.125 15.75 25.3475 15.75 21.9375C15.75 18.5275 18.5275 15.75 21.9375 15.75C25.3475 15.75 28.125 18.5275 28.125 21.9375C28.125 25.3475 25.3475 28.125 21.9375 28.125Z" fill="#4A4A4A"/>
</g>
<defs>
<clipPath id="clip0_1407_9613">
<rect width="48" height="48" fill="white"/>
</clipPath>
</defs>
</svg>
