<svg  width="32" height="32" viewBox="0 0 32 32" fill="none" xmlns="http://www.w3.org/2000/svg">
<g id="19984-GD24-Search-32x32-V1 1" clip-path="url(#clip0_1181_6544)">
<path id="Vector" d="M31.41 28.59L23.49 20.66C25.06 18.51 26 15.87 26 13C26 5.82 20.18 0 13 0C5.82 0 0 5.82 0 13C0 20.18 5.82 26 13 26C15.87 26 18.51 25.06 20.66 23.49L28.59 31.41C28.98 31.8 29.49 32 30 32C30.51 32 31.02 31.8 31.41 31.41C32.2 30.63 32.2 29.37 31.41 28.59ZM13 22C8.04 22 4 17.96 4 13C4 8.04 8.04 4 13 4C17.96 4 22 8.04 22 13C22 17.96 17.96 22 13 22Z" fill="currentColor"/>
</g>
<defs>
<clipPath id="clip0_1181_6544">
<rect width="32" height="32" fill=""/>
</clipPath>
</defs>
</svg>
